<?xml version="1.0" encoding="UTF-8" standalone="no"?>
<svg width="512px" height="513px" viewBox="0 0 512 513" version="1.1" xmlns="http://www.w3.org/2000/svg" xmlns:xlink="http://www.w3.org/1999/xlink">
    <!-- Generator: Sketch 46.2 (44496) - http://www.bohemiancoding.com/sketch -->
    <title>CSS</title>
    <desc>Created with Sketch.</desc>
    <defs></defs>
    <g id="Page-1" stroke="none" stroke-width="1" fill="none" fill-rule="evenodd">
        <g id="CSS">
            <g>
                <path d="M512,256 C512,275.508 509.816,294.494 505.689,312.738 C499.273,341.086 488.156,367.647 473.193,391.555 C472.556,392.579 471.908,393.603 471.25,394.627 C425.681,465.251 346.3,512 256,512 C165.7,512 86.319,465.251 40.751,394.627 C20.929,363.928 7.502,328.715 2.351,290.858 C1.16,282.123 0.418,273.241 0.136,264.234 C0.042,261.496 0,258.759 0,256 C0,231.1 3.553,207.036 10.177,184.278 C12.831,175.177 15.976,166.285 19.592,157.633 C25.454,143.527 32.559,130.069 40.751,117.373 C86.319,46.749 165.7,0 256,0 C346.3,0 425.681,46.749 471.249,117.373 C481.614,133.433 490.235,150.726 496.839,168.991 C499.963,177.664 502.649,186.556 504.843,195.636 C506.954,204.35 508.615,213.243 509.796,222.281 C510.956,231.027 511.656,239.919 511.907,248.926 C511.969,251.277 512,253.628 512,256 Z" id="Shape" fill="#5C5E70" fill-rule="nonzero"></path>
                <path d="M471.249,127.76 L471.249,394.627 C425.681,465.251 346.3,512 256,512 C165.7,512 86.319,465.251 40.751,394.627 L40.751,22.8 C40.751,10.209 50.96,0 63.551,0 L343.49,0 L471.249,127.76 Z" id="Shape" fill="#F9EED7" fill-rule="nonzero"></path>
                <path d="M343.489,104.958 L343.489,0 L471.249,127.76 L366.291,127.76 C353.698,127.76 343.489,117.551 343.489,104.958 Z" id="Shape" fill="#E8DBC4" fill-rule="nonzero"></path>
                <g id="Symbol" transform="translate(41.000000, 141.000000)" fill-rule="nonzero" fill="#34ABE0">
                    <path d="M430.498,190 L430.498,253.666 C384.93,324.29 305.549,371.039 215.249,371.039 C124.949,371.039 45.568,324.29 0,253.666 L0,190 L430.498,190 L430.498,190 Z" id="Shape"></path>
                    <path d="M144.582,56.916723 C144.582,52.919083 141.936,39.594336 141.936,33.3118677 C141.936,15.9894807 161.866,0 180.562,0 C192.731,0 195.907,6.85340548 195.907,12.9437625 C195.907,18.4642616 193.261,24.9356032 187.617,24.9356032 C182.327,24.9356032 169.45,27.0293995 169.45,37.3095077 C169.45,41.8780849 172.096,56.1536746 172.096,60.7222518 C172.096,66.4327035 167.862,72.3331079 165.746,73.0961563 C168.215,73.8570462 172.096,79.3775453 172.096,85.2790289 C172.096,90.0375588 169.45,111.167633 169.45,114.974241 C169.45,123.159474 181.443,125.063318 187.617,125.063318 C194.142,125.063318 195.907,132.676534 195.907,137.436143 C195.907,146.00236 190.439,150 180.21,150 C161.691,150 141.937,137.056237 141.937,118.781929 C141.937,112.119555 144.583,93.0843562 144.583,88.8967636 C144.583,80.711531 134,86.0409981 134,72.5262984 C133.999,59.200472 144.582,64.7209711 144.582,56.916723 Z" id="Shape"></path>
                    <path d="M285.323,88.8967636 C285.323,93.0843562 287.968,112.120634 287.968,118.781929 C287.968,137.056237 268.215,150 249.696,150 C239.466,150 234,146.00236 234,137.436143 C234,132.677613 235.764,125.063318 242.29,125.063318 C248.462,125.063318 260.457,123.159474 260.457,114.974241 C260.457,111.167633 257.811,90.0375588 257.811,85.2790289 C257.811,79.3786246 261.692,73.8581255 264.16,73.0961563 C262.044,72.3352664 257.811,66.4337828 257.811,60.7222518 C257.811,56.1536746 260.457,41.8780849 260.457,37.3095077 C260.457,27.0304788 247.582,24.9356032 242.29,24.9356032 C236.647,24.9356032 234,18.4631823 234,12.9437625 C234,6.85340548 237.174,0 249.345,0 C268.04,0 287.97,15.9905599 287.97,33.3118677 C287.97,39.5932567 285.325,52.919083 285.325,56.916723 C285.325,64.7209711 295.907,59.200472 295.907,72.5252191 C295.905,86.0409981 285.323,80.711531 285.323,88.8967636 Z" id="Shape"></path>
                </g>
                <g id="Letters" transform="translate(134.000000, 347.000000)" fill="#F9EED7">
                    <path d="M76.5820313,60.234375 C76.5820313,62.9687637 75.9082099,65.9277185 74.5605469,69.1113281 C73.2128839,72.2949378 71.0937645,75.4199065 68.203125,78.4863281 C65.3124855,81.5527497 61.6211162,84.0429592 57.1289063,85.9570312 C52.6366963,87.8711033 47.4023736,88.828125 41.4257813,88.828125 C36.8945086,88.828125 32.7734561,88.3984418 29.0625,87.5390625 C25.3515439,86.6796832 21.982437,85.341806 18.9550781,83.5253906 C15.9277192,81.7089753 13.1445439,79.3164211 10.6054688,76.3476562 C8.33983242,73.6523303 6.40625801,70.6347823 4.8046875,67.2949219 C3.20311699,63.9550614 2.00195713,60.3906439 1.20117188,56.6015625 C0.400386621,52.8124811 0,48.7890838 0,44.53125 C0,37.6171529 1.00584932,31.4258086 3.01757813,25.9570312 C5.02930693,20.4882539 7.9101375,15.8105663 11.6601563,11.9238281 C15.410175,8.03708994 19.8046623,5.07813516 24.84375,3.046875 C29.8828377,1.01561484 35.2538777,0 40.9570313,0 C47.910191,0 54.1015354,1.38670488 59.53125,4.16015625 C64.9609646,6.93360762 69.1210793,10.3613077 72.0117188,14.4433594 C74.9023582,18.525411 76.3476563,22.3827943 76.3476563,26.015625 C76.3476563,28.0078225 75.6445383,29.7656174 74.2382813,31.2890625 C72.8320242,32.8125076 71.1328225,33.5742188 69.140625,33.5742188 C66.9140514,33.5742188 65.2441462,33.0468803 64.1308594,31.9921875 C63.0175726,30.9374947 61.7773506,29.1211066 60.4101563,26.5429688 C58.1445199,22.285135 55.478531,19.101573 52.4121094,16.9921875 C49.3456878,14.882802 45.5664287,13.828125 41.0742188,13.828125 C33.9257455,13.828125 28.2324431,16.5429416 23.9941406,21.9726562 C19.7558382,27.4023709 17.6367188,35.1171375 17.6367188,45.1171875 C17.6367188,51.7969084 18.5742094,57.3534935 20.4492188,61.7871094 C22.3242281,66.2207253 24.9804516,69.5312391 28.4179688,71.71875 C31.8554859,73.9062609 35.8788832,75 40.4882812,75 C45.4883063,75 49.7167796,73.759778 53.1738281,71.2792969 C56.6308767,68.7988157 59.2382725,65.156274 60.9960938,60.3515625 C61.738285,58.0859262 62.6562445,56.2402415 63.75,54.8144531 C64.8437555,53.3886647 66.6015504,52.6757812 69.0234375,52.6757812 C71.0937604,52.6757812 72.8710863,53.3984303 74.3554688,54.84375 C75.8398512,56.2890697 76.5820313,58.0859268 76.5820313,60.234375 Z M160.264285,61.5820312 C160.264285,66.7773697 158.926408,71.4452918 156.250613,75.5859375 C153.574819,79.7265832 149.658842,82.9687383 144.502566,85.3125 C139.346291,87.6562617 133.23307,88.828125 126.162723,88.828125 C117.686118,88.828125 110.694,87.2265785 105.18616,84.0234375 C101.279891,81.7187385 98.1060942,78.6425974 95.6646757,74.7949219 C93.2232573,70.9472464 92.0025663,67.2070494 92.0025663,63.5742188 C92.0025663,61.4648332 92.7349809,59.6582106 94.199832,58.1542969 C95.664683,56.6503831 97.5298988,55.8984375 99.7955351,55.8984375 C101.631482,55.8984375 103.184201,56.4843691 104.453738,57.65625 C105.723276,58.8281309 106.807249,60.5663947 107.705691,62.8710937 C108.799447,65.6054824 109.981076,67.8906158 111.250613,69.7265625 C112.520151,71.5625092 114.307242,73.0761659 116.611941,74.2675781 C118.91664,75.4589903 121.943954,76.0546875 125.693973,76.0546875 C130.850248,76.0546875 135.03966,74.8535276 138.262332,72.4511719 C141.485004,70.0488161 143.096316,67.0507992 143.096316,63.4570312 C143.096316,60.6054545 142.227184,58.2910245 140.488894,56.5136719 C138.750605,54.7363192 136.504533,53.3789109 133.750613,52.4414062 C130.996693,51.5039016 127.315089,50.5078178 122.705691,49.453125 C116.533785,48.0078053 111.367822,46.318369 107.207644,44.3847656 C103.047467,42.4511622 99.7467192,39.8144698 97.3053007,36.4746094 C94.8638823,33.1347489 93.6431913,28.9843998 93.6431913,24.0234375 C93.6431913,19.2968514 94.9322409,15.0976746 97.5103788,11.4257812 C100.088517,7.75388789 103.818948,4.93165049 108.701785,2.95898438 C113.584622,0.986318262 119.326752,0 125.928348,0 C131.201811,0 135.762313,0.654290332 139.609988,1.96289062 C143.457664,3.27149092 146.650991,5.00975479 149.190066,7.17773438 C151.729142,9.34571396 153.584592,11.6210818 154.756473,14.0039062 C155.928353,16.3867307 156.514285,18.7109262 156.514285,20.9765625 C156.514285,23.0468854 155.781871,24.9121011 154.317019,26.5722656 C152.852168,28.2324302 151.026015,29.0625 148.838504,29.0625 C146.846306,29.0625 145.33265,28.5644581 144.297488,27.5683594 C143.262327,26.5722606 142.139291,24.9414176 140.928348,22.6757812 C139.36584,19.4335775 137.490859,16.904306 135.303348,15.0878906 C133.115837,13.2714753 129.600247,12.3632812 124.756473,12.3632812 C120.264263,12.3632812 116.641252,13.3495995 113.887332,15.3222656 C111.133412,17.2949317 109.756473,19.6679549 109.756473,22.4414062 C109.756473,24.1601648 110.225218,25.644525 111.162723,26.8945313 C112.100227,28.1445375 113.389277,29.2187455 115.02991,30.1171875 C116.670543,31.0156295 118.330683,31.7187475 120.010379,32.2265625 C121.690075,32.7343775 124.463485,33.4765576 128.330691,34.453125 C133.174466,35.5859432 137.559187,36.8359307 141.484988,38.203125 C145.410789,39.5703193 148.750599,41.230459 151.504519,43.1835938 C154.258439,45.1367285 156.406855,47.6074069 157.949832,50.5957031 C159.492808,53.5839993 160.264285,57.2460721 160.264285,61.5820312 Z M243.067633,61.5820312 C243.067633,66.7773697 241.729755,71.4452918 239.053961,75.5859375 C236.378166,79.7265832 232.46219,82.9687383 227.305914,85.3125 C222.149638,87.6562617 216.036418,88.828125 208.96607,88.828125 C200.489465,88.828125 193.497348,87.2265785 187.989508,84.0234375 C184.083238,81.7187385 180.909442,78.6425974 178.468023,74.7949219 C176.026605,70.9472464 174.805914,67.2070494 174.805914,63.5742188 C174.805914,61.4648332 175.538328,59.6582106 177.00318,58.1542969 C178.468031,56.6503831 180.333246,55.8984375 182.598883,55.8984375 C184.434829,55.8984375 185.987548,56.4843691 187.257086,57.65625 C188.526623,58.8281309 189.610597,60.5663947 190.509039,62.8710937 C191.602794,65.6054824 192.784423,67.8906158 194.053961,69.7265625 C195.323498,71.5625092 197.11059,73.0761659 199.415289,74.2675781 C201.719988,75.4589903 204.747301,76.0546875 208.49732,76.0546875 C213.653596,76.0546875 217.843007,74.8535276 221.06568,72.4511719 C224.288352,70.0488161 225.899664,67.0507992 225.899664,63.4570312 C225.899664,60.6054545 225.030532,58.2910245 223.292242,56.5136719 C221.553952,54.7363192 219.307881,53.3789109 216.553961,52.4414062 C213.800041,51.5039016 210.118437,50.5078178 205.509039,49.453125 C199.337133,48.0078053 194.171169,46.318369 190.010992,44.3847656 C185.850815,42.4511622 182.550067,39.8144698 180.108648,36.4746094 C177.66723,33.1347489 176.446539,28.9843998 176.446539,24.0234375 C176.446539,19.2968514 177.735589,15.0976746 180.313726,11.4257812 C182.891864,7.75388789 186.622296,4.93165049 191.505133,2.95898438 C196.38797,0.986318262 202.1301,0 208.731695,0 C214.005159,0 218.56566,0.654290332 222.413336,1.96289062 C226.261011,3.27149092 229.454339,5.00975479 231.993414,7.17773438 C234.532489,9.34571396 236.387939,11.6210818 237.55982,14.0039062 C238.731701,16.3867307 239.317633,18.7109262 239.317633,20.9765625 C239.317633,23.0468854 238.585218,24.9121011 237.120367,26.5722656 C235.655516,28.2324302 233.829362,29.0625 231.641851,29.0625 C229.649654,29.0625 228.135997,28.5644581 227.100836,27.5683594 C226.065674,26.5722606 224.942639,24.9414176 223.731695,22.6757812 C222.169187,19.4335775 220.294206,16.904306 218.106695,15.0878906 C215.919184,13.2714753 212.403594,12.3632812 207.55982,12.3632812 C203.06761,12.3632812 199.4446,13.3495995 196.69068,15.3222656 C193.93676,17.2949317 192.55982,19.6679549 192.55982,22.4414062 C192.55982,24.1601648 193.028565,25.644525 193.96607,26.8945313 C194.903575,28.1445375 196.192624,29.2187455 197.833258,30.1171875 C199.473891,31.0156295 201.134031,31.7187475 202.813726,32.2265625 C204.493422,32.7343775 207.266832,33.4765576 211.134039,34.453125 C215.977813,35.5859432 220.362535,36.8359307 224.288336,38.203125 C228.214137,39.5703193 231.553947,41.230459 234.307867,43.1835938 C237.061787,45.1367285 239.210203,47.6074069 240.75318,50.5957031 C242.296156,53.5839993 243.067633,57.2460721 243.067633,61.5820312 Z" id="CSS"></path>
                </g>
            </g>
        </g>
    </g>
</svg>