<?xml version="1.0" encoding="UTF-8" standalone="no"?>
<svg width="512px" height="513px" viewBox="0 0 512 513" version="1.1" xmlns="http://www.w3.org/2000/svg" xmlns:xlink="http://www.w3.org/1999/xlink">
    <!-- Generator: Sketch 46.2 (44496) - http://www.bohemiancoding.com/sketch -->
    <title>CSS</title>
    <desc>Created with Sketch.</desc>
    <defs></defs>
    <g id="Page-1" stroke="none" stroke-width="1" fill="none" fill-rule="evenodd">
        <g id="CSS">
            <path d="M512,256 C512,275.508 509.816,294.494 505.689,312.738 C499.273,341.086 488.156,367.647 473.193,391.555 C472.556,392.579 471.908,393.603 471.25,394.627 C425.681,465.251 346.3,512 256,512 C165.7,512 86.319,465.251 40.751,394.627 C20.929,363.928 7.502,328.715 2.351,290.858 C1.16,282.123 0.418,273.241 0.136,264.234 C0.042,261.496 0,258.759 0,256 C0,231.1 3.553,207.036 10.177,184.278 C12.831,175.177 15.976,166.285 19.592,157.633 C25.454,143.527 32.559,130.069 40.751,117.373 C86.319,46.749 165.7,0 256,0 C346.3,0 425.681,46.749 471.249,117.373 C481.614,133.433 490.235,150.726 496.839,168.991 C499.963,177.664 502.649,186.556 504.843,195.636 C506.954,204.35 508.615,213.243 509.796,222.281 C510.956,231.027 511.656,239.919 511.907,248.926 C511.969,251.277 512,253.628 512,256 Z" id="Shape" fill="#5C5E70" fill-rule="nonzero"></path>
            <path d="M471.249,127.76 L471.249,394.627 C425.681,465.251 346.3,512 256,512 C165.7,512 86.319,465.251 40.751,394.627 L40.751,22.8 C40.751,10.209 50.96,0 63.551,0 L343.49,0 L471.249,127.76 Z" id="Shape" fill="#EFEFEF" fill-rule="nonzero"></path>
            <path d="M343.489,104.958 L343.489,0 L471.249,127.76 L366.291,127.76 C353.698,127.76 343.489,117.551 343.489,104.958 Z" id="Shape" fill="#DCDCDC" fill-rule="nonzero"></path>
            <g id="Symbol" transform="translate(41.000000, 119.000000)" fill-rule="nonzero">
                <path d="M430.498,212 L430.498,275.666 C384.93,346.29 305.549,393.039 215.249,393.039 C124.949,393.039 45.568,346.29 0,275.666 L0,212 L430.498,212 L430.498,212 Z" id="Shape" fill="#2965F1"></path>
                <polygon id="polygon2989" fill="#264DE4" points="214.915035 181.635884 134.025804 163.538585 116 0.59688389 314.072519 0.59688389 296.027603 163.513061"></polygon>
                <polygon id="polygon2991" fill="#2965F1" points="280.542917 153.516892 295.963495 14.2975578 215 14.2975578 215 168.161344"></polygon>
                <polygon id="polygon2993" fill="#EBEBEB" points="158 74.7417076 160.222442 94.7256178 215.712496 94.7256178 215.712496 74.7417076"></polygon>
                <polygon id="polygon2995" fill="#EBEBEB" points="153 34.4456077 155.254113 54.429958 215.178129 54.429958 215.178129 34.4456077 215.092399 34.4456077"></polygon>
                <polygon id="polygon2997" fill="#EBEBEB" points="215.38211 126.485473 215.273445 126.508797 187.657287 120.499101 185.891893 104.560821 172.472604 104.560821 161 104.560821 164.473998 135.938773 215.267984 147.302889 215.38211 147.277365"></polygon>
                <polygon id="polygon3005" fill="#FFFFFF" points="272.639325 74.8939926 277.115879 34.4456077 215 34.4456077 215 54.429958 249.940933 54.429958 247.684636 74.8939926 215 74.8939926 215 94.8779028 245.534273 94.8779028 242.65602 120.795815 215 126.811672 215 147.602684 265.834394 136.24825 266.207349 132.871977 272.034296 80.2602952"></polygon>
            </g>
            <g id="Letters" transform="translate(136.000000, 351.000000)" fill="#EFEFEF">
                <path d="M12.1289062,11.5429687 C19.1601914,4.4335582 28.1054145,0.87890625 38.9648438,0.87890625 C53.4961664,0.87890625 64.1210602,5.64448359 70.8398438,15.1757812 C74.5507998,20.5273705 76.5429674,25.8984105 76.8164062,31.2890625 L58.7695312,31.2890625 C57.5976504,27.1484168 56.0937592,24.023448 54.2578125,21.9140625 C50.9765461,18.1640438 46.1133135,16.2890625 39.6679688,16.2890625 C33.1054359,16.2890625 27.9297064,18.9355204 24.140625,24.2285156 C20.3515436,29.5215108 18.4570312,37.0116703 18.4570312,46.6992187 C18.4570312,56.3867672 20.4589644,63.642554 24.4628906,68.4667969 C28.4668169,73.2910397 33.5546566,75.703125 39.7265625,75.703125 C46.0547191,75.703125 50.8788896,73.6328332 54.1992187,69.4921875 C56.0351654,67.2656139 57.5585877,63.9258035 58.7695312,59.4726562 L76.640625,59.4726562 C75.0781172,68.8867658 71.0840165,76.5429393 64.6582031,82.4414062 C58.2323897,88.3398732 50.0000502,91.2890625 39.9609375,91.2890625 C27.5390004,91.2890625 17.773473,87.3047273 10.6640625,79.3359375 C3.55465195,71.328085 0,60.3516322 0,46.40625 C0,31.3280496 4.04292832,19.7070721 12.1289062,11.5429687 Z M105.476562,62.2265625 C106.02344,66.1718947 107.097648,69.121084 108.699219,71.0742188 C111.628921,74.628924 116.648402,76.40625 123.757812,76.40625 C128.015646,76.40625 131.472643,75.9375047 134.128906,75 C139.167994,73.203116 141.6875,69.8633057 141.6875,64.9804688 C141.6875,62.128892 140.437513,59.9218828 137.9375,58.359375 C135.437487,56.8359299 131.511746,55.4882871 126.160156,54.3164062 L117.019531,52.265625 C108.035111,50.2343648 101.824236,48.0273557 98.3867188,45.6445312 C92.5663771,41.6601363 89.65625,35.4297299 89.65625,26.953125 C89.65625,19.2187113 92.4687219,12.7929943 98.09375,7.67578125 C103.718778,2.55856816 111.980414,0 122.878906,0 C131.980514,0 139.744108,2.41208525 146.169922,7.23632812 C152.595735,12.060571 155.964842,19.0624541 156.277344,28.2421875 L138.933594,28.2421875 C138.621092,23.046849 136.35549,19.3554797 132.136719,17.1679688 C129.324205,15.722649 125.828146,15 121.648438,15 C116.999977,15 113.289076,15.9374906 110.515625,17.8125 C107.742174,19.6875094 106.355469,22.3046707 106.355469,25.6640625 C106.355469,28.7500154 107.722643,31.0546799 110.457031,32.578125 C112.214853,33.5937551 115.964815,34.7851494 121.707031,36.1523438 L136.589844,39.7265625 C143.113314,41.2890703 148.03514,43.3788932 151.355469,45.9960937 C156.511745,50.0586141 159.089844,55.9374615 159.089844,63.6328125 C159.089844,71.523477 156.072296,78.0761458 150.037109,83.2910156 C144.001923,88.5058854 135.476618,91.1132812 124.460938,91.1132812 C113.210881,91.1132812 104.363313,88.5449476 97.9179688,83.4082031 C91.472624,78.2714587 88.25,71.2109824 88.25,62.2265625 L105.476562,62.2265625 Z M187.515625,62.2265625 C188.062503,66.1718947 189.136711,69.121084 190.738281,71.0742188 C193.667983,74.628924 198.687464,76.40625 205.796875,76.40625 C210.054709,76.40625 213.511705,75.9375047 216.167969,75 C221.207056,73.203116 223.726562,69.8633057 223.726562,64.9804688 C223.726562,62.128892 222.476575,59.9218828 219.976562,58.359375 C217.47655,56.8359299 213.550808,55.4882871 208.199219,54.3164062 L199.058594,52.265625 C190.074174,50.2343648 183.863298,48.0273557 180.425781,45.6445312 C174.60544,41.6601363 171.695312,35.4297299 171.695312,26.953125 C171.695312,19.2187113 174.507784,12.7929943 180.132812,7.67578125 C185.757841,2.55856816 194.019477,0 204.917969,0 C214.019577,0 221.783171,2.41208525 228.208984,7.23632812 C234.634798,12.060571 238.003905,19.0624541 238.316406,28.2421875 L220.972656,28.2421875 C220.660155,23.046849 218.394552,19.3554797 214.175781,17.1679688 C211.363267,15.722649 207.867208,15 203.6875,15 C199.039039,15 195.328139,15.9374906 192.554688,17.8125 C189.781236,19.6875094 188.394531,22.3046707 188.394531,25.6640625 C188.394531,28.7500154 189.761705,31.0546799 192.496094,32.578125 C194.253915,33.5937551 198.003878,34.7851494 203.746094,36.1523438 L218.628906,39.7265625 C225.152376,41.2890703 230.074202,43.3788932 233.394531,45.9960937 C238.550807,50.0586141 241.128906,55.9374615 241.128906,63.6328125 C241.128906,71.523477 238.111358,78.0761458 232.076172,83.2910156 C226.040985,88.5058854 217.51568,91.1132812 206.5,91.1132812 C195.249944,91.1132812 186.402376,88.5449476 179.957031,83.4082031 C173.511687,78.2714587 170.289062,71.2109824 170.289062,62.2265625 L187.515625,62.2265625 Z" id="CSS"></path>
            </g>
        </g>
    </g>
</svg>