<?xml version="1.0" encoding="UTF-8" standalone="no"?>
<svg width="512px" height="513px" viewBox="0 0 512 513" version="1.1" xmlns="http://www.w3.org/2000/svg" xmlns:xlink="http://www.w3.org/1999/xlink">
    <!-- Generator: Sketch 46.2 (44496) - http://www.bohemiancoding.com/sketch -->
    <title>GitHub</title>
    <desc>Created with Sketch.</desc>
    <defs></defs>
    <g id="Page-1" stroke="none" stroke-width="1" fill="none" fill-rule="evenodd">
        <g id="GitHub">
            <path d="M512,256 C512,275.508 509.816,294.494 505.689,312.738 C499.273,341.086 488.156,367.647 473.193,391.555 C472.556,392.579 471.908,393.603 471.25,394.627 C425.681,465.251 346.3,512 256,512 C165.7,512 86.319,465.251 40.751,394.627 C20.929,363.928 7.502,328.715 2.351,290.858 C1.16,282.123 0.418,273.241 0.136,264.234 C0.042,261.496 0,258.759 0,256 C0,231.1 3.553,207.036 10.177,184.278 C12.831,175.177 15.976,166.285 19.592,157.633 C25.454,143.527 32.559,130.069 40.751,117.373 C86.319,46.749 165.7,0 256,0 C346.3,0 425.681,46.749 471.249,117.373 C481.614,133.433 490.235,150.726 496.839,168.991 C499.963,177.664 502.649,186.556 504.843,195.636 C506.954,204.35 508.615,213.243 509.796,222.281 C510.956,231.027 511.656,239.919 511.907,248.926 C511.969,251.277 512,253.628 512,256 Z" id="Shape" fill="#5C5E70" fill-rule="nonzero"></path>
            <path d="M471.249,127.76 L471.249,394.627 C425.681,465.251 346.3,512 256,512 C165.7,512 86.319,465.251 40.751,394.627 L40.751,22.8 C40.751,10.209 50.96,0 63.551,0 L343.49,0 L471.249,127.76 Z" id="Shape" fill="#F9EED7" fill-rule="nonzero"></path>
            <path d="M343.489,104.958 L343.489,0 L471.249,127.76 L366.291,127.76 C353.698,127.76 343.489,117.551 343.489,104.958 Z" id="Shape" fill="#E8DBC4" fill-rule="nonzero"></path>
            <g id="Symbol" transform="translate(41.000000, 81.000000)" fill-rule="nonzero" fill="#767676">
                <path d="M430.498,250 L430.498,313.666 C384.93,384.29 305.549,431.039 215.249,431.039 C124.949,431.039 45.568,384.29 0,313.666 L0,250 L430.498,250 L430.498,250 Z" id="Shape"></path>
                <path d="M105,109.99989 C105,79.635337 115.742177,53.7108838 137.22675,32.2265303 C158.710884,10.7421768 184.635337,0 215.00011,0 C245.364443,0 271.288896,10.7421768 292.77347,32.2265303 C314.257603,53.7108838 325,79.635337 325,109.99989 C325,140.364443 314.257823,166.288896 292.77347,187.77325 C271.289116,209.257603 245.364663,220 215.00011,220 C184.635337,220 158.710884,209.257823 137.22675,187.77325 C115.742177,166.289116 105,140.364223 105,109.99989 Z M117.031238,109.99989 C117.031238,136.927166 126.627583,159.986819 145.820272,179.179728 C165.012961,198.372197 188.072834,207.968762 215.00011,207.968762 C241.927166,207.968762 264.987039,198.372417 284.179728,179.179728 C303.372417,159.987039 312.968762,136.927166 312.968762,109.99989 C312.968762,83.0728336 303.372637,60.0129608 284.179728,40.8202717 C264.987039,21.6275825 241.926946,12.031238 215.00011,12.031238 C188.072834,12.031238 165.013181,21.6275825 145.820272,40.8202717 C126.627583,60.0129608 117.031238,83.0728336 117.031238,109.99989 Z M147.968927,133.632679 C147.396011,133.059763 147.396011,132.486847 147.968927,131.913931 C149.114539,130.768098 150.547049,130.338411 152.265578,130.624869 C153.984326,130.911327 154.986929,131.197785 155.273387,131.484244 C157.278594,132.343618 159.498753,134.277099 161.933427,137.285129 C164.3681,140.292938 166.301802,142.369649 167.734312,143.515481 C174.609305,149.244642 181.627308,149.674329 188.788759,144.804543 C189.361675,142.799336 190.292773,141.080588 191.581615,139.648078 C192.870456,138.215788 194.088233,137.213404 195.234065,136.640268 C196.380117,136.067352 198.385323,135.207978 201.249904,134.062146 C191.796568,133.202772 184.133925,131.555528 178.261535,129.120635 C172.389146,126.685741 167.734092,123.606427 164.296596,119.882473 C159.713267,114.726228 156.920191,107.994464 155.917588,99.6871803 C154.914765,91.3798969 155.559405,83.7887587 157.85129,76.9137656 C159.570038,72.6168949 162.004931,68.7499312 165.15575,65.3122147 C162.864085,58.1507635 163.293773,49.9867092 166.444811,40.8200517 C175.611469,41.3929678 183.918752,44.5440063 191.366661,50.2731672 C205.689563,46.5492126 220.585382,46.4059836 236.053896,49.8434801 C238.059103,48.4111899 241.138637,46.6209371 245.292058,44.4722818 C249.4457,42.3238464 254.673669,41.1062897 260.975746,40.8198316 C262.121579,43.9708702 262.909448,47.6948248 263.339135,51.9916955 C263.768822,56.2885662 263.554089,60.2989788 262.694715,64.0229334 C269.28303,70.8979266 272.720526,80.0645841 273.006984,91.5229059 C273.006984,100.689563 271.431685,108.280702 268.280647,114.296321 C265.129608,120.31194 259.543676,125.324955 251.522851,129.335148 C246.080148,131.913491 238.918697,133.48879 230.038497,134.061706 C234.04913,136.066912 236.985215,138.143843 238.847192,140.292278 C240.70939,142.440714 241.926726,145.806486 242.499862,150.389815 L242.499862,163.925287 L242.92933,177.030633 C243.788704,178.463143 244.791527,179.68048 245.937359,180.683303 C247.083191,181.685906 248.085794,182.402051 248.945169,182.831738 C249.804323,183.261425 250.091001,183.906066 249.804323,184.76544 C249.517865,185.624814 248.372032,186.054501 246.367046,186.054501 C241.497039,186.054501 237.630076,184.335753 234.765495,180.898037 C233.906121,179.465746 233.476434,177.747218 233.476434,175.741792 L233.476434,155.116812 C233.476434,152.825148 232.903518,151.177904 231.757686,150.175301 C230.611854,149.172478 229.466021,148.528057 228.320189,148.241599 L228.320189,175.311885 C228.320189,180.181671 228.893105,183.33271 230.038937,184.765 C231.18477,186.19729 231.900915,187.629801 232.187593,189.061871 C232.474051,189.348329 232.259097,189.563062 231.542952,189.706291 C230.827027,189.849301 229.60947,189.634787 227.890502,189.061871 C224.166547,188.202497 221.588425,186.268795 220.156135,183.260985 C218.723845,180.253176 218.007699,177.030413 218.007699,173.592916 L218.007699,146.952978 L212.421768,146.952978 L212.421768,173.593576 C212.421768,177.031073 211.705402,180.325561 210.273112,183.476379 C208.268126,187.487012 204.543951,189.635227 199.101468,189.921685 C198.242094,189.635227 197.812407,189.348769 197.812407,189.062531 C198.098865,188.775853 198.958239,187.343783 200.39053,184.76566 C200.676988,184.192744 201.03517,183.046912 201.464857,181.328164 C201.894764,179.609415 202.109498,177.604209 202.109498,175.312545 L202.109498,148.242039 C200.963666,148.528497 199.889338,149.172918 198.886735,150.175741 C197.884132,151.178564 197.38272,152.825588 197.38272,155.117252 L197.38272,175.742232 C197.38272,177.747218 196.953033,179.466186 196.093659,180.898477 C193.515536,184.335973 189.648353,186.054941 184.492328,186.054941 C182.487122,186.054941 181.34129,185.625254 181.054831,184.76588 C180.768153,184.192964 180.839878,183.691553 181.269785,183.261865 C181.699692,182.832178 182.344113,182.330767 183.203487,181.757851 C184.062861,181.184935 184.635777,180.755028 184.922235,180.46879 C186.068067,179.609415 186.927221,178.463583 187.500358,177.031293 C188.359732,175.885461 188.574465,172.877651 188.144778,168.007864 C187.715091,163.138078 187.643367,159.987039 187.929825,158.554749 C180.481695,161.132871 172.890777,159.84359 165.15619,154.687565 C162.864525,152.395901 160.572861,149.101413 158.281197,144.804763 C156.562448,141.653504 153.124952,137.92955 147.968927,133.632679 Z" id="Shape"></path>
            </g>
            <g id="Letters" transform="translate(71.000000, 352.000000)" fill="#F9EED7">
                <path d="M73.8258575,47.2295515 L73.8258575,62.0580475 C73.8258575,64.0281541 73.6323678,65.6024567 73.2453826,66.7810026 C72.8583974,67.9595485 72.1460034,69.023742 71.1081794,69.9736148 C70.0703554,70.9234876 68.7423124,71.8381662 67.1240106,72.7176781 C62.4450074,75.2506723 57.9419741,77.0976195 53.6147757,78.2585752 C49.2875773,79.4195309 44.5734644,80 39.4722955,80 C33.5267953,80 28.1090834,79.0853214 23.2189974,77.2559367 C18.3289113,75.426552 14.1600876,72.770466 10.7124011,69.2875989 C7.26471451,65.8047319 4.61742348,61.5831383 2.77044855,56.6226913 C0.923473615,51.6622443 0,46.1214026 0,40 C0,33.9841388 0.897088654,28.478477 2.69129288,23.4828496 C4.4854971,18.4872222 7.12399314,14.2480385 10.6068602,10.7651715 C14.0897272,7.28230449 18.3289108,4.61742348 23.3245383,2.77044855 C28.3201657,0.923473615 33.9841372,0 40.3166227,0 C45.523333,0 50.1319061,0.694803958 54.1424802,2.08443272 C58.1530544,3.47406148 61.4071995,5.22426385 63.9050132,7.33509235 C66.4028269,9.44592084 68.2849541,11.6798475 69.5514512,14.0369393 C70.8179483,16.3940311 71.4511873,18.487238 71.4511873,20.3166227 C71.4511873,22.2867293 70.7212034,23.9665718 69.2612137,25.3562005 C67.801224,26.7458293 66.0510216,27.4406332 64.0105541,27.4406332 C62.8847789,27.4406332 61.8029955,27.1767836 60.7651715,26.6490765 C59.7273475,26.1213694 58.8566438,25.3825905 58.1530343,24.4327177 C56.2181082,21.4071968 54.5822406,19.1205003 53.2453826,17.5725594 C51.9085245,16.0246185 50.1055522,14.7229604 47.8364116,13.6675462 C45.567271,12.6121319 42.6737203,12.0844327 39.1556728,12.0844327 C35.5320839,12.0844327 32.2955288,12.7088768 29.4459103,13.9577836 C26.5962918,15.2066905 24.1600805,17.0184578 22.1372032,19.3931398 C20.1143259,21.7678219 18.5664082,24.6789625 17.4934037,28.1266491 C16.4203992,31.5743356 15.883905,35.3913599 15.883905,39.5778364 C15.883905,48.6543989 17.9683169,55.6376185 22.1372032,60.5277045 C26.3060894,65.4177905 32.1195757,67.8627968 39.5778364,67.8627968 C43.2014253,67.8627968 46.6050852,67.3878675 49.7889182,66.4379947 C52.9727512,65.4881219 56.2005113,64.1336939 59.4722955,62.3746702 L59.4722955,49.8153034 L47.3350923,49.8153034 C44.4151129,49.8153034 42.2075712,49.3755541 40.7124011,48.4960422 C39.2172309,47.6165303 38.469657,46.1213826 38.469657,44.0105541 C38.469657,42.2867108 39.0941011,40.861923 40.3430079,39.7361478 C41.5919148,38.6103726 43.2893472,38.0474934 45.4353562,38.0474934 L63.2189974,38.0474934 C65.4001868,38.0474934 67.247134,38.2409831 68.7598945,38.6279683 C70.2726549,39.0149536 71.495158,39.8768623 72.4274406,41.2137203 C73.3597232,42.5505784 73.8258575,44.5558354 73.8258575,47.2295515 Z M104.653147,29.6042216 L104.653147,71.2401055 C104.653147,74.1249045 103.967138,76.3060612 102.595099,77.7836412 C101.223061,79.2612211 99.4816534,80 97.3708249,80 C95.2599964,80 93.544974,79.2436311 92.2257062,77.7308707 C90.9064384,76.2181103 90.2468144,74.0545435 90.2468144,71.2401055 L90.2468144,30.0263852 C90.2468144,27.1767668 90.9064384,25.03079 92.2257062,23.5883905 C93.544974,22.145991 95.2599964,21.4248021 97.3708249,21.4248021 C99.4816534,21.4248021 101.223061,22.145991 102.595099,23.5883905 C103.967138,25.03079 104.653147,27.036047 104.653147,29.6042216 Z M97.5291363,14.7229551 C95.5238492,14.7229551 93.8088268,14.1073061 92.3840175,12.8759894 C90.9592083,11.6446728 90.2468144,9.90326544 90.2468144,7.65171504 C90.2468144,5.61124749 90.9767983,3.93140501 92.436788,2.6121372 C93.8967777,1.29286939 95.5942101,0.633245383 97.5291363,0.633245383 C99.3937014,0.633245383 101.047159,1.23130449 102.489558,2.42744063 C103.931958,3.62357678 104.653147,5.36498417 104.653147,7.65171504 C104.653147,9.86808496 103.949548,11.6006974 102.542329,12.8496042 C101.13511,14.0985111 99.4640624,14.7229551 97.5291363,14.7229551 Z M122.815528,22.6912929 L124.398642,22.6912929 L124.398642,14.0369393 C124.398642,11.715028 124.460207,9.8944657 124.583338,8.57519789 C124.70647,7.25593008 125.049475,6.12137678 125.612362,5.17150396 C126.17525,4.18645066 126.984389,3.38610686 128.039803,2.77044855 C129.095217,2.15479024 130.273745,1.8469657 131.575423,1.8469657 C133.404808,1.8469657 135.058265,2.53297467 136.535845,3.90501319 C137.520898,4.81970554 138.145342,5.93666887 138.409196,7.25593668 C138.67305,8.57520449 138.804974,10.4485367 138.804974,12.8759894 L138.804974,22.6912929 L144.082019,22.6912929 C146.122487,22.6912929 147.679199,23.1750172 148.752204,24.1424802 C149.825208,25.1099433 150.361703,26.3500364 150.361703,27.8627968 C150.361703,29.797723 149.596539,31.1521509 148.066188,31.9261214 C146.535837,32.7000918 144.345886,33.0870712 141.496267,33.0870712 L138.804974,33.0870712 L138.804974,59.5778364 C138.804974,61.8293868 138.884129,63.5619992 139.042441,64.7757256 C139.200754,65.989452 139.622913,66.9744905 140.308932,67.7308707 C140.994951,68.4872509 142.111915,68.8654354 143.659856,68.8654354 C144.504187,68.8654354 145.647535,68.7159206 147.089935,68.4168865 C148.532334,68.1178525 149.658093,67.9683377 150.467243,67.9683377 C151.628199,67.9683377 152.674803,68.434472 153.607085,69.3667546 C154.539368,70.2990372 155.005502,71.4511805 155.005502,72.823219 C155.005502,75.1451303 153.739024,76.9217177 151.20603,78.1530343 C148.673036,79.3843509 145.031911,80 140.282547,80 C135.779446,80 132.366991,79.2436311 130.04508,77.7308707 C127.723169,76.2181103 126.201636,74.1249034 125.480436,71.4511873 C124.759236,68.7774712 124.398642,65.2067066 124.398642,60.7387863 L124.398642,33.0870712 L122.498906,33.0870712 C120.423258,33.0870712 118.84016,32.594552 117.749565,31.6094987 C116.658971,30.6244454 116.113681,29.3755573 116.113681,27.8627968 C116.113681,26.3500364 116.685356,25.1099433 117.828721,24.1424802 C118.972087,23.1750172 120.634339,22.6912929 122.815528,22.6912929 Z M179.553108,9.49868074 L179.553108,31.6622691 L213.378966,31.6622691 L213.378966,9.49868074 C213.378966,6.33243799 214.091359,3.95779156 215.516169,2.37467018 C216.940978,0.791548813 218.81431,0 221.136221,0 C223.493313,0 225.401825,0.782753826 226.861815,2.34828496 C228.321805,3.91381609 229.051789,6.29725752 229.051789,9.49868074 L229.051789,70.4485488 C229.051789,73.649972 228.31301,76.0422084 226.83543,77.6253298 C225.35785,79.2084512 223.458133,80 221.136221,80 C218.77913,80 216.897002,79.1996562 215.489783,77.5989446 C214.082564,75.998233 213.378966,73.6147916 213.378966,70.4485488 L213.378966,44.4327177 L179.553108,44.4327177 L179.553108,70.4485488 C179.553108,73.649972 178.814329,76.0422084 177.336749,77.6253298 C175.859169,79.2084512 173.959452,80 171.637541,80 C169.280449,80 167.398322,79.1996562 165.991103,77.5989446 C164.583884,75.998233 163.880285,73.6147916 163.880285,70.4485488 L163.880285,9.49868074 C163.880285,6.33243799 164.575089,3.95779156 165.964717,2.37467018 C167.354346,0.791548813 169.245268,0 171.637541,0 C173.994633,0 175.903145,0.782753826 177.363134,2.34828496 C178.823124,3.91381609 179.553108,6.29725752 179.553108,9.49868074 Z M284.78673,71.8733509 L284.78673,70.0263852 C283.062886,72.2075747 281.251119,74.0369319 279.351374,75.5145119 C277.451628,76.9920918 275.376011,78.0914652 273.124461,78.8126649 C270.87291,79.5338646 268.304774,79.8944591 265.419975,79.8944591 C261.937108,79.8944591 258.814888,79.1732702 256.053221,77.7308707 C253.291553,76.2884712 251.154371,74.3008042 249.641611,71.76781 C247.847407,68.7071087 246.950318,64.3096153 246.950318,58.5751979 L246.950318,30.0263852 C246.950318,27.1415863 247.601147,24.9868145 248.902825,23.5620053 C250.204502,22.137196 251.92832,21.4248021 254.074329,21.4248021 C256.255518,21.4248021 258.014515,22.145991 259.351374,23.5883905 C260.688232,25.03079 261.356651,27.1767668 261.356651,30.0263852 L261.356651,53.0870712 C261.356651,56.4292164 261.63809,59.2348172 262.200978,61.5039578 C262.763865,63.7730984 263.775289,65.5496858 265.235279,66.8337731 C266.695268,68.1178604 268.67414,68.7598945 271.171954,68.7598945 C273.599407,68.7598945 275.886103,68.0387055 278.032112,66.5963061 C280.178121,65.1539066 281.743629,63.2717794 282.728682,60.9498681 C283.537833,58.9094005 283.942403,54.4415472 283.942403,47.5461741 L283.942403,30.0263852 C283.942403,27.1767668 284.610822,25.03079 285.94768,23.5883905 C287.284538,22.145991 289.025945,21.4248021 291.171954,21.4248021 C293.317963,21.4248021 295.04178,22.137196 296.343458,23.5620053 C297.645136,24.9868145 298.295965,27.1415863 298.295965,30.0263852 L298.295965,71.76781 C298.295965,74.5118871 297.671521,76.569914 296.422614,77.9419525 C295.173707,79.313991 293.564224,80 291.594118,80 C289.624011,80 287.996938,79.2876061 286.712851,77.8627968 C285.428764,76.4379876 284.78673,74.4415256 284.78673,71.8733509 Z M328.437238,8.23218997 L328.437238,30.237467 C331.146135,27.423029 333.90776,25.2682573 336.722198,23.7730871 C339.536636,22.2779169 343.019451,21.530343 347.170747,21.530343 C351.955292,21.530343 356.150501,22.6648963 359.756499,24.9340369 C363.362498,27.2031776 366.159304,30.4925026 368.147001,34.8021108 C370.134697,39.111719 371.128531,44.2216063 371.128531,50.1319261 C371.128531,54.494305 370.574447,58.496024 369.466262,62.1372032 C368.358077,65.7783823 366.748594,68.9357826 364.637766,71.6094987 C362.526937,74.2832148 359.967596,76.3500367 356.959665,77.8100264 C353.951735,79.2700161 350.636025,80 347.012436,80 C344.796066,80 342.711654,79.7361504 340.759138,79.2084433 C338.806621,78.6807361 337.144369,77.9859322 335.77233,77.1240106 C334.400292,76.2620889 333.230559,75.3737953 332.263096,74.4591029 C331.295632,73.5444106 330.020359,72.1723926 328.437238,70.3430079 L328.437238,71.76781 C328.437238,74.4767066 327.786409,76.5259385 326.484731,77.9155673 C325.183054,79.305196 323.529596,80 321.524309,80 C319.483842,80 317.856769,79.305196 316.643043,77.9155673 C315.429316,76.5259385 314.822462,74.4767066 314.822462,71.76781 L314.822462,8.86543536 C314.822462,5.94545594 315.411726,3.73791425 316.590272,2.24274406 C317.768818,0.747573879 319.413481,0 321.524309,0 C323.740679,0 325.446907,0.712393931 326.643043,2.13720317 C327.839179,3.5620124 328.437238,5.59365435 328.437238,8.23218997 Z M329.123254,51.0290237 C329.123254,56.7634412 330.433707,61.1697296 333.054652,64.2480211 C335.675598,67.3263127 339.114438,68.8654354 343.371275,68.8654354 C346.994864,68.8654354 350.117084,67.2911327 352.73803,64.1424802 C355.358975,60.9938277 356.669428,56.4819995 356.669428,50.6068602 C356.669428,46.8073689 356.124139,43.5356338 355.033544,40.7915567 C353.942949,38.0474797 352.395032,35.9278879 350.389745,34.4327177 C348.384458,32.9375475 346.044991,32.1899736 343.371275,32.1899736 C340.627198,32.1899736 338.182192,32.9375475 336.036183,34.4327177 C333.890174,35.9278879 332.201536,38.0914546 330.97022,40.9234828 C329.738903,43.7555111 329.123254,47.123991 329.123254,51.0290237 Z" id="GitHub"></path>
            </g>
        </g>
    </g>
</svg>