<?xml version="1.0" encoding="UTF-8" standalone="no"?>
<svg width="512px" height="513px" viewBox="0 0 512 513" version="1.1" xmlns="http://www.w3.org/2000/svg" xmlns:xlink="http://www.w3.org/1999/xlink">
    <!-- Generator: Sketch 46.2 (44496) - http://www.bohemiancoding.com/sketch -->
    <title>GitHub</title>
    <desc>Created with Sketch.</desc>
    <defs></defs>
    <g id="Page-1" stroke="none" stroke-width="1" fill="none" fill-rule="evenodd">
        <g id="GitHub">
            <path d="M512,256 C512,275.508 509.816,294.494 505.689,312.738 C499.273,341.086 488.156,367.647 473.193,391.555 C472.556,392.579 471.908,393.603 471.25,394.627 C425.681,465.251 346.3,512 256,512 C165.7,512 86.319,465.251 40.751,394.627 C20.929,363.928 7.502,328.715 2.351,290.858 C1.16,282.123 0.418,273.241 0.136,264.234 C0.042,261.496 0,258.759 0,256 C0,231.1 3.553,207.036 10.177,184.278 C12.831,175.177 15.976,166.285 19.592,157.633 C25.454,143.527 32.559,130.069 40.751,117.373 C86.319,46.749 165.7,0 256,0 C346.3,0 425.681,46.749 471.249,117.373 C481.614,133.433 490.235,150.726 496.839,168.991 C499.963,177.664 502.649,186.556 504.843,195.636 C506.954,204.35 508.615,213.243 509.796,222.281 C510.956,231.027 511.656,239.919 511.907,248.926 C511.969,251.277 512,253.628 512,256 Z" id="Shape" fill="#5C5E70" fill-rule="nonzero"></path>
            <path d="M471.249,127.76 L471.249,394.627 C425.681,465.251 346.3,512 256,512 C165.7,512 86.319,465.251 40.751,394.627 L40.751,22.8 C40.751,10.209 50.96,0 63.551,0 L343.49,0 L471.249,127.76 Z" id="Shape" fill="#EFEFEF" fill-rule="nonzero"></path>
            <path d="M343.489,104.958 L343.489,0 L471.249,127.76 L366.291,127.76 C353.698,127.76 343.489,117.551 343.489,104.958 Z" id="Shape" fill="#DCDCDC" fill-rule="nonzero"></path>
            <g id="Symbol" transform="translate(41.000000, 81.000000)" fill-rule="nonzero" fill="#767676">
                <path d="M430.498,250 L430.498,313.666 C384.93,384.29 305.549,431.039 215.249,431.039 C124.949,431.039 45.568,384.29 0,313.666 L0,250 L430.498,250 L430.498,250 Z" id="Shape"></path>
                <path d="M105,109.99989 C105,79.635337 115.742177,53.7108838 137.22675,32.2265303 C158.710884,10.7421768 184.635337,0 215.00011,0 C245.364443,0 271.288896,10.7421768 292.77347,32.2265303 C314.257603,53.7108838 325,79.635337 325,109.99989 C325,140.364443 314.257823,166.288896 292.77347,187.77325 C271.289116,209.257603 245.364663,220 215.00011,220 C184.635337,220 158.710884,209.257823 137.22675,187.77325 C115.742177,166.289116 105,140.364223 105,109.99989 Z M117.031238,109.99989 C117.031238,136.927166 126.627583,159.986819 145.820272,179.179728 C165.012961,198.372197 188.072834,207.968762 215.00011,207.968762 C241.927166,207.968762 264.987039,198.372417 284.179728,179.179728 C303.372417,159.987039 312.968762,136.927166 312.968762,109.99989 C312.968762,83.0728336 303.372637,60.0129608 284.179728,40.8202717 C264.987039,21.6275825 241.926946,12.031238 215.00011,12.031238 C188.072834,12.031238 165.013181,21.6275825 145.820272,40.8202717 C126.627583,60.0129608 117.031238,83.0728336 117.031238,109.99989 Z M147.968927,133.632679 C147.396011,133.059763 147.396011,132.486847 147.968927,131.913931 C149.114539,130.768098 150.547049,130.338411 152.265578,130.624869 C153.984326,130.911327 154.986929,131.197785 155.273387,131.484244 C157.278594,132.343618 159.498753,134.277099 161.933427,137.285129 C164.3681,140.292938 166.301802,142.369649 167.734312,143.515481 C174.609305,149.244642 181.627308,149.674329 188.788759,144.804543 C189.361675,142.799336 190.292773,141.080588 191.581615,139.648078 C192.870456,138.215788 194.088233,137.213404 195.234065,136.640268 C196.380117,136.067352 198.385323,135.207978 201.249904,134.062146 C191.796568,133.202772 184.133925,131.555528 178.261535,129.120635 C172.389146,126.685741 167.734092,123.606427 164.296596,119.882473 C159.713267,114.726228 156.920191,107.994464 155.917588,99.6871803 C154.914765,91.3798969 155.559405,83.7887587 157.85129,76.9137656 C159.570038,72.6168949 162.004931,68.7499312 165.15575,65.3122147 C162.864085,58.1507635 163.293773,49.9867092 166.444811,40.8200517 C175.611469,41.3929678 183.918752,44.5440063 191.366661,50.2731672 C205.689563,46.5492126 220.585382,46.4059836 236.053896,49.8434801 C238.059103,48.4111899 241.138637,46.6209371 245.292058,44.4722818 C249.4457,42.3238464 254.673669,41.1062897 260.975746,40.8198316 C262.121579,43.9708702 262.909448,47.6948248 263.339135,51.9916955 C263.768822,56.2885662 263.554089,60.2989788 262.694715,64.0229334 C269.28303,70.8979266 272.720526,80.0645841 273.006984,91.5229059 C273.006984,100.689563 271.431685,108.280702 268.280647,114.296321 C265.129608,120.31194 259.543676,125.324955 251.522851,129.335148 C246.080148,131.913491 238.918697,133.48879 230.038497,134.061706 C234.04913,136.066912 236.985215,138.143843 238.847192,140.292278 C240.70939,142.440714 241.926726,145.806486 242.499862,150.389815 L242.499862,163.925287 L242.92933,177.030633 C243.788704,178.463143 244.791527,179.68048 245.937359,180.683303 C247.083191,181.685906 248.085794,182.402051 248.945169,182.831738 C249.804323,183.261425 250.091001,183.906066 249.804323,184.76544 C249.517865,185.624814 248.372032,186.054501 246.367046,186.054501 C241.497039,186.054501 237.630076,184.335753 234.765495,180.898037 C233.906121,179.465746 233.476434,177.747218 233.476434,175.741792 L233.476434,155.116812 C233.476434,152.825148 232.903518,151.177904 231.757686,150.175301 C230.611854,149.172478 229.466021,148.528057 228.320189,148.241599 L228.320189,175.311885 C228.320189,180.181671 228.893105,183.33271 230.038937,184.765 C231.18477,186.19729 231.900915,187.629801 232.187593,189.061871 C232.474051,189.348329 232.259097,189.563062 231.542952,189.706291 C230.827027,189.849301 229.60947,189.634787 227.890502,189.061871 C224.166547,188.202497 221.588425,186.268795 220.156135,183.260985 C218.723845,180.253176 218.007699,177.030413 218.007699,173.592916 L218.007699,146.952978 L212.421768,146.952978 L212.421768,173.593576 C212.421768,177.031073 211.705402,180.325561 210.273112,183.476379 C208.268126,187.487012 204.543951,189.635227 199.101468,189.921685 C198.242094,189.635227 197.812407,189.348769 197.812407,189.062531 C198.098865,188.775853 198.958239,187.343783 200.39053,184.76566 C200.676988,184.192744 201.03517,183.046912 201.464857,181.328164 C201.894764,179.609415 202.109498,177.604209 202.109498,175.312545 L202.109498,148.242039 C200.963666,148.528497 199.889338,149.172918 198.886735,150.175741 C197.884132,151.178564 197.38272,152.825588 197.38272,155.117252 L197.38272,175.742232 C197.38272,177.747218 196.953033,179.466186 196.093659,180.898477 C193.515536,184.335973 189.648353,186.054941 184.492328,186.054941 C182.487122,186.054941 181.34129,185.625254 181.054831,184.76588 C180.768153,184.192964 180.839878,183.691553 181.269785,183.261865 C181.699692,182.832178 182.344113,182.330767 183.203487,181.757851 C184.062861,181.184935 184.635777,180.755028 184.922235,180.46879 C186.068067,179.609415 186.927221,178.463583 187.500358,177.031293 C188.359732,175.885461 188.574465,172.877651 188.144778,168.007864 C187.715091,163.138078 187.643367,159.987039 187.929825,158.554749 C180.481695,161.132871 172.890777,159.84359 165.15619,154.687565 C162.864525,152.395901 160.572861,149.101413 158.281197,144.804763 C156.562448,141.653504 153.124952,137.92955 147.968927,133.632679 Z" id="Shape"></path>
            </g>
            <g id="Letters" transform="translate(81.000000, 351.000000)" fill="#EFEFEF">
                <path d="M54.3447536,29.1800378 C53.1507324,23.2815 50.2339527,19.160398 45.5943272,16.8166081 C43.0015953,15.5275237 40.11893,14.8829912 36.9462449,14.8829912 C30.8737939,14.8829912 25.8845656,17.5099496 21.9784103,22.7639452 C18.0722549,28.0179407 16.1192066,35.9183472 16.1192066,46.4654016 C16.1192066,57.0905822 18.2342983,64.6101286 22.4645451,69.0242661 C26.6947919,73.4384037 31.5049197,75.6454394 36.8950729,75.6454394 C42.1828814,75.6454394 46.5154078,73.897389 49.8927823,70.4012358 C53.2701568,66.9050826 55.351134,62.3249953 56.1357766,56.6608365 L38.6860958,56.6608365 L38.6860958,42.2466009 L70.1057556,42.2466009 L70.1057556,88.5948136 L59.6666504,88.5948136 L58.0803158,77.8134341 C55.0440903,81.9150664 52.3149397,84.8056972 49.8927823,86.4854132 C45.7307653,89.4151506 40.613608,90.8799973 34.541157,90.8799973 C24.5454932,90.8799973 16.3580415,86.9151456 9.97855646,78.9853232 C3.32615222,71.0164377 0,60.1179783 0,46.2896182 C0,32.3050054 3.36026661,21.0940454 10.0809006,12.6564019 C16.8015347,4.21875846 25.6883311,0 36.7415566,0 C46.3278417,0 54.0291634,2.78320871 59.8457527,8.34970961 C65.6623421,13.9162105 68.9970229,20.8595838 69.8498952,29.1800378 L54.3447536,29.1800378 Z M100.713485,17.1095804 L85.9247527,17.1095804 L85.9247527,1.69923915 L100.713485,1.69923915 L100.713485,17.1095804 Z M85.9247527,24.7268593 L100.713485,24.7268593 L100.713485,88.5948136 L85.9247527,88.5948136 L85.9247527,24.7268593 Z M110.852381,37.2074779 L110.852381,25.3128039 L118.630538,25.3128039 L118.630538,7.50009004 L133.061065,7.50009004 L133.061065,25.3128039 L142.118524,25.3128039 L142.118524,37.2074779 L133.061065,37.2074779 L133.061065,70.9578831 C133.061065,73.5751151 133.351038,75.2059777 133.930991,75.85052 C134.510944,76.4950622 136.284892,76.8173284 139.252888,76.8173284 C139.696381,76.8173284 140.165454,76.8075628 140.66012,76.7880312 C141.154786,76.7684996 141.640916,76.7392027 142.118524,76.7001395 L142.118524,89.1807581 L135.210293,89.4737304 C128.319084,89.7471725 123.6113,88.3799823 121.086798,85.3721186 C119.449283,83.4580236 118.630538,80.5087989 118.630538,76.5243562 L118.630538,37.2074779 L110.852381,37.2074779 Z M154.304303,88.5948136 L154.304303,2.22658923 L169.911789,2.22658923 L169.911789,35.1566721 L199.38691,35.1566721 L199.38691,2.22658923 L215.045568,2.22658923 L215.045568,88.5948136 L199.38691,88.5948136 L199.38691,50.0396632 L169.911789,50.0396632 L169.911789,88.5948136 L154.304303,88.5948136 Z M245.192748,24.7268593 L245.192748,63.2234152 C245.192748,66.8562895 245.568006,69.59067 246.318534,71.4266387 C247.649015,74.6688814 250.258765,76.2899784 254.147863,76.2899784 C259.128637,76.2899784 262.540076,73.9852862 264.38228,69.3758328 C265.337497,66.8757903 265.815098,63.5750025 265.815098,59.4733702 L265.815098,24.7268593 L280.603831,24.7268593 L280.603831,88.5948136 L266.429163,88.5948136 L266.429163,79.5712677 C266.292704,79.7665836 265.95156,80.3525222 265.405722,81.3291013 C264.859883,82.3056805 264.21171,83.1650572 263.461182,83.9072573 C261.175484,86.2510472 258.966578,87.8526129 256.834397,88.7120025 C254.702217,89.5713921 252.203338,90.0010805 249.337687,90.0010805 C241.081883,90.0010805 235.521239,86.6026361 232.655588,79.8056456 C231.052188,76.0555818 230.2505,70.528227 230.2505,63.2234152 L230.2505,24.7268593 L245.192748,24.7268593 Z M343.782592,32.4027327 C347.927551,38.4575232 350,46.2700389 350,55.8405141 C350,65.7625578 347.953137,73.9852306 343.85935,80.508779 C339.765563,87.0323274 334.051404,90.2940527 326.716702,90.2940527 C322.111191,90.2940527 318.409781,89.2393631 315.612359,87.1299522 C313.940729,85.879931 312.132667,83.6924266 310.188118,80.5673735 L310.188118,88.5948136 L295.911107,88.5948136 L295.911107,2.34377814 L310.443979,2.34377814 L310.443979,33.0472717 C312.286183,30.0784712 314.315989,27.8128417 316.533457,26.2503151 C319.160304,24.2971569 322.503513,23.3205925 326.563185,23.3205925 C333.897887,23.3205925 339.637632,26.3479423 343.782592,32.4027327 Z M331.57805,71.3094498 C333.659058,67.8328282 334.699547,63.2625065 334.699547,57.5983477 C334.699547,53.0670207 334.187831,49.3170131 333.164384,46.3482127 C331.219835,40.723117 327.637825,37.9106114 322.418247,37.9106114 C317.130438,37.9106114 313.497256,40.6645231 311.518593,46.1724293 C310.495146,49.1021666 309.98343,52.8912367 309.98343,57.5397533 C309.98343,63.0085963 311.040976,67.5398553 313.156099,71.1336665 C315.271223,74.7274776 318.495032,76.5243562 322.827623,76.5243562 C326.580261,76.5243562 329.497041,74.7860714 331.57805,71.3094498 Z" id="GitHub"></path>
            </g>
        </g>
    </g>
</svg>