<?xml version="1.0" encoding="UTF-8" standalone="no"?>
<svg width="512px" height="513px" viewBox="0 0 512 513" version="1.1" xmlns="http://www.w3.org/2000/svg" xmlns:xlink="http://www.w3.org/1999/xlink">
    <!-- Generator: Sketch 46.2 (44496) - http://www.bohemiancoding.com/sketch -->
    <title>HTML</title>
    <desc>Created with Sketch.</desc>
    <defs></defs>
    <g id="Page-1" stroke="none" stroke-width="1" fill="none" fill-rule="evenodd">
        <g id="HTML">
            <g>
                <path d="M512,256 C512,275.508 509.816,294.494 505.689,312.738 C499.273,341.086 488.156,367.647 473.193,391.555 C472.556,392.579 471.908,393.603 471.25,394.627 C425.681,465.251 346.3,512 256,512 C165.7,512 86.319,465.251 40.751,394.627 C20.929,363.928 7.502,328.715 2.351,290.858 C1.16,282.123 0.418,273.241 0.136,264.234 C0.042,261.496 0,258.759 0,256 C0,231.1 3.553,207.036 10.177,184.278 C12.831,175.177 15.976,166.285 19.592,157.633 C25.454,143.527 32.559,130.069 40.751,117.373 C86.319,46.749 165.7,0 256,0 C346.3,0 425.681,46.749 471.249,117.373 C481.614,133.433 490.235,150.726 496.839,168.991 C499.963,177.664 502.649,186.556 504.843,195.636 C506.954,204.35 508.615,213.243 509.796,222.281 C510.956,231.027 511.656,239.919 511.907,248.926 C511.969,251.277 512,253.628 512,256 Z" id="Shape" fill="#5C5E70" fill-rule="nonzero"></path>
                <path d="M471.249,127.76 L471.249,394.627 C425.681,465.251 346.3,512 256,512 C165.7,512 86.319,465.251 40.751,394.627 L40.751,22.8 C40.751,10.209 50.96,0 63.551,0 L343.49,0 L471.249,127.76 Z" id="Shape" fill="#F9EED7" fill-rule="nonzero"></path>
                <path d="M343.489,104.958 L343.489,0 L471.249,127.76 L366.291,127.76 C353.698,127.76 343.489,117.551 343.489,104.958 Z" id="Shape" fill="#E8DBC4" fill-rule="nonzero"></path>
                <g id="Symbol" transform="translate(41.000000, 157.000000)" fill-rule="nonzero" fill="#FF525D">
                    <path d="M430.498,174 L430.498,237.666 C384.93,308.29 305.549,355.039 215.249,355.039 C124.949,355.039 45.568,308.29 0,237.666 L0,174 L430.498,174 L430.498,174 Z" id="Shape"></path>
                    <path d="M108.253001,59.811 L151.299001,31.848 C152.146001,31.17 153.332001,31 154.518001,31 C159.602001,31 166.042001,36.424 166.042001,43.372 C166.042001,46.253 164.856001,48.794 162.991001,49.981 L133.164001,69.3 L162.991001,88.62 C164.855001,89.806 166.042001,92.348 166.042001,95.229 C166.042001,102.178 159.602001,107.6 154.518001,107.6 C153.332001,107.6 152.145001,107.431 151.299001,106.753 L108.253001,78.79 C104.356001,76.248 103.000001,72.181 103.000001,69.299 C102.999001,66.42 104.356001,62.353 108.253001,59.811 Z" id="Shape"></path>
                    <path d="M253.447,8.982 C253.447,10 253.278,11.185 252.769,12.201 L193.115,134.387 C191.929,136.929 188.709,138.623 185.489,138.623 C179.727,138.623 176,133.878 176,129.641 C176,128.625 176.339,127.438 176.847,126.422 L236.33,4.237 C237.685,1.355 240.397,-1.42108547e-14 243.448,-1.42108547e-14 C248.194,-2.84217094e-14 253.447,3.559 253.447,8.982 Z" id="Shape"></path>
                    <path d="M320.787,78.79 L277.743,106.753 C276.895,107.431 275.709,107.6 274.524,107.6 C269.44,107.6 263,102.178 263,95.229 C263,92.348 264.185,89.807 266.049,88.62 L295.876,69.3 L266.049,49.981 C264.185,48.795 263,46.253 263,43.372 C263,36.423 269.44,31 274.524,31 C275.709,31 276.896,31.17 277.743,31.848 L320.787,59.811 C324.684,62.353 326.04,66.42 326.04,69.3 C326.041,72.181 324.684,76.248 320.787,78.79 Z" id="Shape"></path>
                </g>
                <g id="Letters" transform="translate(86.000000, 347.000000)" fill="#F9EED7">
                    <path d="M17.6319261,10.6860158 L17.6319261,35.6200528 L55.6860158,35.6200528 L55.6860158,10.6860158 C55.6860158,7.12399274 56.487459,4.4525155 58.0903694,2.67150396 C59.6932798,0.890492414 61.8007785,0 64.4129288,0 C67.0646571,0 69.2117332,0.880598054 70.8542216,2.64182058 C72.4967101,4.40304311 73.317942,7.08441471 73.317942,10.6860158 L73.317942,79.2546174 C73.317942,82.8562185 72.4868157,85.5474845 70.8245383,87.328496 C69.1622608,89.1095076 67.025079,90 64.4129288,90 C61.7612005,90 59.6438074,89.0996132 58.060686,87.2988127 C56.4775646,85.4980121 55.6860158,82.8166405 55.6860158,79.2546174 L55.6860158,49.9868074 L17.6319261,49.9868074 L17.6319261,79.2546174 C17.6319261,82.8562185 16.8007999,85.5474845 15.1385224,87.328496 C13.476245,89.1095076 11.3390632,90 8.72691293,90 C6.07518463,90 3.95779156,89.0996132 2.37467018,87.2988127 C0.791548813,85.4980121 0,82.8166405 0,79.2546174 L0,10.6860158 C0,7.12399274 0.781654453,4.4525155 2.34498681,2.67150396 C3.90831916,0.890492414 6.0356066,0 8.72691293,0 C11.3786412,0 13.5257174,0.880598054 15.1682058,2.64182058 C16.8106942,4.40304311 17.6319261,7.08441471 17.6319261,10.6860158 Z M151.57384,16.0290237 L132.339012,16.0290237 L132.339012,79.2546174 C132.339012,82.8957966 131.527674,85.5969569 129.904975,87.3581794 C128.282275,89.1194019 126.184671,90 123.612099,90 C120.999949,90 118.872661,89.1095076 117.230173,87.328496 C115.587684,85.5474845 114.766452,82.8562185 114.766452,79.2546174 L114.766452,16.0290237 L95.5316239,16.0290237 C92.5236933,16.0290237 90.2875679,15.3661016 88.8231807,14.0402375 C87.3587934,12.7143733 86.6266107,10.9630716 86.6266107,8.78627968 C86.6266107,6.53033173 87.3884765,4.7493469 88.9122308,3.44327177 C90.4359851,2.13719664 92.6424274,1.48416887 95.5316239,1.48416887 L151.57384,1.48416887 C154.621349,1.48416887 156.887157,2.15698536 158.371334,3.50263852 C159.85551,4.84829169 160.597587,6.6094878 160.597587,8.78627968 C160.597587,10.9630716 159.845616,12.7143733 158.34165,14.0402375 C156.837685,15.3661016 154.581771,16.0290237 151.57384,16.0290237 Z M203.233433,75.3957784 L189.282245,19.9472296 L189.282245,80.0263852 C189.282245,83.3509401 188.540168,85.8443189 187.055992,87.5065963 C185.571816,89.1688737 183.602838,90 181.149,90 C178.774318,90 176.835023,89.1787681 175.331058,87.5362797 C173.827093,85.8937913 173.075121,83.3905181 173.075121,80.0263852 L173.075121,11.1609499 C173.075121,7.36145858 174.064557,4.79881929 176.043459,3.47295515 C178.022361,2.147091 180.693838,1.48416887 184.057971,1.48416887 L189.519712,1.48416887 C192.804689,1.48416887 195.18923,1.78099967 196.673406,2.37467018 C198.157582,2.9683407 199.255856,4.0369316 199.968261,5.58047493 C200.680666,7.12401827 201.492003,9.63718575 202.402298,13.1200528 L215.047417,60.7915567 L227.692535,13.1200528 C228.60283,9.63718575 229.414168,7.12401827 230.126572,5.58047493 C230.838977,4.0369316 231.937251,2.9683407 233.421427,2.37467018 C234.905604,1.78099967 237.290144,1.48416887 240.575121,1.48416887 L246.036863,1.48416887 C249.400996,1.48416887 252.072473,2.147091 254.051375,3.47295515 C256.030276,4.79881929 257.019712,7.36145858 257.019712,11.1609499 L257.019712,80.0263852 C257.019712,83.3509401 256.277635,85.8443189 254.793459,87.5065963 C253.309283,89.1688737 251.320516,90 248.8271,90 C246.491996,90 244.57249,89.1688737 243.068525,87.5065963 C241.56456,85.8443189 240.812588,83.3509401 240.812588,80.0263852 L240.812588,19.9472296 L226.861401,75.3957784 C225.951106,78.9973795 225.209029,81.6391736 224.635148,83.3212401 C224.061266,85.0033066 223.00257,86.5369324 221.459026,87.9221636 C219.915483,89.3073948 217.778301,90 215.047417,90 C212.989359,90 211.247952,89.5547538 209.823142,88.664248 C208.398333,87.7737422 207.290165,86.6358908 206.498604,85.2506596 C205.707043,83.8654284 205.083699,82.3318026 204.628551,80.6497361 C204.173404,78.9676697 203.708369,77.2163679 203.233433,75.3957784 Z M295.203051,10.6860158 L295.203051,74.030343 L330.941838,74.030343 C333.791456,74.030343 335.97811,74.7229482 337.501864,76.1081794 C339.025618,77.4934106 339.787484,79.234818 339.787484,81.3324538 C339.787484,83.4696677 339.035513,85.2011807 337.531547,86.5270449 C336.027582,87.852909 333.831034,88.5158311 330.941838,88.5158311 L288.375874,88.5158311 C284.536805,88.5158311 281.776279,87.6649162 280.094212,85.9630607 C278.412146,84.2612052 277.571125,81.5105731 277.571125,77.7110818 L277.571125,10.6860158 C277.571125,7.12399274 278.372568,4.4525155 279.975479,2.67150396 C281.578389,0.890492414 283.685888,0 286.298038,0 C288.949766,0 291.096843,0.880598054 292.739331,2.64182058 C294.381819,4.40304311 295.203051,7.08441471 295.203051,10.6860158 Z" id="HTML"></path>
                </g>
            </g>
        </g>
    </g>
</svg>