<?xml version="1.0" encoding="UTF-8" standalone="no"?>
<svg width="512px" height="513px" viewBox="0 0 512 513" version="1.1" xmlns="http://www.w3.org/2000/svg" xmlns:xlink="http://www.w3.org/1999/xlink">
    <!-- Generator: Sketch 46.2 (44496) - http://www.bohemiancoding.com/sketch -->
    <title>HTML</title>
    <desc>Created with Sketch.</desc>
    <defs></defs>
    <g id="Page-1" stroke="none" stroke-width="1" fill="none" fill-rule="evenodd">
        <g id="HTML">
            <path d="M512,256 C512,275.508 509.816,294.494 505.689,312.738 C499.273,341.086 488.156,367.647 473.193,391.555 C472.556,392.579 471.908,393.603 471.25,394.627 C425.681,465.251 346.3,512 256,512 C165.7,512 86.319,465.251 40.751,394.627 C20.929,363.928 7.502,328.715 2.351,290.858 C1.16,282.123 0.418,273.241 0.136,264.234 C0.042,261.496 0,258.759 0,256 C0,231.1 3.553,207.036 10.177,184.278 C12.831,175.177 15.976,166.285 19.592,157.633 C25.454,143.527 32.559,130.069 40.751,117.373 C86.319,46.749 165.7,0 256,0 C346.3,0 425.681,46.749 471.249,117.373 C481.614,133.433 490.235,150.726 496.839,168.991 C499.963,177.664 502.649,186.556 504.843,195.636 C506.954,204.35 508.615,213.243 509.796,222.281 C510.956,231.027 511.656,239.919 511.907,248.926 C511.969,251.277 512,253.628 512,256 Z" id="Shape" fill="#5C5E70" fill-rule="nonzero"></path>
            <path d="M471.249,127.76 L471.249,394.627 C425.681,465.251 346.3,512 256,512 C165.7,512 86.319,465.251 40.751,394.627 L40.751,22.8 C40.751,10.209 50.96,0 63.551,0 L343.49,0 L471.249,127.76 Z" id="Shape" fill="#EFEFEF" fill-rule="nonzero"></path>
            <path d="M343.489,104.958 L343.489,0 L471.249,127.76 L366.291,127.76 C353.698,127.76 343.489,117.551 343.489,104.958 Z" id="Shape" fill="#DCDCDC" fill-rule="nonzero"></path>
            <g id="Symbol" transform="translate(41.000000, 120.000000)" fill-rule="nonzero">
                <path d="M430.498,211 L430.498,274.666 C384.93,345.29 305.549,392.039 215.249,392.039 C124.949,392.039 45.568,345.29 0,274.666 L0,211 L430.498,211 L430.498,211 Z" id="Shape" fill="#F16529"></path>
                <polygon id="polygon3028" fill="#E44D26" points="311.587502 0 293.951183 162.916177 214.675272 181.039 135.61764 162.941701 118 0"></polygon>
                <polygon id="polygon3030" fill="#F16529" points="215 166.863787 279.058808 152.219334 294.130214 13 215 13"></polygon>
                <polygon id="polygon3032" fill="#EBEBEB" points="180.485966 53.9843503 214.770211 53.9843503 214.770211 34 214.686421 34 154 34 154.580121 39.3614618 160.536635 94.4322951 214.770211 94.4322951 214.770211 74.4483849 182.70078 74.4483849"></polygon>
                <polygon id="polygon3034" fill="#EBEBEB" points="186.328258 104 173.212827 104 162 104 165.395336 135.377952 215.039178 146.742068 215.150719 146.716543 215.150719 125.924651 215.044515 125.947975 188.053678 119.93828"></polygon>
                <polygon id="polygon3044" fill="#FFFFFF" points="215 93.9839102 244.842876 93.9839102 242.029796 119.901823 215 125.917679 215 146.708691 264.683335 135.354257 265.047845 131.977984 270.742851 79.3663026 271.33418 74 264.803415 74 215 74"></polygon>
                <polygon id="polygon3046" fill="#FFFFFF" points="215 53.9355017 215 53.9843503 273.461468 53.9843503 273.461468 53.9843503 273.539387 53.9843503 274.025578 49.4924813 275.129783 39.3614618 275.70937 34 215 34 215 46.4119402"></polygon>
            </g>
            <g id="Letters" transform="translate(93.000000, 351.000000)" fill="#EFEFEF">
                <path d="M0,86.3671875 L0,0 L17.8710938,0 L17.8710938,32.9296875 L51.6210938,32.9296875 L51.6210938,0 L69.5507812,0 L69.5507812,86.3671875 L51.6210938,86.3671875 L51.6210938,47.8125 L17.8710938,47.8125 L17.8710938,86.3671875 L0,86.3671875 Z M151.53125,0 L151.53125,15.2929688 L125.691406,15.2929688 L125.691406,86.3671875 L107.527344,86.3671875 L107.527344,15.2929688 L81.5703125,15.2929688 L81.5703125,0 L151.53125,0 Z M221.324219,0 L247.28125,0 L247.28125,86.3671875 L230.464844,86.3671875 L230.464844,27.9492188 C230.464844,26.2695229 230.484375,23.9160308 230.523438,20.8886719 C230.5625,17.861313 230.582031,15.527352 230.582031,13.8867188 L214.234375,86.3671875 L196.714844,86.3671875 L180.484375,13.8867188 C180.484375,15.527352 180.503906,17.861313 180.542969,20.8886719 C180.582031,23.9160308 180.601562,26.2695229 180.601562,27.9492188 L180.601562,86.3671875 L163.785156,86.3671875 L163.785156,0 L190.035156,0 L205.738281,67.9101562 L221.324219,0 Z M266.039062,0 L284.085938,0 L284.085938,70.8398438 L326.859375,70.8398438 L326.859375,86.3671875 L266.039062,86.3671875 L266.039062,0 Z" id="HTML"></path>
            </g>
        </g>
    </g>
</svg>