<?xml version="1.0" encoding="UTF-8" standalone="no"?>
<svg width="512px" height="513px" viewBox="0 0 512 513" version="1.1" xmlns="http://www.w3.org/2000/svg" xmlns:xlink="http://www.w3.org/1999/xlink">
    <!-- Generator: Sketch 46.2 (44496) - http://www.bohemiancoding.com/sketch -->
    <title>JavaScript</title>
    <desc>Created with Sketch.</desc>
    <defs></defs>
    <g id="Page-1" stroke="none" stroke-width="1" fill="none" fill-rule="evenodd">
        <g id="JavaScript">
            <g id="Page-1">
                <g>
                    <g id="JavaScript">
                        <path d="M512,256 C512,275.508 509.816,294.494 505.689,312.738 C499.273,341.086 488.156,367.647 473.193,391.555 C472.556,392.579 471.908,393.603 471.25,394.627 C425.681,465.251 346.3,512 256,512 C165.7,512 86.319,465.251 40.751,394.627 C20.929,363.928 7.502,328.715 2.351,290.858 C1.16,282.123 0.418,273.241 0.136,264.234 C0.042,261.496 0,258.759 0,256 C0,231.1 3.553,207.036 10.177,184.278 C12.831,175.177 15.976,166.285 19.592,157.633 C25.454,143.527 32.559,130.069 40.751,117.373 C86.319,46.749 165.7,0 256,0 C346.3,0 425.681,46.749 471.249,117.373 C481.614,133.433 490.235,150.726 496.839,168.991 C499.963,177.664 502.649,186.556 504.843,195.636 C506.954,204.35 508.615,213.243 509.796,222.281 C510.956,231.027 511.656,239.919 511.907,248.926 C511.969,251.277 512,253.628 512,256 Z" id="Shape" fill="#5C5E70" fill-rule="nonzero"></path>
                        <path d="M471.249,127.76 L471.249,394.627 C425.681,465.251 346.3,512 256,512 C165.7,512 86.319,465.251 40.751,394.627 L40.751,22.8 C40.751,10.209 50.96,0 63.551,0 L343.49,0 L471.249,127.76 Z" id="Shape" fill="#F9EED7" fill-rule="nonzero"></path>
                        <path d="M343.489,104.958 L343.489,0 L471.249,127.76 L366.291,127.76 C353.698,127.76 343.489,117.551 343.489,104.958 Z" id="Shape" fill="#E8DBC4" fill-rule="nonzero"></path>
                        <g id="Symbol" transform="translate(41.000000, 151.000000)">
                            <path d="M430.498,180 L430.498,243.666 C384.93,314.29 305.549,361.039 215.249,361.039 C124.949,361.039 45.568,314.29 0,243.666 L0,180 L430.498,180 L430.498,180 Z" id="Shape" fill="#F6A623" fill-rule="nonzero"></path>
                            <path d="M151.878709,75.0390422 C155.574719,77.3295273 158.463811,79.8932706 160.54607,82.7303488 C162.628329,85.567427 164.085889,89.1852982 164.918792,93.5840708 C165.751696,97.9828434 166.168142,103.617873 166.168142,110.489328 C166.168142,115.64292 166.285267,119.442986 166.519521,121.889641 C166.753775,124.336295 167.222277,126.197287 167.925039,127.47267 C168.627802,128.748054 169.473707,129.580945 170.46278,129.971369 C171.451853,130.361793 173.143663,130.739197 175.538261,131.103592 C177.516408,131.363874 179.156162,132.326905 180.457574,133.992712 C181.758986,135.65852 182.409682,137.844859 182.409682,140.551796 C182.409682,146.85063 178.583588,150 170.931286,150 C166.194146,150 161.96462,149.010942 158.242582,147.032795 C154.520544,145.054649 151.644466,142.256655 149.614263,138.63873 C147.584061,135.020804 146.542947,130.869362 146.49089,126.184279 C146.334721,118.271694 146.178554,111.920898 146.022384,107.131702 C145.866215,102.342506 145.631964,99.2451918 145.319625,97.8396668 C144.538778,94.3518826 143.380539,91.7230698 141.844872,89.9531494 C140.309206,88.183229 138.305062,86.5304606 135.832379,84.9947944 C133.359696,83.4591282 131.602816,82.0796521 130.561687,80.8563248 C129.520557,79.6329975 129,77.6939227 129,75.0390422 C129,71.1868626 130.509615,68.2977712 133.528891,66.3716814 C137.276958,64.0291398 139.944812,62.0380092 141.532535,60.3982301 C143.120258,58.7584509 144.239455,56.6501951 144.890161,54.0733993 C145.540867,51.4966035 145.918271,48.6855957 146.022384,45.6402915 C146.126497,42.5949874 146.282664,35.2681476 146.49089,23.6595523 C146.64706,16.4757579 148.924496,10.736617 153.323269,6.44195731 C157.722042,2.14729763 163.591322,0 170.931286,0 C178.583588,0 182.409682,3.09731416 182.409682,9.2920354 C182.409682,12.1030854 181.772,14.3154526 180.496616,15.9292035 C179.221233,17.5429545 177.568464,18.4799571 175.538261,18.7402395 C172.518985,19.1566913 170.41073,19.7813597 169.213431,20.6142634 C168.016131,21.4471671 167.235296,23.0608938 166.870901,25.4554919 C166.506505,27.8500901 166.272255,32.4830474 166.168142,39.3545029 C166.064029,46.0697889 165.660597,51.5746792 164.957834,55.8693389 C164.255072,60.1639986 162.875596,63.8209115 160.819365,66.8401874 C158.763134,69.8594633 155.782945,72.5923876 151.878709,75.0390422 Z M213.579162,118.532015 C210.143434,118.532015 207.176259,117.477887 204.677548,115.369599 C202.178837,113.261312 200.9295,110.307151 200.9295,106.507028 C200.9295,103.227469 202.152809,100.468517 204.599464,98.2300885 C207.046118,95.9916598 209.93521,94.8724623 213.266824,94.8724623 C215.765536,94.8724623 218.029959,95.5491864 220.060161,96.9026549 C222.090364,98.2561234 223.678063,100.247254 224.823305,102.876106 C225.968548,105.504958 226.541161,108.745426 226.541161,112.597605 C226.541161,117.751197 225.447991,122.579363 223.261619,127.082249 C221.075247,131.585134 218.407392,135.15095 215.257975,137.779802 C212.108558,140.408654 209.258508,141.723061 206.707741,141.723061 C205.09399,141.723061 203.792597,141.18949 202.803524,140.122332 C201.814451,139.055174 201.319922,137.818851 201.319922,136.413326 C201.319922,134.279011 202.361036,132.561173 204.443295,131.259761 C210.533903,127.928146 213.579162,123.685606 213.579162,118.532015 Z M202.881608,43.3368037 C202.881608,39.6407936 204.039848,36.7777301 206.356361,34.7475273 C208.672875,32.7173246 211.470868,31.7022384 214.750427,31.7022384 C217.925872,31.7022384 220.658796,32.7303385 222.949282,34.7865695 C225.239767,36.8428005 226.384992,39.6928501 226.384992,43.3368037 C226.384992,46.3040232 225.174697,48.9979056 222.754071,51.418532 C220.333444,53.8391584 217.66559,55.0494534 214.750427,55.0494534 C212.564055,55.0494534 210.572924,54.5288964 208.776975,53.4877668 C206.981027,52.4466372 205.549495,51.0541472 204.482337,49.3102551 C203.415179,47.566363 202.881608,45.5752324 202.881608,43.3368037 Z M277.387892,75.0390422 C274.576842,73.2691218 272.286391,71.4211445 270.51647,69.4950547 C268.74655,67.5689649 267.28899,65.2264584 266.143748,62.4674649 C264.998505,59.7084714 264.191642,56.4419762 263.723134,52.6678813 C263.254625,48.8937864 263.020375,44.456038 263.020375,39.3545029 C263.020375,34.4091372 262.916263,30.622085 262.708037,27.9932327 C262.499811,25.3643804 262.083366,23.4513334 261.458688,22.2540344 C260.83401,21.0567353 259.962077,20.236858 258.842863,19.7943779 C257.723649,19.3518978 256.018824,19.0005219 253.728339,18.7402395 C251.802249,18.4799571 250.175509,17.5429545 248.848069,15.9292035 C247.520628,14.3154526 246.856918,12.1030854 246.856918,9.2920354 C246.856918,3.09731416 250.630956,0 258.179146,0 C263.020399,0 267.275952,0.976044378 270.945934,2.92816242 C274.615916,4.88028045 277.505007,7.66526041 279.613295,11.2831858 C281.721582,14.9011113 282.801738,19.0265255 282.853795,23.6595523 C283.166134,40.942304 283.530524,50.4424693 283.946975,52.1603332 C284.779879,55.5960609 286.003188,58.2118598 287.616939,60.0078084 C289.23069,61.803757 291.182779,63.3914559 293.473264,64.7709526 C295.763749,66.1504494 297.468573,67.5169115 298.587787,68.87038 C299.707002,70.2238485 300.266601,72.2800487 300.266601,75.0390422 C300.266601,78.9432782 298.783013,81.8063417 295.815794,83.6283186 C292.17184,85.8667473 289.530013,87.8318499 287.890234,89.5236856 C286.250455,91.2155212 285.10523,93.3237771 284.454524,95.8485164 C283.803817,98.3732557 283.4134,102.160308 283.283259,107.209787 C283.153117,112.259265 283.009964,118.584033 282.853795,126.184279 C282.697625,133.368073 280.394161,139.133242 275.943331,143.479958 C271.492502,147.826675 265.571166,150 258.179146,150 C254.535192,150 251.737199,149.193137 249.785081,147.579386 C247.832962,145.965635 246.856918,143.623128 246.856918,140.551796 C246.856918,138.833932 247.169252,137.259247 247.79393,135.827694 C248.418608,134.396141 249.238485,133.289957 250.253586,132.50911 C251.268688,131.728263 252.426927,131.259761 253.728339,131.103592 C256.070881,130.791253 257.814747,130.400835 258.959989,129.932327 C260.105232,129.463819 260.977165,128.578872 261.575814,127.27746 C262.174464,125.976048 262.564882,124.063001 262.747079,121.538261 C262.929277,119.013522 263.020375,115.330581 263.020375,110.489328 C263.124488,103.305534 263.540933,97.6835185 264.269724,93.623113 C264.998515,89.5627074 266.377991,86.0749755 268.408193,83.1598126 C270.438396,80.2446497 273.431599,77.5377533 277.387892,75.0390422 Z" id="{;}" fill="#F5A623"></path>
                        </g>
                        <g id="Letters" transform="translate(184.000000, 347.000000)" fill="#F9EED7">
                            <path d="M57.0117187,10.546875 L57.0117187,55.546875 C57.0117187,59.4531445 56.8457048,62.7734238 56.5136719,65.5078125 C56.181639,68.2422012 55.4296934,71.0156109 54.2578125,73.828125 C52.3046777,78.5547111 49.0820537,82.2363149 44.5898437,84.8730469 C40.0976338,87.5097788 34.6289385,88.828125 28.1835937,88.828125 C22.3632521,88.828125 17.5097851,87.9101654 13.6230469,86.0742188 C9.73630869,84.2382721 6.60157441,81.2695518 4.21875,77.1679688 C2.96874375,74.9804578 1.95312891,72.4609518 1.171875,69.609375 C0.390621094,66.7577982 0,64.0429816 0,61.4648437 C0,58.7304551 0.761711133,56.6406322 2.28515625,55.1953125 C3.80860137,53.7499928 5.76170684,53.0273437 8.14453125,53.0273437 C10.4492303,53.0273437 12.1874941,53.6913996 13.359375,55.0195312 C14.5312559,56.3476629 15.4296844,58.4179547 16.0546875,61.2304688 C16.7187533,64.2382963 17.3828092,66.640616 18.046875,68.4375 C18.7109408,70.234384 19.8242109,71.7773373 21.3867187,73.0664062 C22.9492266,74.3554752 25.1757668,75 28.0664062,75 C35.7617572,75 39.609375,69.3555252 39.609375,58.0664062 L39.609375,10.546875 C39.609375,7.03123242 40.3808517,4.39454004 41.9238281,2.63671875 C43.4668046,0.878897461 45.566393,0 48.2226562,0 C50.9179822,0 53.0566327,0.878897461 54.6386719,2.63671875 C56.220711,4.39454004 57.0117187,7.03123242 57.0117187,10.546875 Z M143.916629,61.5820312 C143.916629,66.7773697 142.578752,71.4452918 139.902957,75.5859375 C137.227162,79.7265832 133.311186,82.9687383 128.15491,85.3125 C122.998634,87.6562617 116.885414,88.828125 109.815066,88.828125 C101.338461,88.828125 94.3463439,87.2265785 88.8385038,84.0234375 C84.9322343,81.7187385 81.7584379,78.6425974 79.3170195,74.7949219 C76.875601,70.9472464 75.6549101,67.2070494 75.6549101,63.5742188 C75.6549101,61.4648332 76.3873246,59.6582106 77.8521757,58.1542969 C79.3170268,56.6503831 81.1822425,55.8984375 83.4478788,55.8984375 C85.2838255,55.8984375 86.8365444,56.4843691 88.106082,57.65625 C89.3756196,58.8281309 90.4595931,60.5663947 91.3580351,62.8710937 C92.4517906,65.6054824 93.6334194,67.8906158 94.902957,69.7265625 C96.1724946,71.5625092 97.9595861,73.0761659 100.264285,74.2675781 C102.568984,75.4589903 105.596298,76.0546875 109.346316,76.0546875 C114.502592,76.0546875 118.692003,74.8535276 121.914676,72.4511719 C125.137348,70.0488161 126.74866,67.0507992 126.74866,63.4570312 C126.74866,60.6054545 125.879528,58.2910245 124.141238,56.5136719 C122.402948,54.7363192 120.156877,53.3789109 117.402957,52.4414062 C114.649037,51.5039016 110.967433,50.5078178 106.358035,49.453125 C100.186129,48.0078053 95.0201653,46.318369 90.8599882,44.3847656 C86.6998112,42.4511622 83.3990629,39.8144698 80.9576445,36.4746094 C78.516226,33.1347489 77.2955351,28.9843998 77.2955351,24.0234375 C77.2955351,19.2968514 78.5845847,15.0976746 81.1627226,11.4257812 C83.7408605,7.75388789 87.4712919,4.93165049 92.3541288,2.95898438 C97.2369658,0.986318262 102.979096,0 109.580691,0 C114.854155,0 119.414656,0.654290332 123.262332,1.96289062 C127.110007,3.27149092 130.303335,5.00975479 132.84241,7.17773438 C135.381485,9.34571396 137.236935,11.6210818 138.408816,14.0039062 C139.580697,16.3867307 140.166629,18.7109262 140.166629,20.9765625 C140.166629,23.0468854 139.434214,24.9121011 137.969363,26.5722656 C136.504512,28.2324302 134.678359,29.0625 132.490848,29.0625 C130.49865,29.0625 128.984993,28.5644581 127.949832,27.5683594 C126.914671,26.5722606 125.791635,24.9414176 124.580691,22.6757812 C123.018184,19.4335775 121.143202,16.904306 118.955691,15.0878906 C116.76818,13.2714753 113.252591,12.3632812 108.408816,12.3632812 C103.916606,12.3632812 100.293596,13.3495995 97.5396757,15.3222656 C94.7857557,17.2949317 93.4088163,19.6679549 93.4088163,22.4414062 C93.4088163,24.1601648 93.8775617,25.644525 94.8150663,26.8945313 C95.752571,28.1445375 97.0416206,29.2187455 98.6822538,30.1171875 C100.322887,31.0156295 101.983027,31.7187475 103.662723,32.2265625 C105.342418,32.7343775 108.115828,33.4765576 111.983035,34.453125 C116.826809,35.5859432 121.211531,36.8359307 125.137332,38.203125 C129.063133,39.5703193 132.402943,41.230459 135.156863,43.1835938 C137.910783,45.1367285 140.059199,47.6074069 141.602176,50.5957031 C143.145152,53.5839993 143.916629,57.2460721 143.916629,61.5820312 Z" id="JS"></path>
                        </g>
                    </g>
                </g>
            </g>
        </g>
    </g>
</svg>