<?xml version="1.0" encoding="UTF-8" standalone="no"?>
<svg width="512px" height="513px" viewBox="0 0 512 513" version="1.1" xmlns="http://www.w3.org/2000/svg" xmlns:xlink="http://www.w3.org/1999/xlink">
    <!-- Generator: Sketch 46.2 (44496) - http://www.bohemiancoding.com/sketch -->
    <title>JavaScript</title>
    <desc>Created with Sketch.</desc>
    <defs></defs>
    <g id="Page-1" stroke="none" stroke-width="1" fill="none" fill-rule="evenodd">
        <g id="JavaScript">
            <path d="M512,256 C512,275.508 509.816,294.494 505.689,312.738 C499.273,341.086 488.156,367.647 473.193,391.555 C472.556,392.579 471.908,393.603 471.25,394.627 C425.681,465.251 346.3,512 256,512 C165.7,512 86.319,465.251 40.751,394.627 C20.929,363.928 7.502,328.715 2.351,290.858 C1.16,282.123 0.418,273.241 0.136,264.234 C0.042,261.496 0,258.759 0,256 C0,231.1 3.553,207.036 10.177,184.278 C12.831,175.177 15.976,166.285 19.592,157.633 C25.454,143.527 32.559,130.069 40.751,117.373 C86.319,46.749 165.7,0 256,0 C346.3,0 425.681,46.749 471.249,117.373 C481.614,133.433 490.235,150.726 496.839,168.991 C499.963,177.664 502.649,186.556 504.843,195.636 C506.954,204.35 508.615,213.243 509.796,222.281 C510.956,231.027 511.656,239.919 511.907,248.926 C511.969,251.277 512,253.628 512,256 Z" id="Shape" fill="#5C5E70" fill-rule="nonzero"></path>
            <path d="M471.249,127.76 L471.249,394.627 C425.681,465.251 346.3,512 256,512 C165.7,512 86.319,465.251 40.751,394.627 L40.751,22.8 C40.751,10.209 50.96,0 63.551,0 L343.49,0 L471.249,127.76 Z" id="Shape" fill="#EFEFEF" fill-rule="nonzero"></path>
            <path d="M343.489,104.958 L343.489,0 L471.249,127.76 L366.291,127.76 C353.698,127.76 343.489,117.551 343.489,104.958 Z" id="Shape" fill="#DCDCDC" fill-rule="nonzero"></path>
            <g id="Symbol" transform="translate(41.000000, 120.000000)" fill-rule="nonzero">
                <path d="M430.498,211 L430.498,274.666 C384.93,345.29 305.549,392.039 215.249,392.039 C124.949,392.039 45.568,345.29 0,274.666 L0,211 L430.498,211 L430.498,211 Z" id="Shape" fill="#FDD83C"></path>
                <polygon id="path13" fill="#D4B830" points="134.041563 162.94213 116 0 314.236601 0 296.178376 162.915834 214.997006 181.039"></polygon>
                <polygon id="path15" fill="#FDD83C" points="215 166.863374 280.597021 152.218868 296.030085 13 215 13 215 166.863374"></polygon>
                <polygon id="path18" fill="#FFFFFF" points="282.92203 72.4489534 247.947168 72.4489534 247.947168 51.9848558 285.133056 51.9848558 287.334572 32 222 32 222 92.4321983 255.834646 92.4321983 252.846268 118.349882 222.000133 122.871819 222.000133 143.704605 276.043516 133.802605"></polygon>
                <path d="M208.413079,32 L152.996803,32 L155.298067,51.9929057 L183.501713,51.9930882 L183.501713,119.991824 L169.6788,118.363299 L167.911366,102.425431 C167.911366,102.425431 151.303789,102.425431 143,102.425431 L146.476221,133.802605 C208.413079,143.704353 146.711007,133.79536 208.413079,143.704353 L208.413079,32 Z" id="path24" fill="#EBEBEB"></path>
            </g>
            <g id="Letters" transform="translate(185.000000, 351.000000)" fill="#EFEFEF">
                <path d="M17.0507812,56.1328125 L17.0507812,58.125 C17.207032,64.8047209 17.9394466,69.5019396 19.2480469,72.2167969 C20.5566472,74.9316542 23.3593535,76.2890625 27.65625,76.2890625 C31.9140838,76.2890625 34.7265557,74.8047023 36.09375,71.8359375 C36.9140666,70.0781162 37.3242188,67.1093959 37.3242188,62.9296875 L37.3242188,2.51953125 L55.3710938,2.51953125 L55.3710938,62.6367188 C55.3710938,69.9805055 54.1015752,75.8007598 51.5625,80.0976562 C47.2656035,87.3633176 39.5117748,90.9960938 28.3007812,90.9960938 C17.0897877,90.9960938 9.57033164,88.05667 5.7421875,82.1777344 C1.91404336,76.2987987 0,68.2813008 0,58.125 L0,56.1328125 L17.0507812,56.1328125 Z M88.3085938,62.2265625 C88.8554715,66.1718947 89.9296795,69.121084 91.53125,71.0742187 C94.4609521,74.628924 99.4804332,76.40625 106.589844,76.40625 C110.847678,76.40625 114.304674,75.9375047 116.960938,75 C122.000025,73.203116 124.519531,69.8633057 124.519531,64.9804687 C124.519531,62.128892 123.269544,59.9218828 120.769531,58.359375 C118.269519,56.8359299 114.343777,55.4882871 108.992188,54.3164062 L99.8515625,52.265625 C90.8671426,50.2343648 84.6562672,48.0273557 81.21875,45.6445312 C75.3984084,41.6601363 72.4882812,35.4297299 72.4882812,26.953125 C72.4882812,19.2187113 75.3007531,12.7929943 80.9257812,7.67578125 C86.5508094,2.55856816 94.8124455,0 105.710938,0 C114.812546,0 122.57614,2.41208525 129.001953,7.23632812 C135.427767,12.060571 138.796873,19.0624541 139.109375,28.2421875 L121.765625,28.2421875 C121.453123,23.046849 119.187521,19.3554797 114.96875,17.1679688 C112.156236,15.722649 108.660177,15 104.480469,15 C99.832008,15 96.1211076,15.9374906 93.3476562,17.8125 C90.5742049,19.6875094 89.1875,22.3046707 89.1875,25.6640625 C89.1875,28.7500154 90.5546738,31.0546799 93.2890625,32.578125 C95.0468838,33.5937551 98.7968463,34.7851494 104.539062,36.1523437 L119.421875,39.7265625 C125.945345,41.2890703 130.867171,43.3788932 134.1875,45.9960937 C139.343776,50.0586141 141.921875,55.9374615 141.921875,63.6328125 C141.921875,71.523477 138.904327,78.0761458 132.869141,83.2910156 C126.833954,88.5058854 118.308649,91.1132812 107.292969,91.1132812 C96.0429125,91.1132812 87.1953447,88.5449476 80.75,83.4082031 C74.3046553,78.2714587 71.0820312,71.2109824 71.0820312,62.2265625 L88.3085938,62.2265625 Z" id="JS"></path>
            </g>
        </g>
    </g>
</svg>