<?xml version="1.0" encoding="UTF-8" standalone="no"?>
<svg width="512px" height="513px" viewBox="0 0 512 513" version="1.1" xmlns="http://www.w3.org/2000/svg" xmlns:xlink="http://www.w3.org/1999/xlink">
    <!-- Generator: Sketch 46.2 (44496) - http://www.bohemiancoding.com/sketch -->
    <title>JQuery</title>
    <desc>Created with Sketch.</desc>
    <defs></defs>
    <g id="Page-1" stroke="none" stroke-width="1" fill="none" fill-rule="evenodd">
        <g id="JQuery">
            <g id="Page-1">
                <g>
                    <g id="JQuery">
                        <path d="M512,256 C512,275.508 509.816,294.494 505.689,312.738 C499.273,341.086 488.156,367.647 473.193,391.555 C472.556,392.579 471.908,393.603 471.25,394.627 C425.681,465.251 346.3,512 256,512 C165.7,512 86.319,465.251 40.751,394.627 C20.929,363.928 7.502,328.715 2.351,290.858 C1.16,282.123 0.418,273.241 0.136,264.234 C0.042,261.496 0,258.759 0,256 C0,231.1 3.553,207.036 10.177,184.278 C12.831,175.177 15.976,166.285 19.592,157.633 C25.454,143.527 32.559,130.069 40.751,117.373 C86.319,46.749 165.7,0 256,0 C346.3,0 425.681,46.749 471.249,117.373 C481.614,133.433 490.235,150.726 496.839,168.991 C499.963,177.664 502.649,186.556 504.843,195.636 C506.954,204.35 508.615,213.243 509.796,222.281 C510.956,231.027 511.656,239.919 511.907,248.926 C511.969,251.277 512,253.628 512,256 Z" id="Shape" fill="#5C5E70" fill-rule="nonzero"></path>
                        <path d="M471.249,127.76 L471.249,394.627 C425.681,465.251 346.3,512 256,512 C165.7,512 86.319,465.251 40.751,394.627 L40.751,22.8 C40.751,10.209 50.96,0 63.551,0 L343.49,0 L471.249,127.76 Z" id="Shape" fill="#F9EED7" fill-rule="nonzero"></path>
                        <path d="M343.489,104.958 L343.489,0 L471.249,127.76 L366.291,127.76 C353.698,127.76 343.489,117.551 343.489,104.958 Z" id="Shape" fill="#E8DBC4" fill-rule="nonzero"></path>
                        <g id="Group" transform="translate(41.000000, 91.000000)" fill-rule="nonzero" fill="#0769AD">
                            <path d="M430.498,240 L430.498,303.666 C384.93,374.29 305.549,421.039 215.249,421.039 C124.949,421.039 45.568,374.29 0,303.666 L0,240 L430.498,240 L430.498,240 Z" id="Shape"></path>
                            <path d="M164.534001,0 C133.528366,20.2668849 113,55.5779638 113,95.7477886 C113,158.628528 163.302523,209.603439 225.35383,209.603439 C262.967878,209.603439 296.264834,190.872707 316.657257,162.113475 C299.127523,173.571814 278.248772,180.221336 255.837427,180.221336 C193.78612,180.221336 143.483597,129.246425 143.483597,66.3656857 C143.483597,41.6017764 151.285363,18.6844243 164.534001,8.93072874e-12 L164.534001,0 Z" id="Combined-Shape"></path>
                            <path d="M212.959546,8 C193.129305,20.9620698 180,43.5459386 180,69.2373104 C180,109.453878 212.17193,142.055846 251.858018,142.055846 C275.914794,142.055846 297.210493,130.076252 310.252853,111.682741 C299.04138,119.011138 285.687979,123.263966 271.35438,123.263966 C231.668293,123.263966 199.496361,90.661997 199.496361,50.4454302 C199.496361,34.6072035 204.486128,19.9499771 212.959546,8 L212.959546,8 Z" id="Combined-Shape-Copy"></path>
                            <path d="M256.188777,6 C244.643773,13.5464105 237,26.6945533 237,41.6518588 C237,65.0656135 255.730234,84.0462118 278.835147,84.0462118 C292.840805,84.0462118 305.238985,77.0717906 312.83214,66.3632394 C306.304913,70.6297724 298.530673,73.1057336 290.185769,73.1057336 C267.080855,73.1057336 248.350621,54.1251353 248.350621,30.7113806 C248.350621,21.4904951 251.255623,12.9571785 256.188777,6 L256.188777,6 Z" id="Combined-Shape-Copy-2"></path>
                        </g>
                        <g id="Letters" transform="translate(81.000000, 346.000000)" fill="#F9EED7">
                            <path d="M46.0396464,8.51709799 L46.0396464,44.8567161 C46.0396464,48.0112126 45.9055823,50.6924944 45.6374501,52.900642 C45.3693179,55.1087895 44.7620864,57.3484484 43.8157374,59.6196859 C42.2384892,63.4366267 39.6360686,66.4096951 36.0083976,68.5389802 C32.3807266,70.6682654 27.9644978,71.732892 22.7595785,71.732892 C18.0593787,71.732892 14.1399756,70.9915964 11.0012516,69.508983 C7.86252754,68.0263697 5.33108207,65.6289883 3.4068392,62.316767 C2.39740031,60.5502489 1.57724352,58.5156292 0.946344221,56.2128467 C0.315444919,53.9100643 0,51.7177221 0,49.6357544 C0,47.4276068 0.615117593,45.7399765 1.84537123,44.5728128 C3.07562487,43.4056491 4.65284947,42.822076 6.57709234,42.822076 C8.43824528,42.822076 9.84197517,43.3583324 10.7883241,44.4308612 C11.7346731,45.50339 12.4601964,47.1752481 12.9649158,49.4464856 C13.5011802,51.8754479 14.0374366,53.8154341 14.573701,55.2665025 C15.1099654,56.7175709 16.0089834,57.9635783 17.270782,59.0045622 C18.5325806,60.045546 20.3306167,60.5660302 22.6649441,60.5660302 C28.8793022,60.5660302 31.9864347,56.0078511 31.9864347,46.8913562 L31.9864347,8.51709799 C31.9864347,5.67805113 32.6094384,3.54879793 33.8554645,2.1292745 C35.1014906,0.709751068 36.7970071,0 38.9420647,0 C41.1186673,0 42.8457282,0.709751068 44.1232993,2.1292745 C45.4008704,3.54879793 46.0396464,5.67805113 46.0396464,8.51709799 Z M119.29507,61.9382293 C121.345493,63.3262077 123.585152,64.6747348 126.014114,65.9838508 C128.443077,67.2929669 130.051846,68.3339351 130.84047,69.1067868 C131.629094,69.8796384 132.0234,70.9758095 132.0234,72.3953329 C132.0234,73.4047718 131.558119,74.4141955 130.627543,75.4236344 C129.696966,76.4330733 128.56925,76.9377852 127.244362,76.9377852 C126.171833,76.9377852 124.870623,76.5907958 123.340692,75.8968065 C121.810761,75.2028173 120.012725,74.1933936 117.94653,72.868505 C115.880335,71.5436165 113.617017,69.9979364 111.15651,68.2314183 C106.58249,70.5657458 100.967571,71.732892 94.311583,71.732892 C88.917394,71.732892 84.0832006,70.8733046 79.8088579,69.154104 C75.5345151,67.4349034 71.9463291,64.9586608 69.0441923,61.7253018 C66.1420555,58.4919429 63.9575995,54.651401 62.4907586,50.2035609 C61.0239177,45.7557209 60.2905083,40.9136413 60.2905083,35.6771771 C60.2905083,30.346078 61.0554622,25.4566818 62.585393,21.0088417 C64.1153238,16.5610016 66.3313244,12.7756626 69.2334612,9.65271106 C72.135598,6.52975951 75.6685811,4.14026425 79.8325165,2.48415358 C83.9964519,0.828042913 88.7281256,0 94.0276798,0 C101.219932,0 107.394766,1.45893275 112.552368,4.37684202 C117.70997,7.29475129 121.613601,11.442852 124.263378,16.8212685 C126.913155,22.1996851 128.238023,28.5164696 128.238023,35.7718116 C128.238023,46.7810044 125.257069,55.5030564 119.29507,61.9382293 Z M108.27016,54.2728411 C110.225948,52.0331486 111.669109,49.3834112 112.599685,46.3235496 C113.530262,43.263688 113.995543,39.7149327 113.995543,35.6771771 C113.995543,30.5984378 113.175386,26.1979811 111.535048,22.4756753 C109.89471,18.7533694 107.552531,15.9380235 104.508442,14.0295531 C101.464353,12.1210827 97.9708004,11.1668618 94.0276798,11.1668618 C91.2201779,11.1668618 88.6256434,11.695232 86.2439986,12.7519884 C83.8623537,13.8087447 81.8119617,15.3465387 80.0927611,17.3654165 C78.3735605,19.3842942 77.0171474,21.9630564 76.023481,25.1017805 C75.0298146,28.2405045 74.5329888,31.7656015 74.5329888,35.6771771 C74.5329888,43.6580533 76.3941138,49.8013431 80.1164197,54.1072308 C83.8387256,58.4131186 88.5388549,60.5660302 94.2169486,60.5660302 C96.551276,60.5660302 98.9486574,60.0770905 101.409165,59.0991966 C99.9265513,57.9951228 98.0733124,56.8910656 95.8493924,55.7869918 C93.6254724,54.6829181 92.1034506,53.8312168 91.2832815,53.2318624 C90.4631124,52.6325081 90.053034,51.7808068 90.053034,50.676733 C90.053034,49.7303841 90.4473402,48.8944551 91.2359643,48.1689209 C92.0245885,47.4433867 92.892062,47.080625 93.8384109,47.080625 C96.7090028,47.080625 101.519538,49.4780064 108.27016,54.2728411 Z M175.137761,64.4460415 L175.137761,62.7899391 C173.592058,64.7457269 171.967516,66.3860405 170.264088,67.710929 C168.56066,69.0358176 166.699535,70.0215829 164.680657,70.6682547 C162.66178,71.3149265 160.359032,71.6382575 157.772344,71.6382575 C154.649393,71.6382575 151.849819,70.9915955 149.37354,69.6982519 C146.89726,68.4049083 144.980932,66.6226445 143.624498,64.351407 C142.015705,61.6069951 141.211321,57.6639336 141.211321,52.5221043 L141.211321,26.9234931 C141.211321,24.336806 141.794894,22.4047058 142.962057,21.1271347 C144.129221,19.8495637 145.674901,19.2107877 147.599144,19.2107877 C149.554932,19.2107877 151.132157,19.8574498 152.330865,21.1507933 C153.529574,22.4441369 154.128919,24.3683509 154.128919,26.9234931 L154.128919,47.6011143 C154.128919,50.597886 154.381275,53.1135592 154.885995,55.1482095 C155.390714,57.1828597 156.297618,58.7758566 157.606734,59.9272478 C158.91585,61.078639 160.690228,61.654326 162.92992,61.654326 C165.106523,61.654326 167.156915,61.0076639 169.081158,59.7143204 C171.005401,58.4209768 172.409131,56.7333465 173.29239,54.6513788 C174.017924,52.8217708 174.380686,48.8156203 174.380686,42.6328072 L174.380686,26.9234931 C174.380686,24.3683509 174.980031,22.4441369 176.17874,21.1507933 C177.377448,19.8574498 178.938901,19.2107877 180.863143,19.2107877 C182.787386,19.2107877 184.333066,19.8495637 185.50023,21.1271347 C186.667394,22.4047058 187.250967,24.336806 187.250967,26.9234931 L187.250967,64.351407 C187.250967,66.8119143 186.691052,68.6572671 185.571206,69.8875207 C184.45136,71.1177744 183.008199,71.732892 181.241681,71.732892 C179.475163,71.732892 178.01623,71.094116 176.864839,69.8165449 C175.713448,68.5389738 175.137761,66.7488239 175.137761,64.4460415 Z M238.409254,48.642093 L213.141863,48.642093 C213.173408,51.5757747 213.764867,54.1624231 214.916258,56.4021156 C216.067649,58.6418081 217.597557,60.3294384 219.506028,61.4650572 C221.414498,62.6006759 223.520093,63.1684768 225.822875,63.1684768 C227.368579,63.1684768 228.780195,62.9870959 230.057766,62.6243288 C231.335337,62.2615617 232.573458,61.6937609 233.772167,60.9209092 C234.970876,60.1480576 236.074933,59.3200147 237.084372,58.4367557 C238.09381,57.5534966 239.402907,56.3548059 241.0117,54.8406476 C241.674144,54.2728382 242.620479,53.9889378 243.850733,53.9889378 C245.175621,53.9889378 246.248134,54.3516995 247.068303,55.0772337 C247.888472,55.8027679 248.298551,56.8279639 248.298551,58.1528524 C248.298551,59.3200161 247.841155,60.6843154 246.926352,62.2457911 C246.011548,63.8072669 244.631476,65.3056303 242.786096,66.7409262 C240.940715,68.1762221 238.622195,69.3670267 235.830466,70.3133756 C233.038736,71.2597246 229.829084,71.732892 226.201413,71.732892 C217.905087,71.732892 211.454239,69.3670551 206.848674,64.6353103 C202.243109,59.9035655 199.940361,53.4842614 199.940361,45.3772054 C199.940361,41.5602646 200.508162,38.0193954 201.643781,34.7544915 C202.779399,31.4895876 204.435485,28.690014 206.612088,26.3556866 C208.78869,24.0213591 211.469972,22.2312092 214.656014,20.9851831 C217.842055,19.739157 221.375038,19.1161533 225.255069,19.1161533 C230.302263,19.1161533 234.631745,20.1807799 238.243643,22.310065 C241.855542,24.4393502 244.560482,27.1916071 246.358545,30.5669183 C248.156608,33.9422296 249.055626,37.3805792 249.055626,40.8820704 C249.055626,44.1312018 248.125063,46.2367966 246.263911,47.198918 C244.402758,48.1610395 241.784565,48.642093 238.409254,48.642093 Z M213.141863,41.3079253 L236.563882,41.3079253 C236.248433,36.8916301 235.057628,33.5873446 232.991433,31.3949695 C230.925238,29.2025945 228.204525,28.1064234 224.829214,28.1064234 C221.611628,28.1064234 218.969776,29.2183667 216.903581,31.4422867 C214.837386,33.6662068 213.583492,36.9547201 213.141863,41.3079253 Z M274.993839,53.0899108 L274.993839,63.8782349 C274.993839,66.496467 274.378721,68.4601117 273.148468,69.7692277 C271.918214,71.0783438 270.356762,71.732892 268.464064,71.732892 C266.602911,71.732892 265.073003,71.0704576 263.874294,69.7455691 C262.675586,68.4206806 262.07624,66.4649221 262.07624,63.8782349 L262.07624,27.9171545 C262.07624,22.1128809 264.173949,19.2107877 268.36943,19.2107877 C270.514487,19.2107877 272.060167,19.8889943 273.006516,21.2454278 C273.952865,22.6018613 274.473349,24.6049365 274.567984,27.2547136 C276.113687,24.6049365 277.698798,22.6018613 279.323364,21.2454278 C280.94793,19.8889943 283.116613,19.2107877 285.82948,19.2107877 C288.542347,19.2107877 291.176312,19.8889943 293.731455,21.2454278 C296.286597,22.6018613 297.564149,24.3998973 297.564149,26.6395898 C297.564149,28.2168381 297.020006,29.5180484 295.931705,30.5432597 C294.843404,31.5684711 293.668371,32.0810691 292.406573,32.0810691 C291.933398,32.0810691 290.78991,31.7892825 288.976075,31.2057007 C287.162239,30.6221188 285.561356,30.3303323 284.173378,30.3303323 C282.28068,30.3303323 280.735,30.827158 279.536291,31.8208244 C278.337583,32.8144908 277.40702,34.2891958 276.744576,36.2449837 C276.082132,38.2007715 275.624736,40.5271778 275.372377,43.2242723 C275.120017,45.9213668 274.993839,49.2098801 274.993839,53.0899108 Z M318.770641,73.3416771 L319.953571,70.4553273 L304.054988,30.4249667 C303.077094,28.1221843 302.588155,26.4503262 302.588155,25.4093423 C302.588155,24.3052686 302.872055,23.2800726 303.439864,22.3337236 C304.007674,21.3873747 304.7884,20.6303069 305.782066,20.0624975 C306.775733,19.4946881 307.808815,19.2107877 308.881344,19.2107877 C310.742497,19.2107877 312.146226,19.8022469 313.092575,20.9851831 C314.038924,22.1681193 314.874853,23.8636357 315.600388,26.0717833 L326.530663,57.8689491 L336.893133,28.2956922 C337.713302,25.8982749 338.454597,24.0213776 339.117041,22.6649441 C339.779486,21.3085106 340.481351,20.3937203 341.222657,19.9205459 C341.963964,19.4473714 343.012818,19.2107877 344.369252,19.2107877 C345.347146,19.2107877 346.285594,19.4710297 347.184626,19.9915217 C348.083657,20.5120136 348.777636,21.2138785 349.266583,22.0971376 C349.75553,22.9803966 350,23.9109591 350,24.888853 C349.87382,25.4882074 349.668781,26.3399086 349.384876,27.4439824 C349.100972,28.5480562 348.753982,29.6678857 348.343898,30.8035044 L331.49897,74.9031451 C330.047902,78.7831758 328.6284,81.8272193 327.240421,84.0353668 C325.852443,86.2435144 324.014976,87.9390308 321.727966,89.121967 C319.440956,90.3049032 316.357482,90.8963624 312.477452,90.8963624 C308.692056,90.8963624 305.853052,90.4862841 303.960354,89.666115 C302.067656,88.8459459 301.121321,87.3475825 301.121321,85.1709799 C301.121321,83.6883665 301.57083,82.5448787 302.469861,81.7404821 C303.368893,80.9360855 304.701648,80.5338932 306.468166,80.5338932 C307.162155,80.5338932 307.840362,80.6285267 308.502806,80.8177965 C309.322975,81.0070663 310.032726,81.1016998 310.63208,81.1016998 C312.114694,81.1016998 313.28184,80.8808883 314.133554,80.4392588 C314.985268,79.9976293 315.750222,79.2326754 316.428439,78.1443741 C317.106656,77.0560728 317.887382,75.4551898 318.770641,73.3416771 Z" id="JQuery"></path>
                        </g>
                    </g>
                </g>
            </g>
        </g>
    </g>
</svg>