<?xml version="1.0" encoding="UTF-8" standalone="no"?>
<svg width="512px" height="513px" viewBox="0 0 512 513" version="1.1" xmlns="http://www.w3.org/2000/svg" xmlns:xlink="http://www.w3.org/1999/xlink">
    <!-- Generator: Sketch 46.2 (44496) - http://www.bohemiancoding.com/sketch -->
    <title>JQuery</title>
    <desc>Created with Sketch.</desc>
    <defs></defs>
    <g id="Page-1" stroke="none" stroke-width="1" fill="none" fill-rule="evenodd">
        <g id="JQuery">
            <path d="M512,256 C512,275.508 509.816,294.494 505.689,312.738 C499.273,341.086 488.156,367.647 473.193,391.555 C472.556,392.579 471.908,393.603 471.25,394.627 C425.681,465.251 346.3,512 256,512 C165.7,512 86.319,465.251 40.751,394.627 C20.929,363.928 7.502,328.715 2.351,290.858 C1.16,282.123 0.418,273.241 0.136,264.234 C0.042,261.496 0,258.759 0,256 C0,231.1 3.553,207.036 10.177,184.278 C12.831,175.177 15.976,166.285 19.592,157.633 C25.454,143.527 32.559,130.069 40.751,117.373 C86.319,46.749 165.7,0 256,0 C346.3,0 425.681,46.749 471.249,117.373 C481.614,133.433 490.235,150.726 496.839,168.991 C499.963,177.664 502.649,186.556 504.843,195.636 C506.954,204.35 508.615,213.243 509.796,222.281 C510.956,231.027 511.656,239.919 511.907,248.926 C511.969,251.277 512,253.628 512,256 Z" id="Shape" fill="#5C5E70" fill-rule="nonzero"></path>
            <path d="M471.249,127.76 L471.249,394.627 C425.681,465.251 346.3,512 256,512 C165.7,512 86.319,465.251 40.751,394.627 L40.751,22.8 C40.751,10.209 50.96,0 63.551,0 L343.49,0 L471.249,127.76 Z" id="Shape" fill="#EFEFEF" fill-rule="nonzero"></path>
            <path d="M343.489,104.958 L343.489,0 L471.249,127.76 L366.291,127.76 C353.698,127.76 343.489,117.551 343.489,104.958 Z" id="Shape" fill="#DCDCDC" fill-rule="nonzero"></path>
            <g id="Group" transform="translate(41.000000, 91.000000)" fill-rule="nonzero" fill="#0769AD">
                <path d="M430.498,240 L430.498,303.666 C384.93,374.29 305.549,421.039 215.249,421.039 C124.949,421.039 45.568,374.29 0,303.666 L0,240 L430.498,240 L430.498,240 Z" id="Shape"></path>
                <path d="M164.534001,0 C133.528366,20.2668849 113,55.5779638 113,95.7477886 C113,158.628528 163.302523,209.603439 225.35383,209.603439 C262.967878,209.603439 296.264834,190.872707 316.657257,162.113475 C299.127523,173.571814 278.248772,180.221336 255.837427,180.221336 C193.78612,180.221336 143.483597,129.246425 143.483597,66.3656857 C143.483597,41.6017764 151.285363,18.6844243 164.534001,8.93072874e-12 L164.534001,0 Z" id="Combined-Shape"></path>
                <path d="M212.959546,8 C193.129305,20.9620698 180,43.5459386 180,69.2373104 C180,109.453878 212.17193,142.055846 251.858018,142.055846 C275.914794,142.055846 297.210493,130.076252 310.252853,111.682741 C299.04138,119.011138 285.687979,123.263966 271.35438,123.263966 C231.668293,123.263966 199.496361,90.661997 199.496361,50.4454302 C199.496361,34.6072035 204.486128,19.9499771 212.959546,8 L212.959546,8 Z" id="Combined-Shape-Copy"></path>
                <path d="M256.188777,6 C244.643773,13.5464105 237,26.6945533 237,41.6518588 C237,65.0656135 255.730234,84.0462118 278.835147,84.0462118 C292.840805,84.0462118 305.238985,77.0717906 312.83214,66.3632394 C306.304913,70.6297724 298.530673,73.1057336 290.185769,73.1057336 C267.080855,73.1057336 248.350621,54.1251353 248.350621,30.7113806 C248.350621,21.4904951 251.255623,12.9571785 256.188777,6 L256.188777,6 Z" id="Combined-Shape-Copy-2"></path>
            </g>
            <g id="Letters" transform="translate(81.000000, 351.000000)" fill="#EFEFEF">
                <path d="M14.2474121,56.25 L14.2474121,58.2421875 C14.3779732,64.9219084 14.9899694,69.6191271 16.0834188,72.3339844 C17.1768683,75.0488417 19.5187734,76.40625 23.1092045,76.40625 C26.6669953,76.40625 29.0170604,74.9218898 30.1594703,71.953125 C30.8449162,70.1953037 31.1876341,67.2265834 31.1876341,63.046875 L31.1876341,2.63671875 L46.2673692,2.63671875 L46.2673692,62.7539063 C46.2673692,70.097693 45.2065759,75.9179473 43.0849576,80.2148438 C39.4945265,87.4805051 33.0155276,91.1132812 23.6477665,91.1132812 C14.2800054,91.1132812 7.99684524,88.1738575 4.79809755,82.2949219 C1.59934986,76.4159862 0,68.3984883 0,58.2421875 L0,56.25 L14.2474121,56.25 Z M99.6404924,75.3515625 C100.52178,75.0781236 101.647853,74.5898473 103.018745,73.8867188 L95.7236781,65.5664062 L103.508347,55.8398438 L110.803413,64.1601562 C111.945823,61.3476422 112.745498,58.8867293 113.202462,56.7773438 C113.920548,53.6132654 114.279586,49.9218961 114.279586,45.703125 C114.279586,36.0155766 112.623116,28.5254171 109.310128,23.2324219 C105.997139,17.9394267 101.15829,15.2929688 94.7934347,15.2929688 C88.820263,15.2929688 84.0548532,17.8320059 80.4970624,22.9101562 C76.9392716,27.9883066 75.1604029,35.5858869 75.1604029,45.703125 C75.1604029,57.5391217 77.7063067,66.0155994 82.7981908,71.1328125 C86.0948593,74.4531416 90.0442743,76.1132812 94.6465541,76.1132812 C96.3764891,76.1132812 98.0411186,75.8593775 99.6404924,75.3515625 Z M127.009232,63.75 C125.736261,68.7109623 123.859473,72.8320148 121.378812,76.1132812 L129.702042,85.4296875 L121.819454,95.2734375 L113.104542,85.4296875 C110.460679,87.3437596 108.175893,88.6914023 106.250117,89.4726562 C103.018729,90.7617252 99.1509131,91.40625 94.6465541,91.40625 C85.2461528,91.40625 77.477882,88.0469086 71.3415089,81.328125 C63.8995245,73.2421471 60.1785881,61.3672658 60.1785881,45.703125 C60.1785881,29.9217961 63.9974439,17.9883217 71.63527,9.90234375 C77.869564,3.30074824 85.6215148,0 94.891355,0 C104.226476,0 112.060026,3.49605879 118.392241,10.4882812 C125.703664,18.5742592 129.359321,29.8827398 129.359321,44.4140625 C129.359321,52.1094135 128.575966,58.5546615 127.009232,63.75 Z M155.314744,25.1367188 L155.314744,63.6328125 C155.314744,67.2656432 155.673782,69.9999908 156.391868,71.8359375 C157.664839,75.0781412 160.161783,76.6992188 163.882775,76.6992188 C168.648257,76.6992188 171.912236,74.3945543 173.674811,69.7851562 C174.588739,67.2851438 175.045696,63.9843955 175.045696,59.8828125 L175.045696,25.1367188 L189.195188,25.1367188 L189.195188,89.0039062 L175.633218,89.0039062 L175.633218,79.9804688 C175.502657,80.1757822 175.176259,80.7617139 174.654015,81.7382812 C174.13177,82.7148486 173.511614,83.574215 172.793528,84.3164062 C170.606629,86.660168 168.493202,88.2617145 166.453185,89.1210937 C164.413167,89.980473 162.022302,90.4101562 159.280519,90.4101562 C151.38157,90.4101562 146.061284,87.0117527 143.3195,80.2148437 C141.785407,76.464825 141.018372,70.9375365 141.018372,63.6328125 L141.018372,25.1367188 L155.314744,25.1367188 Z M217.867901,40.8398438 C216.089005,43.2617309 214.971092,46.542948 214.514129,50.6835938 L236.203488,50.6835938 C235.975006,46.2695092 234.857093,42.9199333 232.849716,40.6347656 C230.842338,38.3495979 228.353554,37.2070312 225.383288,37.2070312 C222.1519,37.2070312 219.646796,38.4179566 217.867901,40.8398438 Z M237.378532,26.4257812 C240.936323,28.4179787 243.873904,31.5624785 246.191364,35.859375 C248.280342,39.6484564 249.634894,44.0429437 250.255059,49.0429688 C250.614102,51.9726709 250.760981,56.1913787 250.695701,61.6992188 L214.171407,61.6992188 C214.367249,68.1055008 216.048198,72.5976434 219.214306,75.1757812 C221.140082,76.7773518 223.457508,77.578125 226.166651,77.578125 C229.038996,77.578125 231.372741,76.6015723 233.167957,74.6484375 C234.147165,73.5937447 235.01212,72.1289156 235.762846,70.2539062 L250.010258,70.2539062 C249.651215,74.0429877 248.002906,77.8906055 245.06528,81.796875 C240.495641,88.0078436 234.098241,91.1132812 225.87289,91.1132812 C219.083711,91.1132812 213.094309,88.4961199 207.904504,83.2617188 C202.714699,78.0273176 200.119836,69.5117777 200.119836,57.7148437 C200.119836,46.660101 202.461741,38.1836232 207.145622,32.2851562 C211.829502,26.3866893 217.908664,23.4375 225.383288,23.4375 C229.822367,23.4375 233.820741,24.4335838 237.378532,26.4257812 Z M291.412618,23.6425781 C291.592139,23.6621095 291.991977,23.6914061 292.612142,23.7304688 L292.612142,40.8398438 C291.730854,40.7226557 290.947499,40.6445314 290.262054,40.6054688 C289.576608,40.5664061 289.021731,40.546875 288.597407,40.546875 C282.983279,40.546875 279.213383,42.7343531 277.287606,47.109375 C276.210477,49.5703248 275.67192,53.3593494 275.67192,58.4765625 L275.67192,89.0039062 L261.620349,89.0039062 L261.620349,25.1367188 L274.937517,25.1367188 L274.937517,36.2695312 C277.091776,32.0116975 278.968564,29.1015703 280.567938,27.5390625 C283.179161,24.9218619 286.573699,23.6132812 290.751655,23.6132812 C291.012778,23.6132812 291.233096,23.6230468 291.412618,23.6425781 Z M304.613914,101.25 L306.37648,101.367188 C307.747372,101.445313 309.052964,101.38672 310.293295,101.191406 C311.533626,100.996093 312.578099,100.546879 313.426746,99.84375 C314.242753,99.1796842 315.001628,97.7929793 315.703395,95.6835938 C316.405161,93.5742082 316.690759,92.2851586 316.560198,91.8164062 L296.976126,25.1367188 L312.496503,25.1367188 L324.149025,72.2460938 L335.165066,25.1367188 L350,25.1367188 L331.688893,87.9492188 C328.163743,100.058654 325.37304,107.568345 323.316702,110.478516 C321.260365,113.388686 317.147751,114.84375 310.978737,114.84375 C309.738407,114.84375 308.742893,114.833984 307.992166,114.814453 C307.24144,114.794922 306.115367,114.726563 304.613914,114.609375 L304.613914,101.25 Z" id="JQuery"></path>
            </g>
        </g>
    </g>
</svg>