<?xml version="1.0" encoding="UTF-8" standalone="no"?>
<svg width="512px" height="513px" viewBox="0 0 512 513" version="1.1" xmlns="http://www.w3.org/2000/svg" xmlns:xlink="http://www.w3.org/1999/xlink">
    <!-- Generator: Sketch 46.2 (44496) - http://www.bohemiancoding.com/sketch -->
    <title>MongoDb</title>
    <desc>Created with Sketch.</desc>
    <defs></defs>
    <g id="Page-1" stroke="none" stroke-width="1" fill="none" fill-rule="evenodd">
        <g id="MongoDb">
            <g id="mongodb">
                <g id="Page-1">
                    <g id="mongodb">
                        <path d="M512,256 C512,275.508 509.816,294.494 505.689,312.738 C499.273,341.086 488.156,367.647 473.193,391.555 C472.556,392.579 471.908,393.603 471.25,394.627 C425.681,465.251 346.3,512 256,512 C165.7,512 86.319,465.251 40.751,394.627 C20.929,363.928 7.502,328.715 2.351,290.858 C1.16,282.123 0.418,273.241 0.136,264.234 C0.042,261.496 0,258.759 0,256 C0,231.1 3.553,207.036 10.177,184.278 C12.831,175.177 15.976,166.285 19.592,157.633 C25.454,143.527 32.559,130.069 40.751,117.373 C86.319,46.749 165.7,0 256,0 C346.3,0 425.681,46.749 471.249,117.373 C481.614,133.433 490.235,150.726 496.839,168.991 C499.963,177.664 502.649,186.556 504.843,195.636 C506.954,204.35 508.615,213.243 509.796,222.281 C510.956,231.027 511.656,239.919 511.907,248.926 C511.969,251.277 512,253.628 512,256 Z" id="Shape" fill="#5C5E70" fill-rule="nonzero"></path>
                        <path d="M471.498,127.76 L471.498,394.627 C425.93,465.251 346.549,512 256.249,512 C165.949,512 86.568,465.251 41,394.627 L41,22.8 C41,10.209 51.209,0 63.8,0 L343.739,0 L471.498,127.76 Z" id="Shape" fill="#F9EED7" fill-rule="nonzero"></path>
                        <path d="M343.489,104.958 L343.489,0 L471.249,127.76 L366.291,127.76 C353.698,127.76 343.489,117.551 343.489,104.958 Z" id="Shape" fill="#E8DBC4" fill-rule="nonzero"></path>
                        <g id="Symbol" transform="translate(41.000000, 103.000000)" fill-rule="nonzero">
                            <path d="M430.498,228 L430.498,291.666 C384.93,362.29 305.549,409.039 215.249,409.039 C124.949,409.039 45.568,362.29 0,291.666 L0,228 L430.498,228 L430.498,228 Z" id="Shape" fill="#54A847"></path>
                            <circle id="Oval" fill="#55AD45" cx="215" cy="99" r="99"></circle>
                            <path d="M213.144215,130.296463 C212.388036,87.861284 213.312622,43.078318 213.745196,25.8248895 C213.091382,26.888163 212.242744,27.9745512 211.120033,28.9750849 C206.810804,32.8055111 183.362651,56.7456751 182.051721,93.0950992 C181.02477,121.602056 195.530859,139.611663 204.212057,147.979163 C205.658374,146.849848 211.037481,142.174086 213.556977,134.519838 C213.315924,133.222116 213.144215,131.848446 213.144215,130.296463 L213.144215,130.296463 Z M216.568484,141.784439 C214.339572,145.836106 210.968137,147.662162 207.391972,150.888306 C208.313255,151.677506 209.099153,152.321414 209.63079,152.747384 C212.100754,159.764328 212.823912,175.198304 212.823912,175.198304 L219.236574,173.913791 C219.236574,173.913791 221.062631,156.749519 224.368024,153.387989 L227.333303,150.627441 C225.031745,148.557029 219.979545,146.50643 216.568484,141.784439 L216.568484,141.784439 Z M250.444642,92.6691294 C249.22617,67.2925556 238.477862,48.5630921 222.231571,31.1148403 C216.413286,24.8639809 215.818909,20 215.818909,20 C215.818909,20 215.670315,21.6048165 214.82498,23.6719258 C217.169465,38.5808693 223.248615,82.8817299 221.161694,130.289859 C221.135277,144.743114 229.499475,148.256539 229.499475,148.256539 L229.690996,148.322581 C237.873579,140.011216 251.857937,122.156807 250.444642,92.6691294 L250.444642,92.6691294 Z" id="Shape" fill="#FFFFFF"></path>
                        </g>
                        <g id="Letters" transform="translate(99.000000, 357.000000)" fill="#F9EED7">
                            <path d="M8.88434501,49.8878141 L-3.55231065,0.458723028 L-3.55231065,54.0157253 C-3.55231065,56.9793687 -4.21382828,59.2020679 -5.53688337,60.6838896 C-6.85993846,62.1657113 -8.61516521,62.906611 -10.8026163,62.906611 C-12.9195044,62.906611 -14.6482705,62.1745315 -15.9889663,60.7103506 C-17.3296621,59.2461696 -18,57.0146502 -18,54.0157253 L-18,-7.37372394 C-18,-10.760745 -17.1179765,-13.0451858 -15.3539031,-14.227115 C-13.5898296,-15.4090443 -11.2083662,-16 -8.20944129,-16 L-3.3406229,-16 C-0.412260965,-16 1.71341566,-15.735393 3.03647075,-15.2061709 C4.35952584,-14.6769489 5.33857192,-13.7243635 5.97363837,-12.3483862 C6.60870481,-10.9724089 7.33196408,-8.73206923 8.14343786,-5.62729996 L19.4158109,36.8690171 L30.6881839,-5.62729996 C31.4996577,-8.73206923 32.2229169,-10.9724089 32.8579834,-12.3483862 C33.4930498,-13.7243635 34.4720959,-14.6769489 35.795151,-15.2061709 C37.1182061,-15.735393 39.2438827,-16 42.1722446,-16 L47.041063,-16 C50.0399879,-16 52.4214513,-15.4090443 54.1855248,-14.227115 C55.9495982,-13.0451858 56.8316217,-10.760745 56.8316217,-7.37372394 L56.8316217,54.0157253 C56.8316217,56.9793687 56.1701041,59.2020679 54.847049,60.6838896 C53.5239939,62.1657113 51.7511267,62.906611 49.5283942,62.906611 C47.4467875,62.906611 45.7356619,62.1657113 44.3949661,60.6838896 C43.0542703,59.2020679 42.3839324,56.9793687 42.3839324,54.0157253 L42.3839324,0.458723028 L29.9472767,49.8878141 C29.1358029,53.0984277 28.4742853,55.4534305 27.962704,56.9528929 C27.4511227,58.4523553 26.5073576,59.8194918 25.1313803,61.0543432 C23.755403,62.2891946 21.8502322,62.906611 19.4158109,62.906611 C17.5811745,62.906611 16.0288131,62.5097005 14.7586802,61.7158674 C13.4885474,60.9220344 12.500681,59.9077073 11.7950517,58.6728559 C11.0894223,57.4380045 10.5337475,56.0708681 10.1280106,54.5714057 C9.72227368,53.0719432 9.30772264,51.5107616 8.88434501,49.8878141 Z M128.550223,33.5349349 C128.550223,37.8392741 127.879885,41.8083799 126.53919,45.4423712 C125.198494,49.0763625 123.258042,52.1987257 120.717776,54.8095544 C118.177511,57.4203831 115.14335,59.4225764 111.615203,60.8161945 C108.087056,62.2098125 104.11795,62.906611 99.7077665,62.906611 C95.3328643,62.906611 91.3990395,62.2009922 87.9061741,60.7897335 C84.4133087,59.3784747 81.3879681,57.3586409 78.8300616,54.7301715 C76.2721551,52.101702 74.3317034,48.9969793 73.0086483,45.4159102 C71.6855932,41.8348411 71.0240756,37.8745556 71.0240756,33.5349349 C71.0240756,29.1600327 71.6944134,25.1556461 73.0351093,21.5216547 C74.3758051,17.8876634 76.2986163,14.7829407 78.8036006,12.2073935 C81.3085849,9.63184624 84.3427457,7.64729338 87.9061741,6.25367535 C91.4696025,4.86005732 95.4034273,4.16325876 99.7077665,4.16325876 C104.082669,4.16325876 108.051774,4.86887755 111.615203,6.28013632 C115.178631,7.69139508 118.230432,9.70240865 120.770698,12.3132374 C123.310964,14.9240661 125.242595,18.0287888 126.565651,21.6274986 C127.888706,25.2262085 128.550223,29.1953142 128.550223,33.5349349 Z M114.049612,33.5349349 C114.049612,27.6429296 112.753037,23.0564074 110.159849,19.7752308 C107.566661,16.4940541 104.082669,14.8534904 99.7077665,14.8534904 C96.885249,14.8534904 94.3979427,15.5855699 92.2457731,17.0497509 C90.0936035,18.5139319 88.4353993,20.6748894 87.2711108,23.5326884 C86.1068224,26.3904874 85.5246869,29.7245362 85.5246869,33.5349349 C85.5246869,37.3100521 86.0980021,40.60882 87.2446499,43.4313375 C88.3912976,46.253855 90.0318613,48.4148126 92.1663902,49.914275 C94.3009191,51.4137375 96.814686,52.1634574 99.7077665,52.1634574 C104.082669,52.1634574 107.566661,50.5140735 110.159849,47.2152561 C112.753037,43.9164388 114.049612,39.3563773 114.049612,33.5349349 Z M155.549786,12.1544715 L155.549786,13.9008955 C158.090052,10.549156 160.868426,8.08831042 163.884992,6.51828504 C166.901557,4.94825967 170.36791,4.16325876 174.284153,4.16325876 C178.094551,4.16325876 181.499162,4.99236084 184.498087,6.65058989 C187.497012,8.30881894 189.737352,10.6550014 191.219173,13.6892078 C192.171773,15.4532812 192.789189,17.358452 193.071441,19.4047772 C193.353693,21.4511024 193.494817,24.0618919 193.494817,27.2372242 L193.494817,54.1215692 C193.494817,57.0146496 192.833299,59.2020679 191.510244,60.6838896 C190.187189,62.1657113 188.467243,62.906611 186.350355,62.906611 C184.198185,62.906611 182.451779,62.1480708 181.111083,60.6309677 C179.770387,59.1138645 179.100049,56.9440867 179.100049,54.1215692 L179.100049,30.0420869 C179.100049,25.2790886 178.438532,21.6363316 177.115476,19.1137065 C175.792421,16.5910815 173.155171,15.3297879 169.203647,15.3297879 C166.628099,15.3297879 164.281917,16.0971483 162.165029,17.6318922 C160.048141,19.1666361 158.495779,21.2746723 157.507898,23.9560639 C156.802269,26.1082336 156.449459,30.1302607 156.449459,36.022266 L156.449459,54.1215692 C156.449459,57.0499311 155.770301,59.2461696 154.411965,60.7103506 C153.053628,62.1745315 151.298401,62.906611 149.146232,62.906611 C147.064625,62.906611 145.353499,62.1480708 144.012804,60.6309677 C142.672108,59.1138645 142.00177,56.9440867 142.00177,54.1215692 L142.00177,12.3661593 C142.00177,9.61420471 142.601546,7.55908997 143.801116,6.20075341 C145.000686,4.84241685 146.64125,4.16325876 148.722856,4.16325876 C149.992989,4.16325876 151.13962,4.46314675 152.162782,5.06293172 C153.185945,5.66271669 154.006227,6.56238066 154.623652,7.76195061 C155.241078,8.96152056 155.549786,10.4256796 155.549786,12.1544715 Z M263.519916,14.7476466 L263.519916,56.7147442 C263.519916,61.513024 263.008342,65.6408939 261.98518,69.0984779 C260.962017,72.5560619 259.321454,75.413818 257.063439,77.671832 C254.805425,79.929846 251.850647,81.6056907 248.199015,82.6994162 C244.547383,83.7931418 240.004962,84.3399963 234.571615,84.3399963 C229.596928,84.3399963 225.15153,83.6431978 221.235287,82.2495797 C217.319044,80.8559617 214.302523,79.0566338 212.185635,76.851542 C210.068747,74.6464502 209.010319,72.3796498 209.010319,70.0510728 C209.010319,68.2869994 209.610095,66.8493011 210.809665,65.7379348 C212.009235,64.6265685 213.455753,64.0708937 215.149264,64.0708937 C217.266152,64.0708937 219.118401,65.0058386 220.706067,66.8757565 C221.48226,67.8283561 222.284901,68.7897617 223.114016,69.7600021 C223.94313,70.7302425 224.860435,71.5593446 225.865956,72.2473333 C226.871478,72.9353219 228.079851,73.4468956 229.491109,73.7820695 C230.902368,74.1172435 232.525291,74.2848279 234.359928,74.2848279 C238.099763,74.2848279 241.001621,73.7644341 243.065587,72.7236307 C245.129553,71.6828274 246.576071,70.2274886 247.405186,68.3575708 C248.2343,66.4876529 248.719413,64.4854596 248.860539,62.3509307 C249.001665,60.2164018 249.107508,56.7853304 249.178071,52.0576135 C246.955338,55.1623828 244.38865,57.5262058 241.477928,59.1491534 C238.567207,60.772101 235.100855,61.5835626 231.078767,61.5835626 C226.245206,61.5835626 222.020314,60.3487297 218.403963,57.8790268 C214.787612,55.409324 212.009238,51.9517919 210.068758,47.5063268 C208.128277,43.0608617 207.158051,37.9274849 207.158051,32.1060425 C207.158051,27.7664219 207.749007,23.8502375 208.930936,20.3573721 C210.112865,16.8645067 211.79753,13.9185482 213.984981,11.5194083 C216.172432,9.12026838 218.695019,7.31212021 221.552818,6.09490953 C224.410617,4.87769885 227.550621,4.26910264 230.972924,4.26910264 C235.065574,4.26910264 238.611308,5.05410355 241.610233,6.62412892 C244.609158,8.19415429 247.396352,10.6549998 249.9719,14.0067394 L249.9719,12.0486277 C249.9719,9.54364336 250.589316,7.60319167 251.824168,6.22721438 C253.059019,4.85123708 254.646661,4.16325876 256.587142,4.16325876 C259.374378,4.16325876 261.226627,5.07174296 262.143946,6.88873862 C263.061264,8.70573427 263.519916,11.3253441 263.519916,14.7476466 Z M221.658662,33.0586375 C221.658662,38.9153613 222.937596,43.3431193 225.495503,46.3420441 C228.053409,49.340969 231.360998,50.840409 235.418366,50.840409 C237.817506,50.840409 240.084307,50.1965318 242.218836,48.9087582 C244.353364,47.6209846 246.090951,45.6805329 247.431647,43.0873449 C248.772342,40.4941569 249.44268,37.345333 249.44268,33.6407788 C249.44268,27.7487734 248.146106,23.1622513 245.552918,19.8810746 C242.95973,16.599898 239.546299,14.9593343 235.312523,14.9593343 C231.184591,14.9593343 227.877003,16.5293361 225.389659,19.6693869 C222.902315,22.8094376 221.658662,27.2724765 221.658662,33.0586375 Z M332.010279,33.5349349 C332.010279,37.8392741 331.339941,41.8083799 329.999246,45.4423712 C328.65855,49.0763625 326.718098,52.1987257 324.177832,54.8095544 C321.637567,57.4203831 318.603406,59.4225764 315.075259,60.8161945 C311.547112,62.2098125 307.578006,62.906611 303.167823,62.906611 C298.79292,62.906611 294.859096,62.2009922 291.36623,60.7897335 C287.873365,59.3784747 284.848024,57.3586409 282.290118,54.7301715 C279.732211,52.101702 277.791759,48.9969793 276.468704,45.4159102 C275.145649,41.8348411 274.484132,37.8745556 274.484132,33.5349349 C274.484132,29.1600327 275.154469,25.1556461 276.495165,21.5216547 C277.835861,17.8876634 279.758672,14.7829407 282.263657,12.2073935 C284.768641,9.63184624 287.802802,7.64729338 291.36623,6.25367535 C294.929659,4.86005732 298.863483,4.16325876 303.167823,4.16325876 C307.542725,4.16325876 311.51183,4.86887755 315.075259,6.28013632 C318.638687,7.69139508 321.690488,9.70240865 324.230754,12.3132374 C326.77102,14.9240661 328.702651,18.0287888 330.025707,21.6274986 C331.348762,25.2262085 332.010279,29.1953142 332.010279,33.5349349 Z M317.509668,33.5349349 C317.509668,27.6429296 316.213093,23.0564074 313.619905,19.7752308 C311.026718,16.4940541 307.542725,14.8534904 303.167823,14.8534904 C300.345305,14.8534904 297.857999,15.5855699 295.705829,17.0497509 C293.55366,18.5139319 291.895455,20.6748894 290.731167,23.5326884 C289.566878,26.3904874 288.984743,29.7245362 288.984743,33.5349349 C288.984743,37.3100521 289.558058,40.60882 290.704706,43.4313375 C291.851354,46.253855 293.491917,48.4148126 295.626446,49.914275 C297.760975,51.4137375 300.274742,52.1634574 303.167823,52.1634574 C307.542725,52.1634574 311.026718,50.5140735 313.619905,47.2152561 C316.213093,43.9164388 317.509668,39.3563773 317.509668,33.5349349 Z" id="Mongo"></path>
                        </g>
                    </g>
                </g>
            </g>
        </g>
    </g>
</svg>