<?xml version="1.0" encoding="UTF-8" standalone="no"?>
<svg width="512px" height="513px" viewBox="0 0 512 513" version="1.1" xmlns="http://www.w3.org/2000/svg" xmlns:xlink="http://www.w3.org/1999/xlink">
    <!-- Generator: Sketch 46.2 (44496) - http://www.bohemiancoding.com/sketch -->
    <title>MongoDb</title>
    <desc>Created with Sketch.</desc>
    <defs></defs>
    <g id="Page-1" stroke="none" stroke-width="1" fill="none" fill-rule="evenodd">
        <g id="MongoDb">
            <path d="M512,256 C512,275.508 509.816,294.494 505.689,312.738 C499.273,341.086 488.156,367.647 473.193,391.555 C472.556,392.579 471.908,393.603 471.25,394.627 C425.681,465.251 346.3,512 256,512 C165.7,512 86.319,465.251 40.751,394.627 C20.929,363.928 7.502,328.715 2.351,290.858 C1.16,282.123 0.418,273.241 0.136,264.234 C0.042,261.496 0,258.759 0,256 C0,231.1 3.553,207.036 10.177,184.278 C12.831,175.177 15.976,166.285 19.592,157.633 C25.454,143.527 32.559,130.069 40.751,117.373 C86.319,46.749 165.7,0 256,0 C346.3,0 425.681,46.749 471.249,117.373 C481.614,133.433 490.235,150.726 496.839,168.991 C499.963,177.664 502.649,186.556 504.843,195.636 C506.954,204.35 508.615,213.243 509.796,222.281 C510.956,231.027 511.656,239.919 511.907,248.926 C511.969,251.277 512,253.628 512,256 Z" id="Shape" fill="#5C5E70" fill-rule="nonzero"></path>
            <path d="M471.498,127.76 L471.498,394.627 C425.93,465.251 346.549,512 256.249,512 C165.949,512 86.568,465.251 41,394.627 L41,22.8 C41,10.209 51.209,0 63.8,0 L343.739,0 L471.498,127.76 Z" id="Shape" fill="#EFEFEF" fill-rule="nonzero"></path>
            <path d="M343.489,104.958 L343.489,0 L471.249,127.76 L366.291,127.76 C353.698,127.76 343.489,117.551 343.489,104.958 Z" id="Shape" fill="#DCDCDC" fill-rule="nonzero"></path>
            <g id="Symbol" transform="translate(41.000000, 103.000000)" fill-rule="nonzero">
                <path d="M430.498,228 L430.498,291.666 C384.93,362.29 305.549,409.039 215.249,409.039 C124.949,409.039 45.568,362.29 0,291.666 L0,228 L430.498,228 L430.498,228 Z" id="Shape" fill="#54A847"></path>
                <circle id="Oval" fill="#55AD45" cx="215" cy="99" r="99"></circle>
                <path d="M213.144215,130.296463 C212.388036,87.861284 213.312622,43.078318 213.745196,25.8248895 C213.091382,26.888163 212.242744,27.9745512 211.120033,28.9750849 C206.810804,32.8055111 183.362651,56.7456751 182.051721,93.0950992 C181.02477,121.602056 195.530859,139.611663 204.212057,147.979163 C205.658374,146.849848 211.037481,142.174086 213.556977,134.519838 C213.315924,133.222116 213.144215,131.848446 213.144215,130.296463 L213.144215,130.296463 Z M216.568484,141.784439 C214.339572,145.836106 210.968137,147.662162 207.391972,150.888306 C208.313255,151.677506 209.099153,152.321414 209.63079,152.747384 C212.100754,159.764328 212.823912,175.198304 212.823912,175.198304 L219.236574,173.913791 C219.236574,173.913791 221.062631,156.749519 224.368024,153.387989 L227.333303,150.627441 C225.031745,148.557029 219.979545,146.50643 216.568484,141.784439 L216.568484,141.784439 Z M250.444642,92.6691294 C249.22617,67.2925556 238.477862,48.5630921 222.231571,31.1148403 C216.413286,24.8639809 215.818909,20 215.818909,20 C215.818909,20 215.670315,21.6048165 214.82498,23.6719258 C217.169465,38.5808693 223.248615,82.8817299 221.161694,130.289859 C221.135277,144.743114 229.499475,148.256539 229.499475,148.256539 L229.690996,148.322581 C237.873579,140.011216 251.857937,122.156807 250.444642,92.6691294 L250.444642,92.6691294 Z" id="Shape" fill="#FFFFFF"></path>
            </g>
            <g id="Letters" transform="translate(81.000000, 351.000000)" fill="#EFEFEF">
                <path d="M51.8828999,0 L75.2883222,0 L75.2883222,86.3671875 L60.1249899,86.3671875 L60.1249899,27.9492188 C60.1249899,26.2695229 60.1426011,23.9160308 60.1778238,20.8886719 C60.2130466,17.861313 60.2306578,15.527352 60.2306578,13.8867188 L45.4899968,86.3671875 L29.6926576,86.3671875 L15.0576644,13.8867188 C15.0576644,15.527352 15.0752756,17.861313 15.1104983,20.8886719 C15.1457211,23.9160308 15.1633323,26.2695229 15.1633323,27.9492188 L15.1633323,86.3671875 L0,86.3671875 L0,0 L23.6695918,0 L37.8290798,67.9101562 L51.8828999,0 Z M126.966931,69.375 C129.326857,65.8984201 130.506803,60.9570633 130.506803,54.5507812 C130.506803,48.1444992 129.326857,43.2129079 126.966931,39.7558594 C124.607005,36.2988108 121.225668,34.5703125 116.82282,34.5703125 C112.419972,34.5703125 109.02983,36.2988108 106.652292,39.7558594 C104.274755,43.2129079 103.086004,48.1444992 103.086004,54.5507812 C103.086004,60.9570633 104.274755,65.8984201 106.652292,69.375 C109.02983,72.8515799 112.419972,74.5898438 116.82282,74.5898438 C121.225668,74.5898438 124.607005,72.8515799 126.966931,69.375 Z M139.013063,78.6035156 C134.152319,85.2637052 126.773256,88.59375 116.875654,88.59375 C106.978052,88.59375 99.5989898,85.2637052 94.7382457,78.6035156 C89.8775017,71.9433261 87.4471661,63.9258281 87.4471661,54.5507812 C87.4471661,45.3319852 89.8775017,37.3437838 94.7382457,30.5859375 C99.5989898,23.8280912 106.978052,20.4492188 116.875654,20.4492188 C126.773256,20.4492188 134.152319,23.8280912 139.013063,30.5859375 C143.873807,37.3437838 146.304142,45.3319852 146.304142,54.5507812 C146.304142,63.9258281 143.873807,71.9433261 139.013063,78.6035156 Z M205.405915,26.1621094 C209.192365,29.6191579 211.085561,35.3515225 211.085561,43.359375 L211.085561,86.3671875 L195.658059,86.3671875 L195.658059,47.5195312 C195.658059,44.1601395 195.253003,41.5820402 194.442879,39.7851562 C192.963522,36.5038898 190.145742,34.8632812 185.989453,34.8632812 C180.88215,34.8632812 177.377535,37.265601 175.475505,42.0703125 C174.489267,44.6093877 173.996156,47.8515428 173.996156,51.796875 L173.996156,86.3671875 L158.991325,86.3671875 L158.991325,22.6171875 L173.520651,22.6171875 L173.520651,31.9335938 C175.457904,28.6523273 177.289461,26.2890697 179.015377,24.84375 C182.114982,22.2656121 186.042263,20.9765625 190.797339,20.9765625 C196.74999,20.9765625 201.619466,22.7050608 205.405915,26.1621094 Z M260.439477,68.2324219 C262.86985,65.2831884 264.085017,60.5859697 264.085017,54.140625 C264.085017,48.0859072 262.931488,43.4765783 260.624396,40.3125 C258.317304,37.1484217 255.226551,35.5664062 251.352045,35.5664062 C246.068627,35.5664062 242.423124,38.320285 240.415425,43.828125 C239.358742,46.7578271 238.830408,50.3710723 238.830408,54.6679688 C238.830408,58.3789248 239.393964,61.679673 240.521093,64.5703125 C242.564015,69.9609645 246.227129,72.65625 251.510547,72.65625 C255.032825,72.65625 258.009105,71.1816554 260.439477,68.2324219 Z M255.314588,22.4414062 C258.977758,24.1211021 261.936427,27.2070088 264.190685,31.6992188 L264.190685,22.5 L278.825678,22.5 L278.825678,83.0859375 C278.825678,91.3281662 277.575288,97.5390416 275.074471,101.71875 C270.777291,108.906286 262.535284,112.5 250.348201,112.5 C242.986639,112.5 236.981245,110.898454 232.331837,107.695312 C227.68243,104.492171 225.111205,99.7070631 224.618086,93.3398438 L240.996599,93.3398438 C241.419272,95.2929785 242.106106,96.6992145 243.057121,97.5585938 C244.677369,99.0820389 247.407094,99.84375 251.246377,99.84375 C256.670686,99.84375 260.298578,97.8320514 262.130163,93.8085938 C263.327737,91.2304559 263.926516,86.8945617 263.926516,80.8007812 L263.926516,76.6992188 C262.482381,79.4336074 260.932602,81.4843682 259.277131,82.8515625 C256.283195,85.3906377 252.391136,86.6601562 247.600837,86.6601562 C240.204053,86.6601562 234.29552,83.7793257 229.87506,78.0175781 C225.454601,72.2558306 223.244405,64.4531742 223.244405,54.609375 C223.244405,45.11714 225.375351,37.1387042 229.637308,30.6738281 C233.899265,24.2089521 239.939881,20.9765625 247.759339,20.9765625 C250.647607,20.9765625 253.165998,21.4648389 255.314588,22.4414062 Z M330.662789,69.375 C333.022715,65.8984201 334.202661,60.9570633 334.202661,54.5507812 C334.202661,48.1444992 333.022715,43.2129079 330.662789,39.7558594 C328.302862,36.2988108 324.921526,34.5703125 320.518678,34.5703125 C316.11583,34.5703125 312.725688,36.2988108 310.34815,39.7558594 C307.970612,43.2129079 306.781861,48.1444992 306.781861,54.5507812 C306.781861,60.9570633 307.970612,65.8984201 310.34815,69.375 C312.725688,72.8515799 316.11583,74.5898438 320.518678,74.5898438 C324.921526,74.5898438 328.302862,72.8515799 330.662789,69.375 Z M342.70892,78.6035156 C337.848176,85.2637052 330.469114,88.59375 320.571512,88.59375 C310.67391,88.59375 303.294848,85.2637052 298.434104,78.6035156 C293.573359,71.9433261 291.143024,63.9258281 291.143024,54.5507812 C291.143024,45.3319852 293.573359,37.3437838 298.434104,30.5859375 C303.294848,23.8280912 310.67391,20.4492188 320.571512,20.4492188 C330.469114,20.4492188 337.848176,23.8280912 342.70892,30.5859375 C347.569664,37.3437838 350,45.3319852 350,54.5507812 C350,63.9258281 347.569664,71.9433261 342.70892,78.6035156 Z" id="Mongo"></path>
            </g>
        </g>
    </g>
</svg>