<?xml version="1.0" encoding="UTF-8" standalone="no"?>
<svg width="512px" height="513px" viewBox="0 0 512 513" version="1.1" xmlns="http://www.w3.org/2000/svg" xmlns:xlink="http://www.w3.org/1999/xlink">
    <!-- Generator: Sketch 46.2 (44496) - http://www.bohemiancoding.com/sketch -->
    <title>MySql</title>
    <desc>Created with Sketch.</desc>
    <defs></defs>
    <g id="Page-1" stroke="none" stroke-width="1" fill="none" fill-rule="evenodd">
        <g id="MySql">
            <path d="M512,256 C512,275.508 509.816,294.494 505.689,312.738 C499.273,341.086 488.156,367.647 473.193,391.555 C472.556,392.579 471.908,393.603 471.25,394.627 C425.681,465.251 346.3,512 256,512 C165.7,512 86.319,465.251 40.751,394.627 C20.929,363.928 7.502,328.715 2.351,290.858 C1.16,282.123 0.418,273.241 0.136,264.234 C0.042,261.496 0,258.759 0,256 C0,231.1 3.553,207.036 10.177,184.278 C12.831,175.177 15.976,166.285 19.592,157.633 C25.454,143.527 32.559,130.069 40.751,117.373 C86.319,46.749 165.7,0 256,0 C346.3,0 425.681,46.749 471.249,117.373 C481.614,133.433 490.235,150.726 496.839,168.991 C499.963,177.664 502.649,186.556 504.843,195.636 C506.954,204.35 508.615,213.243 509.796,222.281 C510.956,231.027 511.656,239.919 511.907,248.926 C511.969,251.277 512,253.628 512,256 Z" id="Shape" fill="#5C5E70" fill-rule="nonzero"></path>
            <path d="M471.249,127.76 L471.249,394.627 C425.681,465.251 346.3,512 256,512 C165.7,512 86.319,465.251 40.751,394.627 L40.751,22.8 C40.751,10.209 50.96,0 63.551,0 L343.49,0 L471.249,127.76 Z" id="Shape" fill="#F9EED7" fill-rule="nonzero"></path>
            <path d="M343.489,104.958 L343.489,0 L471.249,127.76 L366.291,127.76 C353.698,127.76 343.489,117.551 343.489,104.958 Z" id="Shape" fill="#E8DBC4" fill-rule="nonzero"></path>
            <g id="Symbol" transform="translate(41.000000, 94.000000)" fill-rule="nonzero">
                <path d="M430.498,237 L430.498,300.666 C384.93,371.29 305.549,418.039 215.249,418.039 C124.949,418.039 45.568,371.29 0,300.666 L0,237 L430.498,237 L430.498,237 Z" id="Shape" fill="#0096E6"></path>
                <path d="M296.662488,155.650692 C286.078509,155.346811 277.992613,156.388686 271.081801,159.470899 C269.117848,160.339128 265.987029,160.339128 265.666551,162.943815 C266.751244,164.141971 266.915592,165.92184 267.770199,167.397829 C269.413674,170.219573 272.207581,173.996369 274.689228,175.984614 C277.400962,178.146504 280.203087,180.464675 283.120255,182.340049 C288.297201,185.674049 294.082232,187.549423 299.070179,190.926834 C302.011999,192.897713 304.929167,195.380848 307.797031,197.603514 C309.218636,198.697483 310.163634,200.407894 312.012544,201.07643 L312.012544,200.763868 C311.042893,199.461524 310.796372,197.672973 309.908896,196.309853 L305.997425,192.177083 C302.070279,186.809049 297.402871,182.094148 292.151149,178.189915 C288.042462,175.064291 278.822568,170.85338 277.105136,165.791606 L276.801094,165.470361 C279.859717,164.954262 282.880205,164.211541 285.840206,163.247695 C290.367979,161.971398 294.410927,162.301325 299.078396,161.025029 L305.397557,159.114925 L305.397557,157.847311 C303.030953,155.242624 301.354609,151.899943 298.774353,149.581771 C291.938387,143.347187 284.697605,137.626036 277.105136,132.460296 C272.906058,129.655917 267.712677,127.841318 263.25886,125.462371 C261.763298,124.6636 259.150173,124.246851 258.139436,122.91846 C255.805701,119.766789 254.523791,115.772936 252.724186,112.10901 C248.944194,104.425184 245.238158,96.0294098 241.893686,87.9461983 C239.609256,82.4329445 238.121911,76.9978313 235.270482,72.0489263 C221.613206,48.2941823 206.895888,33.9684046 184.117326,19.8857311 C179.269075,16.8903412 173.434739,15.7095499 167.26349,14.1641023 L157.336902,13.5129306 C155.315428,12.6447017 153.228214,10.0400148 151.321784,8.74635371 C143.778234,3.71062582 124.409882,-7.24642349 118.822067,7.15749474 C115.288596,16.2478518 124.097622,25.1298339 127.244876,29.7314474 C129.45535,32.9612591 132.290344,36.5904561 133.86808,40.2196531 C134.903469,42.6072827 135.084251,45.0035946 135.971728,47.5301408 C138.157549,53.7553423 140.080415,60.553575 142.890757,66.2925683 C144.297512,69.2820836 145.915435,72.1553705 147.730791,74.8880349 C148.840136,76.4855762 150.73835,77.1888416 151.017741,79.6546118 C149.160614,82.3982153 149.053788,86.6699017 148.010182,90.1428175 C143.309843,105.770939 145.084796,125.288725 151.921652,136.888264 C154.0253,140.448003 158.963942,148.079735 165.767928,145.153804 C171.717307,142.592528 170.386093,134.665598 172.087089,127.667673 C172.465088,126.078814 172.235002,124.915387 172.991,123.856148 L172.991,124.177392 L178.414468,135.62065 C182.424546,142.444929 189.532575,149.573089 195.564128,154.383077 C198.694948,156.874894 201.151943,161.189992 205.194891,162.648617 L205.194891,162.327372 L204.899066,162.327372 C204.077328,161.033711 202.885809,160.504091 201.891507,159.470899 C199.391193,156.904009 197.07825,154.140945 194.972477,151.205359 C189.445864,143.139372 184.517213,134.63437 180.230507,125.766251 C178.118642,121.485883 176.286168,116.762717 174.478345,112.41289 C173.80452,110.754573 173.812738,108.193297 172.382915,107.281657 C170.435397,110.476739 167.567533,113.055379 166.063754,116.832175 C163.656063,122.857684 163.343803,130.202901 162.456326,137.817269 C162.22933,137.849101 162.018544,137.958931 161.856458,138.129831 C157.665597,137.06191 156.194687,132.503708 154.633386,128.579313 C150.697263,118.690185 149.957699,102.758184 153.433649,91.3757026 C154.329343,88.4324065 158.364074,79.151039 156.720599,76.4334824 C155.898861,73.7159258 153.351475,72.1444314 151.905217,70.0693643 C150.016255,67.2847248 148.40268,64.3026625 147.089836,61.1700175 C143.868625,53.4601445 142.356628,44.8039019 138.97107,37.0072059 C137.327595,33.2825038 134.599426,29.5057078 132.347866,26.1977556 C129.882653,22.5251471 127.055876,19.8249551 125.124793,15.3883052 C124.442751,13.8081285 123.481318,11.2902645 124.524925,9.6666764 C124.727763,8.71448071 125.431539,7.9708869 126.332747,7.75657271 C128.074831,6.33267724 132.906647,8.23409863 134.755556,9.02418698 C139.291537,10.9129779 143.63809,13.2746523 147.730791,16.074206 C149.694743,17.4460078 151.675131,20.1114706 154.049952,20.8407829 L156.769903,20.8407829 C161.001851,21.8739754 165.751493,21.1620277 169.712268,22.4296419 C176.408885,24.6986564 182.78546,27.9110872 188.669751,31.9801603 C206.158092,43.7503448 220.382864,60.2058795 229.896319,79.6719764 C231.457621,82.8323298 232.131445,85.8537665 233.503747,89.2224948 C236.273002,95.9946806 239.773604,102.949194 242.542859,109.573781 C245.312114,116.198368 247.982761,122.84032 251.869579,128.336209 C253.915705,131.227411 261.82082,132.772859 265.411812,134.413812 C267.926329,135.542509 272.051451,136.705936 274.450924,138.225337 C279.00335,141.133904 283.41608,144.589455 287.689115,147.775855 C289.776328,149.295256 296.333793,152.776854 296.662488,155.650692 Z" id="Shape" fill="#0096E6"></path>
                <path d="M161.395006,36.0033235 C159.578598,35.9697346 157.765694,36.1908599 156,36.6613685 L156,36.9948982 L156.29472,36.9948982 C157.342612,39.365663 159.192796,40.8980966 160.494474,42.9353318 L163.49079,49.86734 L163.78551,49.5428247 C165.643881,48.1005343 166.495293,45.7928696 166.487106,42.2772868 C165.74212,41.3758553 165.66844,40.3301947 164.988948,39.3025628 C164.129349,37.9323869 162.475645,37.1481415 161.395006,36.0033235 Z" id="Shape" fill="#0096E6"></path>
                <path d="M168.232764,201.441818 C156.025049,201.441818 144.530133,200.480891 135.861836,198.730632 C124.940438,196.525649 120.065545,193.505594 120.057352,188.949772 L120,164.068638 L124.743803,166.488113 C128.43889,168.392807 132.936901,169.310835 135.681588,169.851357 C144.399044,171.610195 155.959504,172.579702 168.232764,172.579702 L168.552295,172.579702 C180.84194,172.579702 192.517104,171.575877 201.324684,169.782719 C204.036599,169.233618 208.559189,168.30701 212.262469,166.410896 L216.965306,164 L217.006272,188.795338 C217.006272,193.376898 212.090413,196.414113 201.128049,198.644835 C192.402401,200.437993 180.84194,201.424659 168.552295,201.441818 L168.232764,201.441818 Z" id="Shape" fill="#0096E6"></path>
                <path d="M214.95972,171.180639 L215.000669,190.818764 C215.000669,195.950861 194.796291,200.140327 169.841796,200.166512 L169.522392,200.166512 C144.715314,200.166512 124.650164,196.046869 124.650164,190.940957 L124.609215,171.250464 C128.704143,173.388837 133.49521,174.375107 136.36985,174.968615 C145.288604,176.801507 157.065619,177.813961 169.530582,177.813961 L169.841796,177.813961 C182.380468,177.813961 194.231191,176.766595 203.215464,174.907519 C206.090104,174.314011 210.872981,173.319013 214.95972,171.189367 L214.95972,171.180639 Z M221.511605,160.017456 L212.109649,164.922623 C208.833706,166.668234 204.542221,167.54104 201.995176,168.055995 C193.395826,169.801606 181.987354,170.822789 169.858176,170.840245 L169.522392,170.840245 C157.450542,170.840245 146.11578,169.880159 137.581949,168.12582 C135.034903,167.602136 130.767987,166.729331 127.467475,165.001176 L118,160.034912 L118,171.276648 L118.040949,190.967141 C118.040949,199.459539 127.868778,202.566727 136.492698,204.329794 C145.354123,206.153958 157.065619,207.148956 169.473253,207.148956 L169.841796,207.148956 C182.323139,207.148956 194.108343,206.101589 203.035288,204.25997 C211.667397,202.514359 221.568934,199.328618 221.560745,190.810036 L221.519795,171.163183 L221.519795,160 L221.519795,160 L221.511605,160.017456 Z" id="Shape" fill="#FFFFFF"></path>
                <path d="M168.216378,173.828552 C156.008663,173.828552 144.513747,172.844438 135.84545,171.051946 C124.924051,168.793757 120.049159,165.700828 120.040965,161.035076 L120,140.438985 L120,135.05272 L124.719224,137.539364 C128.406118,139.481231 132.912321,140.421411 135.648816,140.983762 C144.382658,142.785041 155.943118,143.777941 168.208184,143.777941 L168.535908,143.777941 C180.825554,143.777941 192.500718,142.741108 201.308297,140.913468 C204.01202,140.351117 208.534609,139.410938 212.237889,137.469071 L216.957113,135 L216.957113,140.649866 L217.006272,160.859341 C217.006272,165.551454 212.090413,168.661956 201.128049,170.946505 C192.377821,172.774145 180.825554,173.784618 168.535908,173.828552 L168.216378,173.828552 Z" id="Shape" fill="#0096E6"></path>
                <path d="M214.948915,140.085746 L214.948915,140.085746 L214.998074,159.943391 C214.998074,165.020041 194.777511,169.164245 169.821338,169.19878 L169.501807,169.19878 C144.684917,169.19878 124.611829,165.123646 124.603636,160.072897 L124.554478,140.215252 C124.554478,140.215252 124.554478,140.154816 124.554478,140.128915 C128.651026,142.244186 133.443988,143.219801 136.311572,143.806896 C145.233854,145.619985 157.015527,146.621501 169.485421,146.621501 L169.821338,146.621501 C182.364969,146.621501 194.22038,145.576817 203.208208,143.737826 C206.083985,143.15073 210.868753,142.166482 214.957109,140.059845 L214.948915,140.085746 Z M221.511586,129 L212.073138,133.843539 C208.7959,135.57029 204.502717,136.433666 201.954664,136.943058 C193.351912,138.66981 181.938928,139.679959 169.813145,139.697227 L169.51,139.697227 C157.449761,139.697227 146.110515,138.747514 137.556922,137.012128 C135.008869,136.494103 130.740266,135.630727 127.446641,133.921242 L118,129.034535 L118,139.88717 C118,140.019554 118,140.151938 118,140.284323 L118.049159,160.141967 C118.049159,168.542615 127.880875,171.624866 136.508206,173.368886 C145.373137,175.130173 157.097458,176.148956 169.501807,176.148956 L169.821338,176.148956 C182.307617,176.148956 194.097484,175.112905 203.027959,173.282548 C211.663484,171.555796 221.568938,168.404475 221.560745,159.977926 L221.511586,140.120281 L221.511586,139.705861 L221.511586,139.705861 L221.511586,129.025901 L221.511586,129.025901 L221.511586,129 Z" id="Shape" fill="#FFFFFF"></path>
                <path d="M168.228644,140.762222 C156.019898,140.762222 144.524011,139.781853 135.854982,137.996181 C124.932661,135.746584 120.057357,132.665425 120.049163,128.017426 L120,107.884849 C120,103.21059 124.916274,100.111924 135.887758,97.8360673 C144.622337,96.0241354 156.191967,95.0175066 168.474458,95 L168.802209,95 C181.010955,95 192.506842,95.9803689 201.167677,97.766041 C212.081804,100.015638 216.957109,103.096797 216.957109,107.744796 L217.006272,127.877373 C217.006272,132.551632 212.089998,135.650298 201.126708,137.926155 C192.383935,139.738087 180.830692,140.744715 168.540008,140.762222 L168.228644,140.762222 Z" id="Shape" fill="#0096E6"></path>
                <path d="M170.067179,99.9934827 C194.887995,99.9934827 214.947869,104.119637 214.947869,109.233622 L214.997036,129.339884 C214.997036,134.471352 194.781468,138.667442 169.813152,138.702409 L169.501765,138.702409 C144.680949,138.702409 124.604686,134.576255 124.596491,129.46227 L124.547325,109.356008 C124.547325,104.215798 144.779282,100.019708 169.747597,99.9934827 L170.075373,99.9934827 L170.067179,99.9934827 Z M170.075373,93 L169.747597,93 C157.259342,93 145.467611,94.0490224 136.535722,95.8935535 C127.898832,97.6419241 117.991811,100.832701 118.000005,109.364749 L118.049171,129.471012 C118.049171,137.976836 127.882443,141.097677 136.511139,142.863532 C145.377472,144.690579 157.095454,145.695892 169.50996,145.695892 L169.813152,145.695892 C182.301407,145.695892 194.093139,144.64687 203.025027,142.802339 C211.661918,141.053968 221.568939,137.863191 221.560745,129.331143 L221.511578,109.22488 C221.511578,100.719057 211.678307,97.6069567 203.057805,95.8323605 C194.199666,94.0053131 182.481684,93.0087419 170.067179,93.0087419 L170.067179,93.0087419 L170.075373,93 Z" id="Shape" fill="#FFFFFF"></path>
            </g>
            <g id="Letters" transform="translate(91.000000, 357.000000)" fill="#F9EED7">
                <path d="M23.8001041,59.5002603 L12.7902134,15.7418011 L12.7902134,63.154607 C12.7902134,65.7782536 12.2045868,67.7459591 11.033316,69.0577824 C9.86204516,70.3696057 8.30818251,71.0255075 6.37168142,71.0255075 C4.4976481,71.0255075 2.96721052,70.3774141 1.78032275,69.0812077 C0.593434982,67.7850013 0,65.8094875 0,63.154607 L0,8.80791255 C0,5.80945924 0.780835502,3.78709529 2.34252993,2.74076002 C3.90422436,1.69442475 6.01248022,1.17126497 8.66736075,1.17126497 L12.9776158,1.17126497 C15.5700286,1.17126497 17.4518421,1.40551562 18.623113,1.87402395 C19.7943838,2.34253227 20.6611112,3.18583462 21.2233212,4.40395627 C21.7855312,5.62207793 22.4258163,7.6054001 23.1441957,10.3539823 L33.1233732,47.975013 L43.1025508,10.3539823 C43.8209302,7.6054001 44.4612153,5.62207793 45.0234253,4.40395627 C45.5856353,3.18583462 46.4523627,2.34253227 47.6236335,1.87402395 C48.7949043,1.40551562 50.6767179,1.17126497 53.2691307,1.17126497 L57.5793857,1.17126497 C60.2342663,1.17126497 62.3425221,1.69442475 63.9042166,2.74076002 C65.465911,3.78709529 66.2467465,5.80945924 66.2467465,8.80791255 L66.2467465,63.154607 C66.2467465,65.7782536 65.6611199,67.7459591 64.489849,69.0577824 C63.3185782,70.3696057 61.7490989,71.0255075 59.7813639,71.0255075 C57.9385644,71.0255075 56.4237436,70.3696057 55.2368558,69.0577824 C54.049968,67.7459591 53.4565331,65.7782536 53.4565331,63.154607 L53.4565331,15.7418011 L42.4466424,59.5002603 C41.7282629,62.3425441 41.1426363,64.4273749 40.6897449,65.7548152 C40.2368535,67.0822555 39.4013596,68.2925505 38.1832379,69.3857366 C36.9651162,70.4789227 35.2785116,71.0255075 33.1233732,71.0255075 C31.499211,71.0255075 30.1249406,70.6741316 29.0005206,69.9713691 C27.8761006,69.2686066 27.0015648,68.3706458 26.376887,67.2774597 C25.7522093,66.1842736 25.2602829,64.9739785 24.9010932,63.6465383 C24.5419035,62.319098 24.1749108,60.9370192 23.8001041,59.5002603 Z M93.6626454,72.6184279 L94.8339103,69.7605414 L79.0921092,30.1249349 C78.1238586,27.8448611 77.6397406,26.1894898 77.6397406,25.1587715 C77.6397406,24.0655854 77.9208414,23.0504992 78.4830514,22.1134826 C79.0452614,21.1764659 79.8182886,20.4268638 80.802156,19.8646538 C81.7860235,19.3024438 82.808918,19.0213431 83.8708703,19.0213431 C85.7136697,19.0213431 87.1035569,19.6069697 88.0405735,20.7782405 C88.9775902,21.9495113 89.8052758,23.6283077 90.5236553,25.8146799 L101.346144,57.2982821 L111.606425,28.016658 C112.418506,25.6428825 113.152491,23.784494 113.808403,22.4414368 C114.464314,21.0983795 115.159258,20.1926104 115.893254,19.724102 C116.627251,19.2555937 117.665762,19.0213431 119.008819,19.0213431 C119.97707,19.0213431 120.906264,19.2790188 121.79643,19.7943779 C122.686596,20.3097371 123.373731,21.0046807 123.857856,21.8792296 C124.341981,22.7537784 124.58404,23.6751643 124.58404,24.6434149 C124.459105,25.2368588 124.256088,26.0801611 123.974983,27.1733472 C123.693878,28.2665333 123.35031,29.3753197 122.94427,30.4997397 L106.265456,74.1644977 C104.828698,78.006266 103.423194,81.020291 102.048903,83.2066632 C100.674611,85.3930354 98.8552647,87.0718317 96.5908078,88.2431026 C94.3263509,89.4143734 91.273284,90 87.4315158,90 C83.6834491,90 80.8724413,89.5939655 78.998408,88.7818844 C77.1243747,87.9698033 76.1873721,86.4862159 76.1873721,84.3310776 C76.1873721,82.8630848 76.6324483,81.7308733 77.5226141,80.9344092 C78.41278,80.137945 79.732392,79.7397189 81.4814897,79.7397189 C82.1686353,79.7397189 82.8401538,79.8334192 83.4960655,80.0208225 C84.3081466,80.2082258 85.0108985,80.3019261 85.6043424,80.3019261 C87.0723352,80.3019261 88.2279717,80.0832921 89.0712867,79.6460177 C89.9146017,79.2087433 90.6720121,78.4513328 91.3435407,77.3737637 C92.0150693,76.2961945 92.7880965,74.7110984 93.6626454,72.6184279 Z M189.152464,49.2399792 C189.152464,53.3940864 188.082719,57.1264801 185.943198,60.4372723 C183.803677,63.7480644 180.672526,66.3404383 176.549653,68.2144716 C172.42678,70.0885049 167.53875,71.0255075 161.885416,71.0255075 C155.107662,71.0255075 149.51688,69.7449373 145.112901,67.1837585 C141.989513,65.340959 139.451797,62.8813272 137.499679,59.8047892 C135.547561,56.7282511 134.571517,53.7376512 134.571517,50.8328995 C134.571517,49.1462695 135.157143,47.7017239 136.328414,46.4992192 C137.499685,45.2967144 138.991081,44.6954711 140.802646,44.6954711 C142.270639,44.6954711 143.512168,45.1639724 144.527269,46.1009891 C145.54237,47.0380057 146.409098,48.4278929 147.127477,50.2706923 C148.002026,52.4570645 148.946837,54.2842196 149.961938,55.7522124 C150.97704,57.2202052 152.405969,58.4305002 154.248768,59.3831338 C156.091568,60.3357674 158.512158,60.812077 161.510611,60.812077 C165.633484,60.812077 168.983268,59.8516494 171.560064,57.9307652 C174.13686,56.0098811 175.425239,53.6127161 175.425239,50.7391983 C175.425239,48.4591245 174.730295,46.6085443 173.340387,45.1874024 C171.950479,43.7662605 170.154557,42.6808991 167.952568,41.9312858 C165.750579,41.1816725 162.806829,40.3852202 159.12123,39.5419053 C154.186276,38.3862514 150.055656,37.035406 146.729247,35.4893285 C143.402838,33.943251 140.763614,31.8349951 138.811496,29.1644977 C136.859378,26.4940002 135.883333,23.1754493 135.883333,19.2087454 C135.883333,15.4294449 136.914036,12.0718523 138.975473,9.13586674 C141.03691,6.19988121 144.019701,3.94326661 147.923937,2.36595523 C151.828173,0.788643857 156.419486,0 161.698013,0 C165.914588,0 169.56109,0.523159787 172.637628,1.56949505 C175.714166,2.61583032 178.267498,4.00571752 180.297701,5.73919833 C182.327904,7.47267915 183.811491,9.29202587 184.748508,11.1972931 C185.685524,13.1025603 186.154026,14.9609488 186.154026,16.7725143 C186.154026,18.4279104 185.568399,19.9193062 184.397128,21.2467465 C183.225858,22.5741868 181.765695,23.2378969 180.016597,23.2378969 C178.423669,23.2378969 177.213374,22.8396708 176.385676,22.0432067 C175.557978,21.2467425 174.660017,19.9427472 173.691767,18.1311817 C172.442411,15.5387689 170.943207,13.516405 169.194109,12.0640292 C167.445011,10.6116533 164.634003,9.88547631 160.761001,9.88547631 C157.169104,9.88547631 154.272204,10.6741202 152.070215,12.2514315 C149.868226,13.8287429 148.767248,15.7261732 148.767248,17.9437793 C148.767248,19.3180704 149.142049,20.5049403 149.891662,21.5044248 C150.641276,22.5039092 151.671979,23.3628283 152.983802,24.0812077 C154.295625,24.7995871 155.623046,25.3617887 156.966103,25.7678293 C158.30916,26.1738698 160.526733,26.7673048 163.618888,27.548152 C167.49189,28.4539348 170.997841,29.4534042 174.136847,30.5465903 C177.275853,31.6397764 179.94631,32.9671968 182.1483,34.5288912 C184.350289,36.0905856 186.068127,38.0660995 187.301865,40.4554919 C188.535604,42.8448844 189.152464,45.7730175 189.152464,49.2399792 Z M258.405948,61.3274336 C260.43615,62.7017247 262.653723,64.0369534 265.058733,65.3331598 C267.463742,66.6293662 269.056646,67.6600691 269.837494,68.4252993 C270.618341,69.1905296 271.008759,70.2758909 271.008759,71.6814159 C271.008759,72.6809004 270.548066,73.6803698 269.626666,74.6798542 C268.705266,75.6793387 267.588671,76.1790734 266.276848,76.1790734 C265.214896,76.1790734 263.926517,75.8355058 262.411674,75.1483602 C260.89683,74.4612147 259.116525,73.4617452 257.070706,72.1499219 C255.024886,70.8380986 252.783888,69.307661 250.347645,67.5585632 C245.818731,69.869871 240.259182,71.0255075 233.668831,71.0255075 C228.327837,71.0255075 223.541315,70.1743969 219.309123,68.4721499 C215.076931,66.769903 211.52413,64.3180795 208.650612,61.1166059 C205.777094,57.9151324 203.61418,54.1124635 202.161804,49.7084852 C200.709428,45.3045069 199.983251,40.5101769 199.983251,35.3253514 C199.983251,30.0468242 200.740661,25.2056441 202.255505,20.8016658 C203.770349,16.3976875 205.964496,12.6496771 208.838014,9.55752212 C211.711532,6.46536715 215.209675,4.09943558 219.332548,2.45965643 C223.455422,0.819877277 228.140435,0 233.387728,0 C240.509054,0 246.622996,1.44454568 251.729737,4.33368037 C256.836478,7.22281507 260.701614,11.3300098 263.32526,16.6553878 C265.948907,21.9807658 267.260711,28.2352582 267.260711,35.4190526 C267.260711,46.3196797 264.309153,54.9557204 258.405948,61.3274336 Z M247.489758,53.7376366 C249.426259,51.5200306 250.855188,48.8964233 251.776588,45.8667361 C252.697988,42.8370489 253.158681,39.3232891 253.158681,35.3253514 C253.158681,30.2966953 252.346612,25.9396332 250.722449,22.2540344 C249.098287,18.5684355 246.779206,15.7808528 243.765135,13.8912025 C240.751065,12.0015522 237.291964,11.0567413 233.387728,11.0567413 C230.607912,11.0567413 228.038963,11.5799011 225.680804,12.6262363 C223.322646,13.6725716 221.292474,15.1952008 219.590227,17.1941697 C217.88798,19.1931386 216.544943,21.7464707 215.561075,24.8542426 C214.577208,27.9620145 214.085281,31.4523492 214.085281,35.3253514 C214.085281,43.2275252 215.928053,49.3102338 219.613652,53.5736596 C223.299251,57.8370853 227.95303,59.9687663 233.57513,59.9687663 C235.886438,59.9687663 238.260178,59.4846483 240.696421,58.5163977 C239.228429,57.4232116 237.393465,56.3300419 235.191476,55.2368558 C232.989487,54.1436697 231.482474,53.3003674 230.670393,52.7069235 C229.858312,52.1134796 229.452278,51.2701773 229.452278,50.1769912 C229.452278,49.2399745 229.842695,48.4122889 230.623543,47.6939094 C231.40439,46.97553 232.263309,46.6163457 233.200325,46.6163457 C236.042609,46.6163457 240.805706,48.9900856 247.489758,53.7376366 Z M295.004564,8.43310776 L295.004564,58.4226965 L323.208624,58.4226965 C325.457464,58.4226965 327.183111,58.9692814 328.385615,60.0624675 C329.58812,61.1556536 330.189363,62.529924 330.189363,64.1853201 C330.189363,65.8719501 329.595928,67.2384123 328.409041,68.2847475 C327.222153,69.3310828 325.488698,69.8542426 323.208624,69.8542426 L289.616745,69.8542426 C286.587058,69.8542426 284.408527,69.182724 283.081086,67.8396668 C281.753646,66.4966096 281.089936,64.3258869 281.089936,61.3274336 L281.089936,8.43310776 C281.089936,5.62205778 281.722413,3.51380193 282.987385,2.10827694 C284.252358,0.702751952 285.915537,0 287.976974,0 C290.069645,0 291.764058,0.694943597 293.060264,2.08485164 C294.35647,3.47475968 295.004564,5.59082389 295.004564,8.43310776 Z" id="MySQL"></path>
            </g>
        </g>
    </g>
</svg>