<?xml version="1.0" encoding="UTF-8" standalone="no"?>
<svg width="512px" height="513px" viewBox="0 0 512 513" version="1.1" xmlns="http://www.w3.org/2000/svg" xmlns:xlink="http://www.w3.org/1999/xlink">
    <!-- Generator: Sketch 46.2 (44496) - http://www.bohemiancoding.com/sketch -->
    <title>MySql</title>
    <desc>Created with Sketch.</desc>
    <defs></defs>
    <g id="Page-1" stroke="none" stroke-width="1" fill="none" fill-rule="evenodd">
        <g id="MySql">
            <path d="M512,256 C512,275.508 509.816,294.494 505.689,312.738 C499.273,341.086 488.156,367.647 473.193,391.555 C472.556,392.579 471.908,393.603 471.25,394.627 C425.681,465.251 346.3,512 256,512 C165.7,512 86.319,465.251 40.751,394.627 C20.929,363.928 7.502,328.715 2.351,290.858 C1.16,282.123 0.418,273.241 0.136,264.234 C0.042,261.496 0,258.759 0,256 C0,231.1 3.553,207.036 10.177,184.278 C12.831,175.177 15.976,166.285 19.592,157.633 C25.454,143.527 32.559,130.069 40.751,117.373 C86.319,46.749 165.7,0 256,0 C346.3,0 425.681,46.749 471.249,117.373 C481.614,133.433 490.235,150.726 496.839,168.991 C499.963,177.664 502.649,186.556 504.843,195.636 C506.954,204.35 508.615,213.243 509.796,222.281 C510.956,231.027 511.656,239.919 511.907,248.926 C511.969,251.277 512,253.628 512,256 Z" id="Shape" fill="#5C5E70" fill-rule="nonzero"></path>
            <path d="M471.249,127.76 L471.249,394.627 C425.681,465.251 346.3,512 256,512 C165.7,512 86.319,465.251 40.751,394.627 L40.751,22.8 C40.751,10.209 50.96,0 63.551,0 L343.49,0 L471.249,127.76 Z" id="Shape" fill="#EFEFEF" fill-rule="nonzero"></path>
            <path d="M343.489,104.958 L343.489,0 L471.249,127.76 L366.291,127.76 C353.698,127.76 343.489,117.551 343.489,104.958 Z" id="Shape" fill="#DCDCDC" fill-rule="nonzero"></path>
            <g id="Symbol" transform="translate(41.000000, 94.000000)" fill-rule="nonzero">
                <path d="M430.498,237 L430.498,300.666 C384.93,371.29 305.549,418.039 215.249,418.039 C124.949,418.039 45.568,371.29 0,300.666 L0,237 L430.498,237 L430.498,237 Z" id="Shape" fill="#0096E6"></path>
                <path d="M296.662488,155.650692 C286.078509,155.346811 277.992613,156.388686 271.081801,159.470899 C269.117848,160.339128 265.987029,160.339128 265.666551,162.943815 C266.751244,164.141971 266.915592,165.92184 267.770199,167.397829 C269.413674,170.219573 272.207581,173.996369 274.689228,175.984614 C277.400962,178.146504 280.203087,180.464675 283.120255,182.340049 C288.297201,185.674049 294.082232,187.549423 299.070179,190.926834 C302.011999,192.897713 304.929167,195.380848 307.797031,197.603514 C309.218636,198.697483 310.163634,200.407894 312.012544,201.07643 L312.012544,200.763868 C311.042893,199.461524 310.796372,197.672973 309.908896,196.309853 L305.997425,192.177083 C302.070279,186.809049 297.402871,182.094148 292.151149,178.189915 C288.042462,175.064291 278.822568,170.85338 277.105136,165.791606 L276.801094,165.470361 C279.859717,164.954262 282.880205,164.211541 285.840206,163.247695 C290.367979,161.971398 294.410927,162.301325 299.078396,161.025029 L305.397557,159.114925 L305.397557,157.847311 C303.030953,155.242624 301.354609,151.899943 298.774353,149.581771 C291.938387,143.347187 284.697605,137.626036 277.105136,132.460296 C272.906058,129.655917 267.712677,127.841318 263.25886,125.462371 C261.763298,124.6636 259.150173,124.246851 258.139436,122.91846 C255.805701,119.766789 254.523791,115.772936 252.724186,112.10901 C248.944194,104.425184 245.238158,96.0294098 241.893686,87.9461983 C239.609256,82.4329445 238.121911,76.9978313 235.270482,72.0489263 C221.613206,48.2941823 206.895888,33.9684046 184.117326,19.8857311 C179.269075,16.8903412 173.434739,15.7095499 167.26349,14.1641023 L157.336902,13.5129306 C155.315428,12.6447017 153.228214,10.0400148 151.321784,8.74635371 C143.778234,3.71062582 124.409882,-7.24642349 118.822067,7.15749474 C115.288596,16.2478518 124.097622,25.1298339 127.244876,29.7314474 C129.45535,32.9612591 132.290344,36.5904561 133.86808,40.2196531 C134.903469,42.6072827 135.084251,45.0035946 135.971728,47.5301408 C138.157549,53.7553423 140.080415,60.553575 142.890757,66.2925683 C144.297512,69.2820836 145.915435,72.1553705 147.730791,74.8880349 C148.840136,76.4855762 150.73835,77.1888416 151.017741,79.6546118 C149.160614,82.3982153 149.053788,86.6699017 148.010182,90.1428175 C143.309843,105.770939 145.084796,125.288725 151.921652,136.888264 C154.0253,140.448003 158.963942,148.079735 165.767928,145.153804 C171.717307,142.592528 170.386093,134.665598 172.087089,127.667673 C172.465088,126.078814 172.235002,124.915387 172.991,123.856148 L172.991,124.177392 L178.414468,135.62065 C182.424546,142.444929 189.532575,149.573089 195.564128,154.383077 C198.694948,156.874894 201.151943,161.189992 205.194891,162.648617 L205.194891,162.327372 L204.899066,162.327372 C204.077328,161.033711 202.885809,160.504091 201.891507,159.470899 C199.391193,156.904009 197.07825,154.140945 194.972477,151.205359 C189.445864,143.139372 184.517213,134.63437 180.230507,125.766251 C178.118642,121.485883 176.286168,116.762717 174.478345,112.41289 C173.80452,110.754573 173.812738,108.193297 172.382915,107.281657 C170.435397,110.476739 167.567533,113.055379 166.063754,116.832175 C163.656063,122.857684 163.343803,130.202901 162.456326,137.817269 C162.22933,137.849101 162.018544,137.958931 161.856458,138.129831 C157.665597,137.06191 156.194687,132.503708 154.633386,128.579313 C150.697263,118.690185 149.957699,102.758184 153.433649,91.3757026 C154.329343,88.4324065 158.364074,79.151039 156.720599,76.4334824 C155.898861,73.7159258 153.351475,72.1444314 151.905217,70.0693643 C150.016255,67.2847248 148.40268,64.3026625 147.089836,61.1700175 C143.868625,53.4601445 142.356628,44.8039019 138.97107,37.0072059 C137.327595,33.2825038 134.599426,29.5057078 132.347866,26.1977556 C129.882653,22.5251471 127.055876,19.8249551 125.124793,15.3883052 C124.442751,13.8081285 123.481318,11.2902645 124.524925,9.6666764 C124.727763,8.71448071 125.431539,7.9708869 126.332747,7.75657271 C128.074831,6.33267724 132.906647,8.23409863 134.755556,9.02418698 C139.291537,10.9129779 143.63809,13.2746523 147.730791,16.074206 C149.694743,17.4460078 151.675131,20.1114706 154.049952,20.8407829 L156.769903,20.8407829 C161.001851,21.8739754 165.751493,21.1620277 169.712268,22.4296419 C176.408885,24.6986564 182.78546,27.9110872 188.669751,31.9801603 C206.158092,43.7503448 220.382864,60.2058795 229.896319,79.6719764 C231.457621,82.8323298 232.131445,85.8537665 233.503747,89.2224948 C236.273002,95.9946806 239.773604,102.949194 242.542859,109.573781 C245.312114,116.198368 247.982761,122.84032 251.869579,128.336209 C253.915705,131.227411 261.82082,132.772859 265.411812,134.413812 C267.926329,135.542509 272.051451,136.705936 274.450924,138.225337 C279.00335,141.133904 283.41608,144.589455 287.689115,147.775855 C289.776328,149.295256 296.333793,152.776854 296.662488,155.650692 Z" id="Shape" fill="#0096E6"></path>
                <path d="M161.395006,36.0033235 C159.578598,35.9697346 157.765694,36.1908599 156,36.6613685 L156,36.9948982 L156.29472,36.9948982 C157.342612,39.365663 159.192796,40.8980966 160.494474,42.9353318 L163.49079,49.86734 L163.78551,49.5428247 C165.643881,48.1005343 166.495293,45.7928696 166.487106,42.2772868 C165.74212,41.3758553 165.66844,40.3301947 164.988948,39.3025628 C164.129349,37.9323869 162.475645,37.1481415 161.395006,36.0033235 Z" id="Shape" fill="#0096E6"></path>
                <path d="M168.232764,201.441818 C156.025049,201.441818 144.530133,200.480891 135.861836,198.730632 C124.940438,196.525649 120.065545,193.505594 120.057352,188.949772 L120,164.068638 L124.743803,166.488113 C128.43889,168.392807 132.936901,169.310835 135.681588,169.851357 C144.399044,171.610195 155.959504,172.579702 168.232764,172.579702 L168.552295,172.579702 C180.84194,172.579702 192.517104,171.575877 201.324684,169.782719 C204.036599,169.233618 208.559189,168.30701 212.262469,166.410896 L216.965306,164 L217.006272,188.795338 C217.006272,193.376898 212.090413,196.414113 201.128049,198.644835 C192.402401,200.437993 180.84194,201.424659 168.552295,201.441818 L168.232764,201.441818 Z" id="Shape" fill="#0096E6"></path>
                <path d="M214.95972,171.180639 L215.000669,190.818764 C215.000669,195.950861 194.796291,200.140327 169.841796,200.166512 L169.522392,200.166512 C144.715314,200.166512 124.650164,196.046869 124.650164,190.940957 L124.609215,171.250464 C128.704143,173.388837 133.49521,174.375107 136.36985,174.968615 C145.288604,176.801507 157.065619,177.813961 169.530582,177.813961 L169.841796,177.813961 C182.380468,177.813961 194.231191,176.766595 203.215464,174.907519 C206.090104,174.314011 210.872981,173.319013 214.95972,171.189367 L214.95972,171.180639 Z M221.511605,160.017456 L212.109649,164.922623 C208.833706,166.668234 204.542221,167.54104 201.995176,168.055995 C193.395826,169.801606 181.987354,170.822789 169.858176,170.840245 L169.522392,170.840245 C157.450542,170.840245 146.11578,169.880159 137.581949,168.12582 C135.034903,167.602136 130.767987,166.729331 127.467475,165.001176 L118,160.034912 L118,171.276648 L118.040949,190.967141 C118.040949,199.459539 127.868778,202.566727 136.492698,204.329794 C145.354123,206.153958 157.065619,207.148956 169.473253,207.148956 L169.841796,207.148956 C182.323139,207.148956 194.108343,206.101589 203.035288,204.25997 C211.667397,202.514359 221.568934,199.328618 221.560745,190.810036 L221.519795,171.163183 L221.519795,160 L221.519795,160 L221.511605,160.017456 Z" id="Shape" fill="#FFFFFF"></path>
                <path d="M168.216378,173.828552 C156.008663,173.828552 144.513747,172.844438 135.84545,171.051946 C124.924051,168.793757 120.049159,165.700828 120.040965,161.035076 L120,140.438985 L120,135.05272 L124.719224,137.539364 C128.406118,139.481231 132.912321,140.421411 135.648816,140.983762 C144.382658,142.785041 155.943118,143.777941 168.208184,143.777941 L168.535908,143.777941 C180.825554,143.777941 192.500718,142.741108 201.308297,140.913468 C204.01202,140.351117 208.534609,139.410938 212.237889,137.469071 L216.957113,135 L216.957113,140.649866 L217.006272,160.859341 C217.006272,165.551454 212.090413,168.661956 201.128049,170.946505 C192.377821,172.774145 180.825554,173.784618 168.535908,173.828552 L168.216378,173.828552 Z" id="Shape" fill="#0096E6"></path>
                <path d="M214.948915,140.085746 L214.948915,140.085746 L214.998074,159.943391 C214.998074,165.020041 194.777511,169.164245 169.821338,169.19878 L169.501807,169.19878 C144.684917,169.19878 124.611829,165.123646 124.603636,160.072897 L124.554478,140.215252 C124.554478,140.215252 124.554478,140.154816 124.554478,140.128915 C128.651026,142.244186 133.443988,143.219801 136.311572,143.806896 C145.233854,145.619985 157.015527,146.621501 169.485421,146.621501 L169.821338,146.621501 C182.364969,146.621501 194.22038,145.576817 203.208208,143.737826 C206.083985,143.15073 210.868753,142.166482 214.957109,140.059845 L214.948915,140.085746 Z M221.511586,129 L212.073138,133.843539 C208.7959,135.57029 204.502717,136.433666 201.954664,136.943058 C193.351912,138.66981 181.938928,139.679959 169.813145,139.697227 L169.51,139.697227 C157.449761,139.697227 146.110515,138.747514 137.556922,137.012128 C135.008869,136.494103 130.740266,135.630727 127.446641,133.921242 L118,129.034535 L118,139.88717 C118,140.019554 118,140.151938 118,140.284323 L118.049159,160.141967 C118.049159,168.542615 127.880875,171.624866 136.508206,173.368886 C145.373137,175.130173 157.097458,176.148956 169.501807,176.148956 L169.821338,176.148956 C182.307617,176.148956 194.097484,175.112905 203.027959,173.282548 C211.663484,171.555796 221.568938,168.404475 221.560745,159.977926 L221.511586,140.120281 L221.511586,139.705861 L221.511586,139.705861 L221.511586,129.025901 L221.511586,129.025901 L221.511586,129 Z" id="Shape" fill="#FFFFFF"></path>
                <path d="M168.228644,140.762222 C156.019898,140.762222 144.524011,139.781853 135.854982,137.996181 C124.932661,135.746584 120.057357,132.665425 120.049163,128.017426 L120,107.884849 C120,103.21059 124.916274,100.111924 135.887758,97.8360673 C144.622337,96.0241354 156.191967,95.0175066 168.474458,95 L168.802209,95 C181.010955,95 192.506842,95.9803689 201.167677,97.766041 C212.081804,100.015638 216.957109,103.096797 216.957109,107.744796 L217.006272,127.877373 C217.006272,132.551632 212.089998,135.650298 201.126708,137.926155 C192.383935,139.738087 180.830692,140.744715 168.540008,140.762222 L168.228644,140.762222 Z" id="Shape" fill="#0096E6"></path>
                <path d="M170.067179,99.9934827 C194.887995,99.9934827 214.947869,104.119637 214.947869,109.233622 L214.997036,129.339884 C214.997036,134.471352 194.781468,138.667442 169.813152,138.702409 L169.501765,138.702409 C144.680949,138.702409 124.604686,134.576255 124.596491,129.46227 L124.547325,109.356008 C124.547325,104.215798 144.779282,100.019708 169.747597,99.9934827 L170.075373,99.9934827 L170.067179,99.9934827 Z M170.075373,93 L169.747597,93 C157.259342,93 145.467611,94.0490224 136.535722,95.8935535 C127.898832,97.6419241 117.991811,100.832701 118.000005,109.364749 L118.049171,129.471012 C118.049171,137.976836 127.882443,141.097677 136.511139,142.863532 C145.377472,144.690579 157.095454,145.695892 169.50996,145.695892 L169.813152,145.695892 C182.301407,145.695892 194.093139,144.64687 203.025027,142.802339 C211.661918,141.053968 221.568939,137.863191 221.560745,129.331143 L221.511578,109.22488 C221.511578,100.719057 211.678307,97.6069567 203.057805,95.8323605 C194.199666,94.0053131 182.481684,93.0087419 170.067179,93.0087419 L170.067179,93.0087419 L170.075373,93 Z" id="Shape" fill="#FFFFFF"></path>
            </g>
            <g id="Letters" transform="translate(81.000000, 351.000000)" fill="#EFEFEF">
                <path d="M49.2157742,2.29591837 L71.4180023,2.29591837 L71.4180023,77.5 L57.0341661,77.5 L57.0341661,26.6326531 C57.0341661,25.1700607 57.0508719,23.1207615 57.084284,20.4846939 C57.1176961,17.8486263 57.1344019,15.8163337 57.1344019,14.3877551 L43.1515088,77.5 L28.1662578,77.5 L14.2836005,14.3877551 C14.2836005,15.8163337 14.3003063,17.8486263 14.3337184,20.4846939 C14.3671305,23.1207615 14.3838363,25.1700607 14.3838363,26.6326531 L14.3838363,77.5 L0,77.5 L0,2.29591837 L22.4528176,2.29591837 L35.8844138,61.4285714 L49.2157742,2.29591837 Z M88.5148874,88.1632653 L90.3191317,88.2653061 C91.7224398,88.3333337 93.0589037,88.2823138 94.3285634,88.1122449 C95.5982231,87.942176 96.6673942,87.5510235 97.5361088,86.9387755 C98.3714112,86.3605413 99.1482308,85.1530704 99.8665909,83.3163265 C100.584951,81.4795827 100.877303,80.3571449 100.743654,79.9489796 L80.6964956,21.8877551 L96.5838687,21.8877551 L108.511928,62.9081633 L119.788455,21.8877551 L134.974177,21.8877551 L116.230084,76.5816327 C112.621578,87.1259031 109.764886,93.6649533 107.659924,96.1989796 C105.554962,98.7330059 101.3451,100 95.0302139,100 C93.7605542,100 92.7415005,99.9914967 91.9730223,99.9744898 C91.204544,99.9574829 90.0518439,99.8979597 88.5148874,99.7959184 L88.5148874,88.1632653 Z M157.433677,54.2857143 C157.901447,57.7211056 158.820266,60.2891071 160.190162,61.9897959 C162.696069,65.0850495 166.989459,66.6326531 173.070461,66.6326531 C176.71238,66.6326531 179.669306,66.2244939 181.941329,65.4081633 C186.251489,63.8435296 188.406537,60.9353954 188.406537,56.6836735 C188.406537,54.2006679 187.337366,52.2789184 185.198992,50.9183673 C183.060618,49.5918301 179.702752,48.4183724 175.125295,47.3979592 L167.306903,45.6122449 C159.62212,43.8435286 154.309676,41.9217791 151.369412,39.8469388 C146.391009,36.3775337 143.901845,30.9524179 143.901845,23.5714286 C143.901845,16.836701 146.30748,11.2415189 151.118822,6.78571429 C155.930164,2.32990969 162.996717,0.102040816 172.318693,0.102040816 C180.103711,0.102040816 186.744266,2.20235995 192.240556,6.40306122 C197.736846,10.6037625 200.618597,16.7006403 200.885893,24.6938776 L186.050996,24.6938776 C185.783699,20.1700454 183.845827,16.9557918 180.23732,15.0510204 C177.831649,13.7925107 174.841311,13.1632653 171.266217,13.1632653 C167.290177,13.1632653 164.116075,13.9795837 161.743816,15.6122449 C159.371557,17.2449061 158.185446,19.5237949 158.185446,22.4489796 C158.185446,25.1360679 159.354852,27.1428505 161.693699,28.4693878 C163.197243,29.3537459 166.404756,30.3911505 171.316335,31.5816327 L184.04628,34.6938776 C189.626101,36.0544286 193.835962,37.8741383 196.67599,40.1530612 C201.086387,43.6904939 203.291553,48.8094903 203.291553,55.5102041 C203.291553,62.3809867 200.710507,68.086712 195.548338,72.627551 C190.386168,77.1683901 183.094087,79.4387755 173.671876,79.4387755 C164.049192,79.4387755 156.481465,77.2024033 150.968469,72.7295918 C145.455473,68.2567804 142.699016,62.1088827 142.699016,54.2857143 L157.433677,54.2857143 Z M254.067664,65.6122449 C254.969791,65.3741485 256.122491,64.9489827 257.525799,64.3367347 L250.058232,57.0918367 L258.026978,48.622449 L265.494544,55.8673469 C266.663968,53.4183551 267.482552,51.2755194 267.950321,49.4387755 C268.685387,46.6836597 269.052915,43.4694061 269.052915,39.7959184 C269.052915,31.360502 267.357276,24.8384584 263.965948,20.2295918 C260.574621,15.6207253 255.621351,13.3163265 249.105992,13.3163265 C242.991578,13.3163265 238.113485,15.5271888 234.471566,19.9489796 C230.829648,24.3707704 229.008716,30.9863505 229.008716,39.7959184 C229.008716,50.1020923 231.61482,57.4829709 236.827108,61.9387755 C240.201729,64.8299464 244.244533,66.2755102 248.955639,66.2755102 C250.72648,66.2755102 252.430471,66.054424 254.067664,65.6122449 Z M282.083568,55.5102041 C280.780496,59.8299536 278.859329,63.4183531 276.32001,66.2755102 L284.840052,74.3877551 L276.771071,82.9591837 L267.850085,74.3877551 C265.143706,76.0544301 262.804894,77.2278878 260.83358,77.9081633 C257.525782,79.0306179 253.566508,79.5918367 248.955639,79.5918367 C239.332954,79.5918367 231.380994,76.6666959 225.09952,70.8163265 C217.481561,63.775475 213.672639,53.4354423 213.672639,39.7959184 C213.672639,26.0543531 217.581796,15.6633005 225.400227,8.62244898 C231.781938,2.87412092 239.717192,0 249.206228,0 C258.762088,0 266.780871,3.04418724 273.262818,9.13265306 C280.747128,16.1735046 284.489227,26.0203449 284.489227,38.6734694 C284.489227,45.3741832 283.687349,50.9863719 282.083568,55.5102041 Z M297.977624,2.29591837 L313.413936,2.29591837 L313.413936,63.9795918 L350,63.9795918 L350,77.5 L297.977624,77.5 L297.977624,2.29591837 Z" id="MySQL"></path>
            </g>
        </g>
    </g>
</svg>