<?xml version="1.0" encoding="UTF-8" standalone="no"?>
<svg width="512px" height="513px" viewBox="0 0 512 513" version="1.1" xmlns="http://www.w3.org/2000/svg" xmlns:xlink="http://www.w3.org/1999/xlink">
    <!-- Generator: Sketch 46.2 (44496) - http://www.bohemiancoding.com/sketch -->
    <title>Node Js</title>
    <desc>Created with Sketch.</desc>
    <defs></defs>
    <g id="Page-1" stroke="none" stroke-width="1" fill="none" fill-rule="evenodd">
        <g id="Node-Js">
            <path d="M512,256 C512,275.508 509.816,294.494 505.689,312.738 C499.273,341.086 488.156,367.647 473.193,391.555 C472.556,392.579 471.908,393.603 471.25,394.627 C425.681,465.251 346.3,512 256,512 C165.7,512 86.319,465.251 40.751,394.627 C20.929,363.928 7.502,328.715 2.351,290.858 C1.16,282.123 0.418,273.241 0.136,264.234 C0.042,261.496 0,258.759 0,256 C0,231.1 3.553,207.036 10.177,184.278 C12.831,175.177 15.976,166.285 19.592,157.633 C25.454,143.527 32.559,130.069 40.751,117.373 C86.319,46.749 165.7,0 256,0 C346.3,0 425.681,46.749 471.249,117.373 C481.614,133.433 490.235,150.726 496.839,168.991 C499.963,177.664 502.649,186.556 504.843,195.636 C506.954,204.35 508.615,213.243 509.796,222.281 C510.956,231.027 511.656,239.919 511.907,248.926 C511.969,251.277 512,253.628 512,256 Z" id="Shape" fill="#5C5E70" fill-rule="nonzero"></path>
            <path d="M471.498,127.76 L471.498,394.627 C425.93,465.251 346.549,512 256.249,512 C165.949,512 86.568,465.251 41,394.627 L41,22.8 C41,10.209 51.209,0 63.8,0 L343.739,0 L471.498,127.76 Z" id="Shape" fill="#EFEFEF" fill-rule="nonzero"></path>
            <path d="M343.489,104.958 L343.489,0 L471.249,127.76 L366.291,127.76 C353.698,127.76 343.489,117.551 343.489,104.958 Z" id="Shape" fill="#DCDCDC" fill-rule="nonzero"></path>
            <g id="Symbol" transform="translate(41.000000, 89.000000)" fill-rule="nonzero" fill="#81CF08">
                <path d="M430.498,242 L430.498,305.666 C384.93,376.29 305.549,423.039 215.249,423.039 C124.949,423.039 45.568,376.29 0,305.666 L0,242 L430.498,242 L430.498,242 Z" id="Shape"></path>
                <path d="M215.452143,212 C212.437143,212 209.422143,211.264546 206.742143,209.815269 L179.008929,194.457261 C174.869286,192.294161 176.903214,191.515445 178.243214,191.082825 C183.770714,189.287452 185.421786,188.400582 191.308214,185.264087 C191.930357,184.939622 192.743929,185.069408 193.39,185.415504 L214.183929,196.533837 C214.949643,196.944826 216.050357,196.944826 216.768214,196.533837 L298.005714,152.882483 C298.771429,152.471495 299.273929,151.627886 299.273929,150.784277 L299.273929,62.4216514 C299.273929,61.5564115 298.771429,60.7128026 297.981786,60.2801826 L216.768214,15.4823866 C216.0025,15.0497666 214.973571,15.0497666 214.207857,15.4823866 L133.066071,60.2801826 C132.2525,60.7128026 131.75,61.5564115 131.75,62.4000204 L131.75,150.784277 C131.75,151.649517 132.2525,152.449864 133.042143,152.860852 L153.931786,164.195495 C166.278929,169.970972 173.601071,164.108971 173.601071,157.273576 L173.601071,70.3818585 C173.601071,69.1272607 174.677857,68.1538658 176.017857,68.1538658 L187.958214,68.1538658 C189.274286,68.1538658 190.375,69.1272607 190.375,70.3818585 L190.375,157.295207 C190.375,172.696477 180.253214,181.543555 164.627857,181.543555 C159.842143,181.543555 156.0375,181.543555 145.485,176.676581 L123.71,164.95258 C118.326071,162.054026 115,156.624646 115,150.805908 L115,61.1454225 C115,55.3266842 118.326071,49.8973038 123.733929,46.9987501 L206.79,2.09279902 C212.030357,-0.697599673 219.0175,-0.697599673 224.233929,2.09279902 L307.266071,46.9771191 C312.65,49.8973038 316,55.3266842 316,61.1237915 L316,150.784277 C316,156.603015 312.673929,162.032395 307.266071,164.95258 L224.233929,209.793638 C221.577857,211.221284 218.562857,211.978369 215.5,211.978369 L215.452143,212 Z" id="Shape"></path>
                <path d="M240.79871,151 C207.127558,151 197,136.060388 197,122.958499 C197,121.704523 198.07233,120.73161 199.382955,120.73161 L210.082422,120.73161 C211.2739,120.73161 212.274741,121.531561 212.465377,122.634195 C214.061957,132.860586 221.186992,137.357604 240.774881,137.357604 C258.194281,137.357604 265.319316,132.471421 265.319316,123.80169 C265.319316,118.785785 263.50827,115.088718 236.437903,112.602386 C213.799832,110.505219 199.788057,105.813618 199.788057,88.8200795 C199.788057,73.1453777 213.87132,64 237.438744,64 C261.482759,64 277.305579,70.6158052 278.711522,88.0417495 C278.759181,88.6687376 278.520886,89.2957256 278.068124,89.7713718 C277.615363,90.2253976 276.995795,90.484841 276.328567,90.484841 L265.605271,90.484841 C264.485282,90.484841 263.50827,89.7497515 263.269975,88.7335984 C260.982338,80.7124751 254.429212,77.6640159 237.438744,77.6640159 C218.422764,77.6640159 216.206616,83.6960736 216.206616,88.3660537 C216.206616,94.0305666 218.827867,95.6737078 244.51612,98.8518887 C269.918419,101.965209 282,106.440606 282,123.196322 C282,140.125 266.963555,151 240.79871,151 L240.79871,151 L240.79871,151 Z" id="Shape"></path>
            </g>
            <g id="Letters" transform="translate(109.000000, 351.000000)" fill="#EFEFEF">
                <path d="M0,0 L18.9257812,0 L53.3203125,60.2929688 L53.3203125,0 L70.1367188,0 L70.1367188,86.3671875 L52.0898438,86.3671875 L16.8164062,25.0195312 L16.8164062,86.3671875 L0,86.3671875 L0,0 Z M127.507813,69.375 C130.125013,65.8984201 131.433594,60.9570633 131.433594,54.5507812 C131.433594,48.1444992 130.125013,43.2129079 127.507813,39.7558594 C124.890612,36.2988108 121.140649,34.5703125 116.257813,34.5703125 C111.374976,34.5703125 107.615248,36.2988108 104.978516,39.7558594 C102.341784,43.2129079 101.023438,48.1444992 101.023438,54.5507812 C101.023438,60.9570633 102.341784,65.8984201 104.978516,69.375 C107.615248,72.8515799 111.374976,74.5898438 116.257813,74.5898438 C121.140649,74.5898438 124.890612,72.8515799 127.507813,69.375 Z M140.867188,78.6035156 C135.476536,85.2637052 127.293024,88.59375 116.316406,88.59375 C105.339789,88.59375 97.156277,85.2637052 91.765625,78.6035156 C86.374973,71.9433261 83.6796875,63.9258281 83.6796875,54.5507812 C83.6796875,45.3319852 86.374973,37.3437838 91.765625,30.5859375 C97.156277,23.8280912 105.339789,20.4492188 116.316406,20.4492188 C127.293024,20.4492188 135.476536,23.8280912 140.867188,30.5859375 C146.257839,37.3437838 148.953125,45.3319852 148.953125,54.5507812 C148.953125,63.9258281 146.257839,71.9433261 140.867188,78.6035156 Z M196.773438,23.5253906 C199.781265,25.2246179 202.222647,27.57811 204.097656,30.5859375 L204.097656,0.1171875 L221.03125,0.1171875 L221.03125,86.3671875 L204.800781,86.3671875 L204.800781,77.5195312 C202.417957,81.3086127 199.70314,84.0624914 196.65625,85.78125 C193.60936,87.5000086 189.820335,88.359375 185.289062,88.359375 C177.828088,88.359375 171.548854,85.3418271 166.451172,79.3066406 C161.35349,73.2714542 158.804688,65.527391 158.804688,56.0742188 C158.804688,45.1757268 161.314428,36.6015938 166.333984,30.3515625 C171.353541,24.1015312 178.062458,20.9765625 186.460938,20.9765625 C190.328144,20.9765625 193.76561,21.8261634 196.773438,23.5253906 Z M200.875,69.0234375 C203.33595,65.5077949 204.566406,60.9570592 204.566406,55.3710938 C204.566406,47.5585547 202.59377,41.972673 198.648438,38.6132812 C196.22655,36.5820211 193.414079,35.5664062 190.210938,35.5664062 C185.328101,35.5664062 181.744152,37.4120909 179.458984,41.1035156 C177.173817,44.7949403 176.03125,49.3749727 176.03125,54.84375 C176.03125,60.742217 177.193348,65.4589667 179.517578,68.9941406 C181.841808,72.5293146 185.367164,74.296875 190.09375,74.296875 C194.820336,74.296875 198.41405,72.5390801 200.875,69.0234375 Z M254.408203,38.203125 C252.279286,40.6250121 250.941409,43.9062293 250.394531,48.046875 L276.351563,48.046875 C276.078124,43.6327904 274.740246,40.2832146 272.337891,37.9980469 C269.935535,35.7128792 266.957049,34.5703125 263.402344,34.5703125 C259.535137,34.5703125 256.53712,35.7812379 254.408203,38.203125 Z M277.757812,23.7890625 C282.015646,25.78126 285.531236,28.9257598 288.304688,33.2226562 C290.8047,37.0117377 292.425778,41.406225 293.167969,46.40625 C293.597658,49.3359521 293.773438,53.55466 293.695312,59.0625 L249.984375,59.0625 C250.218751,65.468782 252.23045,69.9609246 256.019531,72.5390625 C258.32423,74.140633 261.09764,74.9414062 264.339844,74.9414062 C267.777361,74.9414062 270.570302,73.9648535 272.71875,72.0117188 C273.890631,70.957026 274.925777,69.4921969 275.824219,67.6171875 L292.875,67.6171875 C292.44531,71.4062689 290.472674,75.2538867 286.957031,79.1601562 C281.488254,85.3711248 273.83208,88.4765625 263.988281,88.4765625 C255.863241,88.4765625 248.695344,85.8594012 242.484375,80.625 C236.273406,75.3905988 233.167969,66.875059 233.167969,55.078125 C233.167969,44.0233822 235.970675,35.5469045 241.576172,29.6484375 C247.181669,23.7499705 254.456987,20.8007812 263.402344,20.8007812 C268.71487,20.8007812 273.499979,21.796865 277.757812,23.7890625 Z" id="Node"></path>
            </g>
        </g>
    </g>
</svg>