<?xml version="1.0" encoding="UTF-8" standalone="no"?>
<svg width="512px" height="513px" viewBox="0 0 512 513" version="1.1" xmlns="http://www.w3.org/2000/svg" xmlns:xlink="http://www.w3.org/1999/xlink">
    <!-- Generator: Sketch 46.2 (44496) - http://www.bohemiancoding.com/sketch -->
    <title>Node Js</title>
    <desc>Created with Sketch.</desc>
    <defs></defs>
    <g id="Page-1" stroke="none" stroke-width="1" fill="none" fill-rule="evenodd">
        <g id="Node-Js" fill-rule="nonzero">
            <g id="Page-1">
                <g>
                    <g id="Node-Js">
                        <path d="M512,256 C512,275.508 509.816,294.494 505.689,312.738 C499.273,341.086 488.156,367.647 473.193,391.555 C472.556,392.579 471.908,393.603 471.25,394.627 C425.681,465.251 346.3,512 256,512 C165.7,512 86.319,465.251 40.751,394.627 C20.929,363.928 7.502,328.715 2.351,290.858 C1.16,282.123 0.418,273.241 0.136,264.234 C0.042,261.496 0,258.759 0,256 C0,231.1 3.553,207.036 10.177,184.278 C12.831,175.177 15.976,166.285 19.592,157.633 C25.454,143.527 32.559,130.069 40.751,117.373 C86.319,46.749 165.7,0 256,0 C346.3,0 425.681,46.749 471.249,117.373 C481.614,133.433 490.235,150.726 496.839,168.991 C499.963,177.664 502.649,186.556 504.843,195.636 C506.954,204.35 508.615,213.243 509.796,222.281 C510.956,231.027 511.656,239.919 511.907,248.926 C511.969,251.277 512,253.628 512,256 Z" id="Shape" fill="#5C5E70"></path>
                        <path d="M471.498,127.76 L471.498,394.627 C425.93,465.251 346.549,512 256.249,512 C165.949,512 86.568,465.251 41,394.627 L41,22.8 C41,10.209 51.209,0 63.8,0 L343.739,0 L471.498,127.76 Z" id="Shape" fill="#F9EED7"></path>
                        <path d="M343.489,104.958 L343.489,0 L471.249,127.76 L366.291,127.76 C353.698,127.76 343.489,117.551 343.489,104.958 Z" id="Shape" fill="#E8DBC4"></path>
                        <g id="Symbol" transform="translate(41.000000, 89.000000)" fill="#81CF08">
                            <path d="M430.498,242 L430.498,305.666 C384.93,376.29 305.549,423.039 215.249,423.039 C124.949,423.039 45.568,376.29 0,305.666 L0,242 L430.498,242 L430.498,242 Z" id="Shape"></path>
                            <path d="M215.452143,212 C212.437143,212 209.422143,211.264546 206.742143,209.815269 L179.008929,194.457261 C174.869286,192.294161 176.903214,191.515445 178.243214,191.082825 C183.770714,189.287452 185.421786,188.400582 191.308214,185.264087 C191.930357,184.939622 192.743929,185.069408 193.39,185.415504 L214.183929,196.533837 C214.949643,196.944826 216.050357,196.944826 216.768214,196.533837 L298.005714,152.882483 C298.771429,152.471495 299.273929,151.627886 299.273929,150.784277 L299.273929,62.4216514 C299.273929,61.5564115 298.771429,60.7128026 297.981786,60.2801826 L216.768214,15.4823866 C216.0025,15.0497666 214.973571,15.0497666 214.207857,15.4823866 L133.066071,60.2801826 C132.2525,60.7128026 131.75,61.5564115 131.75,62.4000204 L131.75,150.784277 C131.75,151.649517 132.2525,152.449864 133.042143,152.860852 L153.931786,164.195495 C166.278929,169.970972 173.601071,164.108971 173.601071,157.273576 L173.601071,70.3818585 C173.601071,69.1272607 174.677857,68.1538658 176.017857,68.1538658 L187.958214,68.1538658 C189.274286,68.1538658 190.375,69.1272607 190.375,70.3818585 L190.375,157.295207 C190.375,172.696477 180.253214,181.543555 164.627857,181.543555 C159.842143,181.543555 156.0375,181.543555 145.485,176.676581 L123.71,164.95258 C118.326071,162.054026 115,156.624646 115,150.805908 L115,61.1454225 C115,55.3266842 118.326071,49.8973038 123.733929,46.9987501 L206.79,2.09279902 C212.030357,-0.697599673 219.0175,-0.697599673 224.233929,2.09279902 L307.266071,46.9771191 C312.65,49.8973038 316,55.3266842 316,61.1237915 L316,150.784277 C316,156.603015 312.673929,162.032395 307.266071,164.95258 L224.233929,209.793638 C221.577857,211.221284 218.562857,211.978369 215.5,211.978369 L215.452143,212 Z" id="Shape"></path>
                            <path d="M240.79871,151 C207.127558,151 197,136.060388 197,122.958499 C197,121.704523 198.07233,120.73161 199.382955,120.73161 L210.082422,120.73161 C211.2739,120.73161 212.274741,121.531561 212.465377,122.634195 C214.061957,132.860586 221.186992,137.357604 240.774881,137.357604 C258.194281,137.357604 265.319316,132.471421 265.319316,123.80169 C265.319316,118.785785 263.50827,115.088718 236.437903,112.602386 C213.799832,110.505219 199.788057,105.813618 199.788057,88.8200795 C199.788057,73.1453777 213.87132,64 237.438744,64 C261.482759,64 277.305579,70.6158052 278.711522,88.0417495 C278.759181,88.6687376 278.520886,89.2957256 278.068124,89.7713718 C277.615363,90.2253976 276.995795,90.484841 276.328567,90.484841 L265.605271,90.484841 C264.485282,90.484841 263.50827,89.7497515 263.269975,88.7335984 C260.982338,80.7124751 254.429212,77.6640159 237.438744,77.6640159 C218.422764,77.6640159 216.206616,83.6960736 216.206616,88.3660537 C216.206616,94.0305666 218.827867,95.6737078 244.51612,98.8518887 C269.918419,101.965209 282,106.440606 282,123.196322 C282,140.125 266.963555,151 240.79871,151 L240.79871,151 L240.79871,151 Z" id="Shape"></path>
                        </g>
                        <g id="Letters" transform="translate(81.000000, 347.000000)" fill="#F9EED7">
                            <path d="M25.8857173,10.5672823 L64.4777398,61.8601583 L64.4777398,10.0923483 C64.4777398,6.72821537 65.3000368,4.20515353 66.9446555,2.52308708 C68.5892741,0.841020613 70.8083495,0 73.6019483,0 C76.4856631,0 78.7610603,0.841020613 80.4282079,2.52308708 C82.0953556,4.20515353 82.9289169,6.72821537 82.9289169,10.0923483 L82.9289169,78.5422163 C82.9289169,86.1807769 79.3243274,90 72.1150402,90 C70.3127184,90 68.6906532,89.7724297 67.2487957,89.3172823 C65.8069383,88.8621349 64.4552172,88.1398467 63.1935919,87.1503958 C61.9319667,86.1609449 60.7604751,85.0033048 59.679082,83.6774406 C58.597689,82.3515765 57.5163121,80.9960492 56.434919,79.610818 L18.7891108,28.9116094 L18.7891108,79.9076517 C18.7891108,83.2322066 17.9104921,85.7453741 16.1532283,87.4472296 C14.3959645,89.149085 12.1430962,90 9.39455538,90 C6.55589856,90 4.28050142,89.1391906 2.56829572,87.4175462 C0.856090011,85.6959017 0,83.1926286 0,79.9076517 L0,12.7638522 C0,9.91423378 0.360458952,7.67810838 1.08138767,6.05540897 C1.93749052,4.27439743 3.35679765,2.81992648 5.33935162,1.69195251 C7.32190559,0.563978529 9.46213062,0 11.7600909,0 C13.5624127,0 15.1056276,0.257253364 16.3897819,0.77176781 C17.6739362,1.28628226 18.8003703,1.97888746 19.7691184,2.84960422 C20.7378663,3.72032098 21.7291284,4.84827803 22.7429345,6.23350923 C23.7567404,7.61874044 24.8043243,9.06331702 25.8857173,10.5672823 Z M175.872641,57.0514512 C175.872641,61.8799714 175.016551,66.3324335 173.304346,70.408971 C171.59214,74.4855085 169.113984,77.988112 165.869805,80.9168865 C162.625626,83.8456611 158.750693,86.0916808 154.244888,87.6550132 C149.739084,89.2183455 144.67013,90 139.037875,90 C133.450676,90 128.42678,89.2084512 123.966033,87.6253298 C119.505288,86.0422085 115.641618,83.7763999 112.374909,80.8278364 C109.108201,77.8792728 106.630046,74.3964581 104.940369,70.3792876 C103.250692,66.3621172 102.405867,61.9195494 102.405867,57.0514512 C102.405867,52.1437749 103.261957,47.6517354 104.974163,43.5751979 C106.686368,39.4986604 109.141995,36.0158456 112.341116,33.1266491 C115.540238,30.2374525 119.415171,28.0112215 123.966033,26.4478892 C128.516896,24.8845569 133.540793,24.1029024 139.037875,24.1029024 C144.625072,24.1029024 149.694026,24.8944512 154.244888,26.4775726 C158.795751,28.0606939 162.693213,30.316608 165.937392,33.2453826 C169.181571,36.1741572 171.648463,39.6569719 173.33814,43.6939314 C175.027816,47.7308909 175.872641,52.1833529 175.872641,57.0514512 Z M157.353878,57.0514512 C157.353878,50.4419194 155.698019,45.2968522 152.386253,41.616095 C149.074487,37.9353378 144.625072,36.0949868 139.037875,36.0949868 C135.433231,36.0949868 132.256686,36.9162187 129.508145,38.5587071 C126.759604,40.2011956 124.641908,42.6253138 123.154992,45.8311346 C121.668077,49.0369553 120.924631,52.7770235 120.924631,57.0514512 C120.924631,61.2863008 121.656813,64.9867916 123.121199,68.1530343 C124.585586,71.319277 126.680753,73.7433953 129.406765,75.4254618 C132.132777,77.1075282 135.343115,77.9485489 139.037875,77.9485489 C144.625072,77.9485489 149.074487,76.0983034 152.386253,72.3977572 C155.698019,68.697211 157.353878,63.5818269 157.353878,57.0514512 Z M244.14721,80.7387863 L244.14721,79.135884 C241.669017,81.6293001 239.224655,83.6576439 236.81405,85.2209762 C234.403445,86.7843086 231.790117,87.9716319 228.97399,88.7829815 C226.157861,89.5943313 223.082696,90 219.748401,90 C215.332713,90 211.243756,89.1787681 207.481409,87.5362797 C203.719062,85.8937912 200.463668,83.5488279 197.715126,80.5013193 C194.966586,77.4538107 192.882682,73.8720523 191.463355,69.7559366 C190.044026,65.6398211 189.334372,61.187359 189.334372,56.3984169 C189.334372,46.2664401 192.150458,38.3707407 197.782713,32.7110817 C203.414969,27.0514229 210.826906,24.2216359 220.018748,24.2216359 C225.335597,24.2216359 229.818805,25.023079 233.468507,26.6259895 C237.118208,28.2288998 240.67774,30.6925955 244.14721,34.0171504 L244.14721,10.0923483 C244.14721,6.7677934 244.901921,4.25462593 246.411365,2.55277045 C247.92081,0.850914974 250.072299,0 252.865898,0 C255.659497,0 257.810986,0.781654452 259.320431,2.3449868 C260.829875,3.90831916 261.584586,6.21370508 261.584586,9.26121372 L261.584586,80.7387863 C261.584586,83.8258729 260.773553,86.1411532 259.151464,87.6846966 C257.529374,89.2282399 255.434207,90 252.865898,90 C250.342647,90 248.258744,89.1985568 246.614126,87.5956464 C244.969507,85.9927361 244.14721,83.7071388 244.14721,80.7387863 Z M207.853136,56.9327176 C207.853136,61.3258795 208.630376,65.0659477 210.184878,68.1530343 C211.739381,71.2401209 213.868342,73.5652957 216.571825,75.1286279 C219.275307,76.6919603 222.226565,77.4736148 225.425686,77.4736148 C228.669865,77.4736148 231.632388,76.7315378 234.313341,75.2473615 C236.994294,73.7631852 239.13452,71.4874824 240.73408,68.4201847 C242.333641,65.3528871 243.133409,61.5237697 243.133409,56.9327176 C243.133409,52.618712 242.333641,48.9083269 240.73408,45.8014512 C239.13452,42.6945755 236.971765,40.3199291 234.245754,38.6774406 C231.519742,37.0349522 228.534691,36.2137203 225.290512,36.2137203 C221.911159,36.2137203 218.892316,37.0547409 216.233891,38.7368074 C213.575466,40.4188738 211.514091,42.8330977 210.049705,45.9795515 C208.585318,49.1260052 207.853136,52.777024 207.853136,56.9327176 Z M334.792986,61.0290237 L298.701673,61.0290237 C298.74673,64.709781 299.591556,67.955131 301.236174,70.7651715 C302.880794,73.575212 305.066076,75.692605 307.792087,77.1174142 C310.518099,78.5422235 313.525679,79.2546174 316.814916,79.2546174 C319.02276,79.2546174 321.039077,79.0270471 322.863928,78.5718997 C324.68878,78.1167523 326.45728,77.4043585 328.169487,76.4346965 C329.881692,75.4650347 331.4587,74.4261269 332.900557,73.3179419 C334.342415,72.209757 336.212296,70.7058142 338.510257,68.8060686 C339.456475,68.0936639 340.808196,67.7374671 342.56546,67.7374671 C344.457898,67.7374671 345.989848,68.1926076 347.161358,69.1029024 C348.332867,70.0131972 348.918612,71.2994639 348.918612,72.9617415 C348.918612,74.4261287 348.26528,76.137853 346.958597,78.0969657 C345.651914,80.0560784 343.680654,81.9360068 341.044758,83.7368074 C338.408862,85.5376079 335.097146,87.0316563 331.109509,88.2189974 C327.121872,89.4063384 322.537285,90 317.35561,90 C305.505344,90 296.291113,87.031692 289.712637,81.0949868 C283.134162,75.1582817 279.844975,67.1042724 279.844975,56.9327176 C279.844975,52.1437755 280.656007,47.7012078 282.278098,43.6048813 C283.900187,39.5085547 286.265698,35.9960569 289.374703,33.0672824 C292.483709,30.1385078 296.313586,27.892488 300.864448,26.3291556 C305.41531,24.7658234 310.461735,23.9841689 316.003875,23.9841689 C323.213162,23.9841689 329.397287,25.3199075 334.556432,27.9914248 C339.715579,30.6629422 343.579248,34.1160738 346.147556,38.3509235 C348.715865,42.5857732 350,46.8997142 350,51.292876 C350,55.3694135 348.670808,58.0112077 346.012383,59.2183377 C343.353959,60.4254677 339.614197,61.0290237 334.792986,61.0290237 Z M298.701673,51.8271768 L332.157103,51.8271768 C331.706523,46.286252 330.005607,42.140515 327.054306,39.3898417 C324.103003,36.6391683 320.216805,35.2638522 315.395595,35.2638522 C310.799674,35.2638522 307.026119,36.6589571 304.074818,39.4492085 C301.123515,42.2394599 299.332484,46.3654081 298.701673,51.8271768 Z" id="Node"></path>
                        </g>
                    </g>
                </g>
            </g>
        </g>
    </g>
</svg>