<?xml version="1.0" encoding="UTF-8" standalone="no"?>
<svg width="512px" height="513px" viewBox="0 0 512 513" version="1.1" xmlns="http://www.w3.org/2000/svg" xmlns:xlink="http://www.w3.org/1999/xlink">
    <!-- Generator: Sketch 46.2 (44496) - http://www.bohemiancoding.com/sketch -->
    <title>Php</title>
    <desc>Created with Sketch.</desc>
    <defs></defs>
    <g id="Page-1" stroke="none" stroke-width="1" fill="none" fill-rule="evenodd">
        <g id="Php">
            <path d="M512,256 C512,275.508 509.816,294.494 505.689,312.738 C499.273,341.086 488.156,367.647 473.193,391.555 C472.556,392.579 471.908,393.603 471.25,394.627 C425.681,465.251 346.3,512 256,512 C165.7,512 86.319,465.251 40.751,394.627 C20.929,363.928 7.502,328.715 2.351,290.858 C1.16,282.123 0.418,273.241 0.136,264.234 C0.042,261.496 0,258.759 0,256 C0,231.1 3.553,207.036 10.177,184.278 C12.831,175.177 15.976,166.285 19.592,157.633 C25.454,143.527 32.559,130.069 40.751,117.373 C86.319,46.749 165.7,0 256,0 C346.3,0 425.681,46.749 471.249,117.373 C481.614,133.433 490.235,150.726 496.839,168.991 C499.963,177.664 502.649,186.556 504.843,195.636 C506.954,204.35 508.615,213.243 509.796,222.281 C510.956,231.027 511.656,239.919 511.907,248.926 C511.969,251.277 512,253.628 512,256 Z" id="Shape" fill="#5C5E70" fill-rule="nonzero"></path>
            <path d="M471.249,127.76 L471.249,394.627 C425.681,465.251 346.3,512 256,512 C165.7,512 86.319,465.251 40.751,394.627 L40.751,22.8 C40.751,10.209 50.96,0 63.551,0 L343.49,0 L471.249,127.76 Z" id="Shape" fill="#EFEFEF" fill-rule="nonzero"></path>
            <path d="M343.489,104.958 L343.489,0 L471.249,127.76 L366.291,127.76 C353.698,127.76 343.489,117.551 343.489,104.958 Z" id="Shape" fill="#DCDCDC" fill-rule="nonzero"></path>
            <g id="Symbol" transform="translate(41.000000, 127.000000)" fill-rule="nonzero" fill="#8892BF">
                <path d="M430.498,204 L430.498,267.666 C384.93,338.29 305.549,385.039 215.249,385.039 C124.949,385.039 45.568,338.29 0,267.666 L0,204 L430.498,204 L430.498,204 Z" id="Shape"></path>
                <path d="M155.399133,58.0166119 L139.522825,58.0166119 L133,92.621465 L147.830195,92.621465 C147.830195,92.621465 165.891035,93.0972421 166.721772,70.1965052 C167.583277,57.0333393 155.399133,58.0166119 155.399133,58.0166119 Z" id="Shape"></path>
                <path d="M291.397154,58.0166119 L275.522248,58.0166119 L269,92.621465 L283.828885,92.621465 C283.828885,92.621465 301.888129,93.0972421 302.718792,70.1965052 C303.610987,57.0333393 291.397154,58.0166119 291.397154,58.0166119 Z" id="Shape"></path>
                <path d="M215.5,0 C131.834898,0 64,36.7268501 64,82 C64,127.27315 131.834898,164 215.5,164 C299.165102,164 367,127.304921 367,82 C367,36.7268501 299.165102,0 215.5,0 Z M147.665102,105.732662 L131.525714,105.605579 L126.980714,127.400232 L109.697347,127.400232 L125.280204,45.4002325 C125.280204,45.4002325 147.417755,45.6861682 161.949388,45.4002325 C176.48102,45.1142968 190.765306,55.6621465 184.086939,79.5536614 C176.048163,108.083688 147.665102,105.732662 147.665102,105.732662 Z M225.362959,105.732662 C225.362959,105.732662 229.50602,86.6702828 231.330204,73.4537001 C232.072245,68.0209221 235.349592,58.7756683 226.692449,58.7756683 C219.457551,58.7438977 208.636122,58.7121271 208.636122,58.7121271 L199.515204,105.764432 L182.417347,105.764432 L198.371224,23.3831848 L215.87102,23.3831848 L211.480612,45.4002325 L229.536939,45.4002325 C229.536939,45.4002325 253.467755,43.4622239 250.623265,63.7636575 C247.778776,84.065091 242.460816,105.732662 242.460816,105.732662 L225.362959,105.732662 Z M320.251429,79.585432 C312.27449,108.083688 283.86051,105.732662 283.86051,105.732662 L267.721122,105.605579 L263.176122,127.400232 L245.892755,127.400232 L261.475612,45.4002325 C261.475612,45.4002325 283.613163,45.6861682 298.144796,45.4002325 C312.64551,45.1142968 326.929796,55.6621465 320.251429,79.585432 Z" id="Shape"></path>
            </g>
            <g id="Letters" transform="translate(148.000000, 351.000000)" fill="#EFEFEF">
                <path d="M44.6777344,17.8710938 C42.3144413,15.9570217 39.0039275,15 34.7460938,15 L17.9296875,15 L17.9296875,40.4296875 L34.7460938,40.4296875 C39.0039275,40.4296875 42.3144413,39.3945416 44.6777344,37.3242188 C47.0410274,35.2538959 48.2226562,31.9726787 48.2226562,27.4804688 C48.2226562,22.9882588 47.0410274,19.7851658 44.6777344,17.8710938 Z M58.359375,48.984375 C53.2030992,53.2031461 45.8398916,55.3125 36.2695312,55.3125 L17.9296875,55.3125 L17.9296875,86.3671875 L0,86.3671875 L0,0 L37.6171875,0 C46.2891059,0 53.2030992,2.22654023 58.359375,6.6796875 C63.5156508,11.1328348 66.09375,18.0272971 66.09375,27.3632812 C66.09375,37.5586447 63.5156508,44.7656039 58.359375,48.984375 Z M126.248047,22.9101563 C129.470719,24.2773506 132.117177,26.3671734 134.1875,29.1796875 C135.945321,31.5625119 137.019529,34.0136593 137.410156,36.5332031 C137.800783,39.052747 137.996094,43.164034 137.996094,48.8671875 L137.996094,86.3671875 L120.945312,86.3671875 L120.945312,47.5195313 C120.945312,44.0820141 120.359381,41.3086043 119.1875,39.1992188 C117.664055,36.2304539 114.773459,34.7460938 110.515625,34.7460938 C106.10154,34.7460938 102.751965,36.2206884 100.466797,39.1699219 C98.1816292,42.1191554 97.0390625,46.3280977 97.0390625,51.796875 L97.0390625,86.3671875 L80.3984375,86.3671875 L80.3984375,0.29296875 L97.0390625,0.29296875 L97.0390625,30.8203125 C99.4609496,27.1093564 102.263656,24.5214917 105.447266,23.0566406 C108.630875,21.5917896 111.980451,20.859375 115.496094,20.859375 C119.441426,20.859375 123.025375,21.5429619 126.248047,22.9101563 Z M196.216797,41.3671875 C193.970692,37.5781061 190.32815,35.6835938 185.289062,35.6835938 C179.234345,35.6835938 175.07423,38.5546588 172.808594,44.296875 C171.636713,47.3437652 171.050781,51.2109141 171.050781,55.8984375 C171.050781,63.3203496 173.023418,68.5351412 176.96875,71.5429688 C179.312512,73.30079 182.085921,74.1796875 185.289062,74.1796875 C189.937523,74.1796875 193.48241,72.3828305 195.923828,68.7890625 C198.365247,65.1952945 199.585938,60.4101861 199.585938,54.4335938 C199.585938,49.5116941 198.462902,45.1562689 196.216797,41.3671875 Z M209.048828,29.3554687 C214.224635,34.8633088 216.8125,42.9491654 216.8125,53.6132812 C216.8125,64.8633375 214.283228,73.4374705 209.224609,79.3359375 C204.16599,85.2344045 197.652384,88.1835938 189.683594,88.1835938 C184.605443,88.1835938 180.386736,86.9140752 177.027344,84.375 C175.191397,82.968743 173.39454,80.9179822 171.636719,78.2226562 L171.636719,111.503906 L155.113281,111.503906 L155.113281,22.5 L171.109375,22.5 L171.109375,31.9335937 C172.906259,29.1601424 174.820302,26.9726643 176.851562,25.3710937 C180.562519,22.519517 184.976537,21.09375 190.09375,21.09375 C197.554725,21.09375 203.873021,23.8476287 209.048828,29.3554687 Z" id="Php"></path>
            </g>
        </g>
    </g>
</svg>