<?xml version="1.0" encoding="UTF-8" standalone="no"?>
<svg width="512px" height="513px" viewBox="0 0 512 513" version="1.1" xmlns="http://www.w3.org/2000/svg" xmlns:xlink="http://www.w3.org/1999/xlink">
    <!-- Generator: Sketch 46.2 (44496) - http://www.bohemiancoding.com/sketch -->
    <title>Php</title>
    <desc>Created with Sketch.</desc>
    <defs></defs>
    <g id="Page-1" stroke="none" stroke-width="1" fill="none" fill-rule="evenodd">
        <g id="Php">
            <path d="M512,256 C512,275.508 509.816,294.494 505.689,312.738 C499.273,341.086 488.156,367.647 473.193,391.555 C472.556,392.579 471.908,393.603 471.25,394.627 C425.681,465.251 346.3,512 256,512 C165.7,512 86.319,465.251 40.751,394.627 C20.929,363.928 7.502,328.715 2.351,290.858 C1.16,282.123 0.418,273.241 0.136,264.234 C0.042,261.496 0,258.759 0,256 C0,231.1 3.553,207.036 10.177,184.278 C12.831,175.177 15.976,166.285 19.592,157.633 C25.454,143.527 32.559,130.069 40.751,117.373 C86.319,46.749 165.7,0 256,0 C346.3,0 425.681,46.749 471.249,117.373 C481.614,133.433 490.235,150.726 496.839,168.991 C499.963,177.664 502.649,186.556 504.843,195.636 C506.954,204.35 508.615,213.243 509.796,222.281 C510.956,231.027 511.656,239.919 511.907,248.926 C511.969,251.277 512,253.628 512,256 Z" id="Shape" fill="#5C5E70" fill-rule="nonzero"></path>
            <path d="M471.249,127.76 L471.249,394.627 C425.681,465.251 346.3,512 256,512 C165.7,512 86.319,465.251 40.751,394.627 L40.751,22.8 C40.751,10.209 50.96,0 63.551,0 L343.49,0 L471.249,127.76 Z" id="Shape" fill="#F9EED7" fill-rule="nonzero"></path>
            <path d="M343.489,104.958 L343.489,0 L471.249,127.76 L366.291,127.76 C353.698,127.76 343.489,117.551 343.489,104.958 Z" id="Shape" fill="#E8DBC4" fill-rule="nonzero"></path>
            <g id="Symbol" transform="translate(41.000000, 127.000000)" fill-rule="nonzero" fill="#8892BF">
                <path d="M430.498,204 L430.498,267.666 C384.93,338.29 305.549,385.039 215.249,385.039 C124.949,385.039 45.568,338.29 0,267.666 L0,204 L430.498,204 L430.498,204 Z" id="Shape"></path>
                <path d="M155.399133,58.0166119 L139.522825,58.0166119 L133,92.621465 L147.830195,92.621465 C147.830195,92.621465 165.891035,93.0972421 166.721772,70.1965052 C167.583277,57.0333393 155.399133,58.0166119 155.399133,58.0166119 Z" id="Shape"></path>
                <path d="M291.397154,58.0166119 L275.522248,58.0166119 L269,92.621465 L283.828885,92.621465 C283.828885,92.621465 301.888129,93.0972421 302.718792,70.1965052 C303.610987,57.0333393 291.397154,58.0166119 291.397154,58.0166119 Z" id="Shape"></path>
                <path d="M215.5,0 C131.834898,0 64,36.7268501 64,82 C64,127.27315 131.834898,164 215.5,164 C299.165102,164 367,127.304921 367,82 C367,36.7268501 299.165102,0 215.5,0 Z M147.665102,105.732662 L131.525714,105.605579 L126.980714,127.400232 L109.697347,127.400232 L125.280204,45.4002325 C125.280204,45.4002325 147.417755,45.6861682 161.949388,45.4002325 C176.48102,45.1142968 190.765306,55.6621465 184.086939,79.5536614 C176.048163,108.083688 147.665102,105.732662 147.665102,105.732662 Z M225.362959,105.732662 C225.362959,105.732662 229.50602,86.6702828 231.330204,73.4537001 C232.072245,68.0209221 235.349592,58.7756683 226.692449,58.7756683 C219.457551,58.7438977 208.636122,58.7121271 208.636122,58.7121271 L199.515204,105.764432 L182.417347,105.764432 L198.371224,23.3831848 L215.87102,23.3831848 L211.480612,45.4002325 L229.536939,45.4002325 C229.536939,45.4002325 253.467755,43.4622239 250.623265,63.7636575 C247.778776,84.065091 242.460816,105.732662 242.460816,105.732662 L225.362959,105.732662 Z M320.251429,79.585432 C312.27449,108.083688 283.86051,105.732662 283.86051,105.732662 L267.721122,105.605579 L263.176122,127.400232 L245.892755,127.400232 L261.475612,45.4002325 C261.475612,45.4002325 283.613163,45.6861682 298.144796,45.4002325 C312.64551,45.1142968 326.929796,55.6621465 320.251429,79.585432 Z" id="Shape"></path>
            </g>
            <g id="Letters" transform="translate(147.000000, 355.000000)" fill="#F9EED7">
                <path d="M33.3398438,53.90625 L17.4023438,53.90625 L17.4023438,78.2226562 C17.4023438,81.6992361 16.5820395,84.3359285 14.9414062,86.1328125 C13.300773,87.9296965 11.2304812,88.828125 8.73046875,88.828125 C6.11326816,88.828125 4.00391426,87.939462 2.40234375,86.1621094 C0.800773242,84.3847567 0,81.7773609 0,78.3398438 L0,12.1289062 C0,8.30076211 0.878897461,5.56641445 2.63671875,3.92578125 C4.39454004,2.28514805 7.18748086,1.46484375 11.015625,1.46484375 L33.3398438,1.46484375 C39.9414393,1.46484375 45.0195135,1.97265117 48.5742188,2.98828125 C52.0898613,3.96484863 55.1269403,5.58592617 57.6855469,7.8515625 C60.2441534,10.1171988 62.1874934,12.8906086 63.515625,16.171875 C64.8437566,19.4531414 65.5078125,23.1445107 65.5078125,27.2460938 C65.5078125,35.9961375 62.812527,42.6269306 57.421875,47.1386719 C52.031223,51.6504132 44.0039596,53.90625 33.3398438,53.90625 Z M29.1210938,14.53125 L17.4023438,14.53125 L17.4023438,40.78125 L29.1210938,40.78125 C33.2226768,40.78125 36.6503769,40.3515668 39.4042969,39.4921875 C42.1582169,38.6328082 44.2578053,37.2265723 45.703125,35.2734375 C47.1484447,33.3203027 47.8710938,30.7617346 47.8710938,27.5976562 C47.8710938,23.8085748 46.7578236,20.7226682 44.53125,18.3398438 C42.0312375,15.8007686 36.8945701,14.53125 29.1210938,14.53125 Z M97.3345975,9.7265625 L97.3345975,33.4570312 C99.3658577,31.1132695 101.34826,29.2578193 103.281863,27.890625 C105.215467,26.5234307 107.354117,25.4980503 109.697879,24.8144531 C112.04164,24.130856 114.561147,23.7890625 117.256473,23.7890625 C121.318993,23.7890625 124.922472,24.6484289 128.067019,26.3671875 C131.211566,28.0859461 133.682245,30.5859211 135.479129,33.8671875 C136.611947,35.7812596 137.373658,37.9199101 137.764285,40.2832031 C138.154912,42.6464962 138.350223,45.3710783 138.350223,48.4570312 L138.350223,79.1015625 C138.350223,82.3047035 137.617808,84.7265543 136.152957,86.3671875 C134.688106,88.0078207 132.744766,88.828125 130.322879,88.828125 C125.049415,88.828125 122.412723,85.5859699 122.412723,79.1015625 L122.412723,52.0898437 C122.412723,46.9726307 121.651011,43.0371231 120.127566,40.2832031 C118.604121,37.5292831 115.713525,36.1523437 111.455691,36.1523437 C108.604114,36.1523437 106.035781,36.9628825 103.750613,38.5839844 C101.465445,40.2050862 99.7564782,42.4218609 98.62366,45.234375 C97.7642807,47.6171994 97.3345975,51.8554383 97.3345975,57.9492187 L97.3345975,79.1015625 C97.3345975,82.2656408 96.621714,84.6777261 95.1959256,86.3378906 C93.7701372,87.9980552 91.7877352,88.828125 89.24866,88.828125 C83.9751961,88.828125 81.3385037,85.5859699 81.3385037,79.1015625 L81.3385037,9.7265625 C81.3385037,6.48435879 82.0318562,4.05274248 83.4185819,2.43164062 C84.8053076,0.81053877 86.7486475,0 89.24866,0 C91.7877352,0 93.7701372,0.820304297 95.1959256,2.4609375 C96.621714,4.1015707 97.3345975,6.52342148 97.3345975,9.7265625 Z M171.700445,32.7539062 L171.700445,34.6875 C174.708273,30.9765439 177.833241,28.2519618 181.075445,26.5136719 C184.317649,24.7753819 187.989487,23.90625 192.09107,23.90625 C197.01297,23.90625 201.544174,25.1757686 205.68482,27.7148438 C209.825466,30.2539189 213.096917,33.9648193 215.499273,38.8476562 C217.901629,43.7304932 219.102789,49.5116854 219.102789,56.1914062 C219.102789,61.1133059 218.409436,65.634745 217.022711,69.7558594 C215.635985,73.8769737 213.731707,77.3339704 211.30982,80.1269531 C208.887933,82.9199358 206.026633,85.0683519 202.725836,86.5722656 C199.425038,88.0761794 195.880151,88.828125 192.09107,88.828125 C187.520735,88.828125 183.682882,87.9101654 180.577398,86.0742188 C177.471914,84.2382721 174.512959,81.5429865 171.700445,77.9882812 L171.700445,102.011719 C171.700445,109.043004 169.141877,112.558594 164.024664,112.558594 C161.016836,112.558594 159.024669,111.6504 158.048101,109.833984 C157.071534,108.017569 156.583257,105.371111 156.583257,101.894531 L156.583257,32.8710938 C156.583257,29.8242035 157.247313,27.5488356 158.575445,26.0449219 C159.903577,24.5410081 161.719965,23.7890625 164.024664,23.7890625 C166.2903,23.7890625 168.135985,24.5605392 169.561773,26.1035156 C170.987562,27.6464921 171.700445,29.8632668 171.700445,32.7539062 Z M203.048101,56.015625 C203.048101,51.7968539 202.403576,48.1738433 201.114507,45.1464844 C199.825439,42.1191255 198.038347,39.79493 195.753179,38.1738281 C193.468012,36.5527263 190.93874,35.7421875 188.165289,35.7421875 C183.751204,35.7421875 180.030538,37.4804514 177.003179,40.9570312 C173.97582,44.4336111 172.462164,49.5507475 172.462164,56.3085938 C172.462164,62.6758131 173.966055,67.6269354 176.973882,71.1621094 C179.98171,74.6972833 183.712141,76.4648438 188.165289,76.4648438 C190.821552,76.4648438 193.282465,75.6933671 195.548101,74.1503906 C197.813738,72.6074142 199.630126,70.2929842 200.99732,67.2070312 C202.364514,64.1210783 203.048101,60.3906469 203.048101,56.015625 Z" id="Php"></path>
            </g>
        </g>
    </g>
</svg>