<?xml version="1.0" encoding="UTF-8" standalone="no"?>
<svg width="512px" height="513px" viewBox="0 0 512 513" version="1.1" xmlns="http://www.w3.org/2000/svg" xmlns:xlink="http://www.w3.org/1999/xlink">
    <!-- Generator: Sketch 46.2 (44496) - http://www.bohemiancoding.com/sketch -->
    <title>SASS</title>
    <desc>Created with Sketch.</desc>
    <defs></defs>
    <g id="Page-1" stroke="none" stroke-width="1" fill="none" fill-rule="evenodd">
        <g id="SASS">
            <path d="M512,256 C512,275.508 509.816,294.494 505.689,312.738 C499.273,341.086 488.156,367.647 473.193,391.555 C472.556,392.579 471.908,393.603 471.25,394.627 C425.681,465.251 346.3,512 256,512 C165.7,512 86.319,465.251 40.751,394.627 C20.929,363.928 7.502,328.715 2.351,290.858 C1.16,282.123 0.418,273.241 0.136,264.234 C0.042,261.496 0,258.759 0,256 C0,231.1 3.553,207.036 10.177,184.278 C12.831,175.177 15.976,166.285 19.592,157.633 C25.454,143.527 32.559,130.069 40.751,117.373 C86.319,46.749 165.7,0 256,0 C346.3,0 425.681,46.749 471.249,117.373 C481.614,133.433 490.235,150.726 496.839,168.991 C499.963,177.664 502.649,186.556 504.843,195.636 C506.954,204.35 508.615,213.243 509.796,222.281 C510.956,231.027 511.656,239.919 511.907,248.926 C511.969,251.277 512,253.628 512,256 Z" id="Shape" fill="#5C5E70" fill-rule="nonzero"></path>
            <path d="M471.249,127.76 L471.249,394.627 C425.681,465.251 346.3,512 256,512 C165.7,512 86.319,465.251 40.751,394.627 L40.751,22.8 C40.751,10.209 50.96,0 63.551,0 L343.49,0 L471.249,127.76 Z" id="Shape" fill="#EFEFEF" fill-rule="nonzero"></path>
            <path d="M343.489,104.958 L343.489,0 L471.249,127.76 L366.291,127.76 C353.698,127.76 343.489,117.551 343.489,104.958 Z" id="Shape" fill="#DCDCDC" fill-rule="nonzero"></path>
            <g id="Symbol" transform="translate(41.000000, 101.000000)" fill-rule="nonzero" fill="#CF649B">
                <path d="M430.498,230 L430.498,293.666 C384.93,364.29 305.549,411.039 215.249,411.039 C124.949,411.039 45.568,364.29 0,293.666 L0,230 L430.498,230 L430.498,230 Z" id="Shape"></path>
                <path d="M215,0 C270.225,0 315,44.775 315,100 C315,155.225 270.225,200 215,200 C159.775,200 115,155.225 115,100 C115,44.775 159.775,0 215,0 Z M195.00013,133 C196.438941,138.365792 196.282727,143.382184 194.802807,147.907752 L194.268391,149.405182 C194.071068,149.912645 193.840859,150.403469 193.627092,150.869336 C192.476043,153.281863 190.946792,155.528009 189.064004,157.607773 C183.325201,163.921938 175.317186,166.317827 171.880482,164.304615 C168.180681,162.125022 170.02236,153.198673 176.682002,146.085878 C183.843173,138.448983 194.112177,133.53242 194.112177,133.53242 L194.112177,133.507463 L195.00013,133 L195.00013,133 Z M276.849574,42.5020033 C272.348347,24.7341823 242.990714,18.894875 215.211001,28.7992065 C198.69266,34.6884937 180.795715,43.9430877 167.931507,56.0132108 C152.625674,70.3490851 150.192354,82.8440366 151.197241,88.0669263 C154.74341,106.484485 179.907097,118.529618 190.254936,127.467673 L190.254936,127.517653 C187.207057,129.017047 164.875324,140.254174 159.64327,151.882808 C154.037498,164.127861 160.515279,172.882657 164.750751,173.998873 C177.830885,177.630738 191.284737,171.000084 198.509954,160.262756 C205.486025,149.758667 204.871466,136.264119 201.865112,129.641795 C205.984316,128.517249 210.834346,128.017451 217.062982,128.775478 C234.511465,130.77467 237.999501,141.770228 237.24376,146.26841 C236.496323,150.758263 232.900325,153.382203 231.646293,154.1319 C230.400566,154.889927 230.026848,155.131496 230.143115,155.639624 C230.267688,156.389321 230.898857,156.389321 231.887133,156.264371 C233.257433,156.014472 240.989246,152.515886 241.362964,144.010989 C241.736682,133.265331 231.513415,121.278507 213.334105,121.520076 C205.859743,121.653356 201.117676,122.278103 197.762517,123.652548 C197.513372,123.2777 197.255922,123.027801 196.890508,122.777901 C185.678965,110.657799 164.875324,102.161232 165.747333,86.0427442 C165.996478,80.170117 168.114214,64.6847071 205.610598,45.9422799 C236.380055,30.5651597 260.929183,34.8217731 265.164655,44.1929867 C271.252108,57.5542548 252.076216,82.4275382 220.061031,86.0427442 C207.852906,87.4171888 201.499698,82.6774373 199.871948,80.9198141 C198.136235,79.0455714 197.88709,78.9206218 197.264227,79.3038004 C196.267645,79.8035984 196.890508,81.4279421 197.264227,82.4275382 C198.260808,84.9265285 202.122562,89.2997615 208.857793,91.5488528 C214.704405,93.4230955 229.038571,94.5393112 246.229604,87.8003674 C265.530068,80.3117264 280.603365,59.4368275 276.243321,41.9438955 L276.849574,42.5020033 Z" id="Shape"></path>
            </g>
            <g id="Letters" transform="translate(94.000000, 351.000000)" fill="#EFEFEF">
                <path d="M17.2265625,62.2265625 C17.7734402,66.1718947 18.8476482,69.121084 20.4492188,71.0742187 C23.3789209,74.628924 28.398402,76.40625 35.5078125,76.40625 C39.7656463,76.40625 43.222643,75.9375047 45.8789062,75 C50.9179939,73.203116 53.4375,69.8633057 53.4375,64.9804687 C53.4375,62.128892 52.1875125,59.9218828 49.6875,58.359375 C47.1874875,56.8359299 43.2617455,55.4882871 37.9101563,54.3164062 L28.7695312,52.265625 C19.7851113,50.2343648 13.5742359,48.0273557 10.1367188,45.6445312 C4.31637715,41.6601363 1.40625,35.4297299 1.40625,26.953125 C1.40625,19.2187113 4.21872188,12.7929943 9.84375,7.67578125 C15.4687781,2.55856816 23.7304143,0 34.6289062,0 C43.7305143,0 51.4941085,2.41208525 57.9199219,7.23632812 C64.3457353,12.060571 67.7148422,19.0624541 68.0273438,28.2421875 L50.6835938,28.2421875 C50.3710922,23.046849 48.1054898,19.3554797 43.8867188,17.1679688 C41.0742047,15.722649 37.5781459,15 33.3984375,15 C28.7499768,15 25.0390764,15.9374906 22.265625,17.8125 C19.4921736,19.6875094 18.1054688,22.3046707 18.1054688,25.6640625 C18.1054688,28.7500154 19.4726426,31.0546799 22.2070312,32.578125 C23.9648525,33.5937551 27.714815,34.7851494 33.4570312,36.1523437 L48.3398438,39.7265625 C54.8633139,41.2890703 59.7851396,43.3788932 63.1054688,45.9960937 C68.2617445,50.0586141 70.8398438,55.9374615 70.8398438,63.6328125 C70.8398438,71.523477 67.8222958,78.0761458 61.7871094,83.2910156 C55.7519229,88.5058854 47.2266176,91.1132812 36.2109375,91.1132812 C24.9608813,91.1132812 16.1133135,88.5449476 9.66796875,83.4082031 C3.22262402,78.2714587 0,71.2109824 0,62.2265625 L17.2265625,62.2265625 Z M109.8125,56.25 L131.726562,56.25 L120.945312,22.265625 L109.8125,56.25 Z M110.925781,2.51953125 L131.316406,2.51953125 L161.902344,88.8867187 L142.332031,88.8867187 L136.765625,71.1328125 L104.949219,71.1328125 L98.9726562,88.8867187 L80.1054688,88.8867187 L110.925781,2.51953125 Z M187.925781,62.2265625 C188.472659,66.1718947 189.546867,69.121084 191.148438,71.0742187 C194.07814,74.628924 199.097621,76.40625 206.207031,76.40625 C210.464865,76.40625 213.921862,75.9375047 216.578125,75 C221.617213,73.203116 224.136719,69.8633057 224.136719,64.9804687 C224.136719,62.128892 222.886731,59.9218828 220.386719,58.359375 C217.886706,56.8359299 213.960964,55.4882871 208.609375,54.3164062 L199.46875,52.265625 C190.48433,50.2343648 184.273455,48.0273557 180.835938,45.6445312 C175.015596,41.6601363 172.105469,35.4297299 172.105469,26.953125 C172.105469,19.2187113 174.917941,12.7929943 180.542969,7.67578125 C186.167997,2.55856816 194.429633,0 205.328125,0 C214.429733,0 222.193327,2.41208525 228.619141,7.23632812 C235.044954,12.060571 238.414061,19.0624541 238.726562,28.2421875 L221.382812,28.2421875 C221.070311,23.046849 218.804709,19.3554797 214.585938,17.1679688 C211.773423,15.722649 208.277365,15 204.097656,15 C199.449196,15 195.738295,15.9374906 192.964844,17.8125 C190.191392,19.6875094 188.804688,22.3046707 188.804688,25.6640625 C188.804688,28.7500154 190.171861,31.0546799 192.90625,32.578125 C194.664071,33.5937551 198.414034,34.7851494 204.15625,36.1523437 L219.039062,39.7265625 C225.562533,41.2890703 230.484358,43.3788932 233.804688,45.9960937 C238.960963,50.0586141 241.539062,55.9374615 241.539062,63.6328125 C241.539062,71.523477 238.521515,78.0761458 232.486328,83.2910156 C226.451142,88.5058854 217.925836,91.1132812 206.910156,91.1132812 C195.6601,91.1132812 186.812532,88.5449476 180.367188,83.4082031 C173.921843,78.2714587 170.699219,71.2109824 170.699219,62.2265625 L187.925781,62.2265625 Z M269.964844,62.2265625 C270.511721,66.1718947 271.585929,69.121084 273.1875,71.0742187 C276.117202,74.628924 281.136683,76.40625 288.246094,76.40625 C292.503928,76.40625 295.960924,75.9375047 298.617188,75 C303.656275,73.203116 306.175781,69.8633057 306.175781,64.9804687 C306.175781,62.128892 304.925794,59.9218828 302.425781,58.359375 C299.925769,56.8359299 296.000027,55.4882871 290.648438,54.3164062 L281.507812,52.265625 C272.523393,50.2343648 266.312517,48.0273557 262.875,45.6445312 C257.054658,41.6601363 254.144531,35.4297299 254.144531,26.953125 C254.144531,19.2187113 256.957003,12.7929943 262.582031,7.67578125 C268.207059,2.55856816 276.468696,0 287.367188,0 C296.468796,0 304.23239,2.41208525 310.658203,7.23632812 C317.084017,12.060571 320.453123,19.0624541 320.765625,28.2421875 L303.421875,28.2421875 C303.109373,23.046849 300.843771,19.3554797 296.625,17.1679688 C293.812486,15.722649 290.316427,15 286.136719,15 C281.488258,15 277.777358,15.9374906 275.003906,17.8125 C272.230455,19.6875094 270.84375,22.3046707 270.84375,25.6640625 C270.84375,28.7500154 272.210924,31.0546799 274.945312,32.578125 C276.703134,33.5937551 280.453096,34.7851494 286.195312,36.1523437 L301.078125,39.7265625 C307.601595,41.2890703 312.523421,43.3788932 315.84375,45.9960937 C321.000026,50.0586141 323.578125,55.9374615 323.578125,63.6328125 C323.578125,71.523477 320.560577,78.0761458 314.525391,83.2910156 C308.490204,88.5058854 299.964899,91.1132812 288.949219,91.1132812 C277.699163,91.1132812 268.851595,88.5449476 262.40625,83.4082031 C255.960905,78.2714587 252.738281,71.2109824 252.738281,62.2265625 L269.964844,62.2265625 Z" id="SASS"></path>
            </g>
        </g>
    </g>
</svg>