<?xml version="1.0" encoding="UTF-8" standalone="no"?>
<svg width="512px" height="513px" viewBox="0 0 512 513" version="1.1" xmlns="http://www.w3.org/2000/svg" xmlns:xlink="http://www.w3.org/1999/xlink">
    <!-- Generator: Sketch 46.2 (44496) - http://www.bohemiancoding.com/sketch -->
    <title>SASS</title>
    <desc>Created with Sketch.</desc>
    <defs></defs>
    <g id="Page-1" stroke="none" stroke-width="1" fill="none" fill-rule="evenodd">
        <g id="SASS">
            <g id="CSS">
                <path d="M512,256 C512,275.508 509.816,294.494 505.689,312.738 C499.273,341.086 488.156,367.647 473.193,391.555 C472.556,392.579 471.908,393.603 471.25,394.627 C425.681,465.251 346.3,512 256,512 C165.7,512 86.319,465.251 40.751,394.627 C20.929,363.928 7.502,328.715 2.351,290.858 C1.16,282.123 0.418,273.241 0.136,264.234 C0.042,261.496 0,258.759 0,256 C0,231.1 3.553,207.036 10.177,184.278 C12.831,175.177 15.976,166.285 19.592,157.633 C25.454,143.527 32.559,130.069 40.751,117.373 C86.319,46.749 165.7,0 256,0 C346.3,0 425.681,46.749 471.249,117.373 C481.614,133.433 490.235,150.726 496.839,168.991 C499.963,177.664 502.649,186.556 504.843,195.636 C506.954,204.35 508.615,213.243 509.796,222.281 C510.956,231.027 511.656,239.919 511.907,248.926 C511.969,251.277 512,253.628 512,256 Z" id="Shape" fill="#5C5E70" fill-rule="nonzero"></path>
                <path d="M471.249,127.76 L471.249,394.627 C425.681,465.251 346.3,512 256,512 C165.7,512 86.319,465.251 40.751,394.627 L40.751,22.8 C40.751,10.209 50.96,0 63.551,0 L343.49,0 L471.249,127.76 Z" id="Shape" fill="#F9EED7" fill-rule="nonzero"></path>
                <path d="M343.489,104.958 L343.489,0 L471.249,127.76 L366.291,127.76 C353.698,127.76 343.489,117.551 343.489,104.958 Z" id="Shape" fill="#E8DBC4" fill-rule="nonzero"></path>
                <g id="Symbol" transform="translate(41.000000, 101.000000)" fill-rule="nonzero" fill="#CF649B">
                    <path d="M430.498,230 L430.498,293.666 C384.93,364.29 305.549,411.039 215.249,411.039 C124.949,411.039 45.568,364.29 0,293.666 L0,230 L430.498,230 L430.498,230 Z" id="Shape"></path>
                    <path d="M215,0 C270.225,0 315,44.775 315,100 C315,155.225 270.225,200 215,200 C159.775,200 115,155.225 115,100 C115,44.775 159.775,0 215,0 Z M195.00013,133 C196.438941,138.365792 196.282727,143.382184 194.802807,147.907752 L194.268391,149.405182 C194.071068,149.912645 193.840859,150.403469 193.627092,150.869336 C192.476043,153.281863 190.946792,155.528009 189.064004,157.607773 C183.325201,163.921938 175.317186,166.317827 171.880482,164.304615 C168.180681,162.125022 170.02236,153.198673 176.682002,146.085878 C183.843173,138.448983 194.112177,133.53242 194.112177,133.53242 L194.112177,133.507463 L195.00013,133 L195.00013,133 Z M276.849574,42.5020033 C272.348347,24.7341823 242.990714,18.894875 215.211001,28.7992065 C198.69266,34.6884937 180.795715,43.9430877 167.931507,56.0132108 C152.625674,70.3490851 150.192354,82.8440366 151.197241,88.0669263 C154.74341,106.484485 179.907097,118.529618 190.254936,127.467673 L190.254936,127.517653 C187.207057,129.017047 164.875324,140.254174 159.64327,151.882808 C154.037498,164.127861 160.515279,172.882657 164.750751,173.998873 C177.830885,177.630738 191.284737,171.000084 198.509954,160.262756 C205.486025,149.758667 204.871466,136.264119 201.865112,129.641795 C205.984316,128.517249 210.834346,128.017451 217.062982,128.775478 C234.511465,130.77467 237.999501,141.770228 237.24376,146.26841 C236.496323,150.758263 232.900325,153.382203 231.646293,154.1319 C230.400566,154.889927 230.026848,155.131496 230.143115,155.639624 C230.267688,156.389321 230.898857,156.389321 231.887133,156.264371 C233.257433,156.014472 240.989246,152.515886 241.362964,144.010989 C241.736682,133.265331 231.513415,121.278507 213.334105,121.520076 C205.859743,121.653356 201.117676,122.278103 197.762517,123.652548 C197.513372,123.2777 197.255922,123.027801 196.890508,122.777901 C185.678965,110.657799 164.875324,102.161232 165.747333,86.0427442 C165.996478,80.170117 168.114214,64.6847071 205.610598,45.9422799 C236.380055,30.5651597 260.929183,34.8217731 265.164655,44.1929867 C271.252108,57.5542548 252.076216,82.4275382 220.061031,86.0427442 C207.852906,87.4171888 201.499698,82.6774373 199.871948,80.9198141 C198.136235,79.0455714 197.88709,78.9206218 197.264227,79.3038004 C196.267645,79.8035984 196.890508,81.4279421 197.264227,82.4275382 C198.260808,84.9265285 202.122562,89.2997615 208.857793,91.5488528 C214.704405,93.4230955 229.038571,94.5393112 246.229604,87.8003674 C265.530068,80.3117264 280.603365,59.4368275 276.243321,41.9438955 L276.849574,42.5020033 Z" id="Shape"></path>
                </g>
                <g id="Letters" transform="translate(91.000000, 346.000000)" fill="#F9EED7">
                    <path d="M69.7537531,62.9280639 C69.7537531,68.2369598 68.3866331,73.0069112 65.6523521,77.2380613 C62.9180712,81.4692114 58.916501,84.7822321 53.6475217,87.1772227 C48.3785423,89.5722133 42.1317021,90.7696907 34.9068138,90.7696907 C26.244931,90.7696907 19.0999828,89.1331383 13.4717549,85.8599845 C9.48010385,83.5049103 6.23693603,80.3615323 3.74215413,76.429756 C1.24737224,72.4979798 0,68.6760312 0,64.9637958 C0,62.8083042 0.748423342,60.9621933 2.24529248,59.4254076 C3.74216162,57.888622 5.6481464,57.1202407 7.963304,57.1202407 C9.83937998,57.1202407 11.4260375,57.7189794 12.7233241,58.9164747 C14.0206106,60.11397 15.1282772,61.8902281 16.0463569,64.2453022 C17.1640192,67.0394579 18.3714755,69.3745387 19.6687621,71.2506147 C20.9660487,73.1266907 22.7922017,74.6734323 25.1472758,75.8908858 C27.5023499,77.1083394 30.595833,77.7170571 34.427818,77.7170571 C39.6967974,77.7170571 43.9777789,76.4896428 47.270891,74.0347774 C50.5640031,71.579912 52.2105345,68.5163658 52.2105345,64.8440468 C52.2105345,61.9301416 51.3224054,59.5651238 49.5461207,57.7489226 C47.769836,55.9327214 45.4746711,54.5456434 42.6605571,53.5876472 C39.8464431,52.629651 36.0843685,51.6117952 31.3742203,50.5340494 C25.0674116,49.0571385 19.7885323,47.3307754 15.537424,45.3549081 C11.2863156,43.3790408 7.91342108,40.6847168 5.41863919,37.2718552 C2.92385729,33.8589935 1.67648505,29.6179279 1.67648505,24.5485311 C1.67648505,19.7186334 2.99371013,15.4276729 5.62819982,11.6755209 C8.2626895,7.92336893 12.0746591,5.03944431 17.0642229,3.02366054 C22.0537866,1.00787677 27.9214256,0 34.6673159,0 C40.0560448,0 44.7162275,0.668591519 48.6480037,2.00579462 C52.57978,3.34299771 55.8429058,5.11925578 58.437479,7.3346221 C61.0320521,9.54998843 62.9280579,11.8750903 64.1255532,14.3099974 C65.3230486,16.7449045 65.9217872,19.1199013 65.9217872,21.4350589 C65.9217872,23.5506339 65.1733639,25.4566187 63.6764947,27.1530704 C62.1796256,28.8495221 60.3135567,29.6977352 58.0782322,29.6977352 C56.0424901,29.6977352 54.4957486,29.1888073 53.437961,28.1709363 C52.3801735,27.1530653 51.2325911,25.486576 49.9951792,23.1714184 C48.3985188,19.858348 46.4825551,17.2737928 44.2472305,15.417675 C42.0119059,13.5615573 38.4194739,12.6335124 33.4698266,12.6335124 C28.8794279,12.6335124 25.1772271,13.6413891 22.3631131,15.6571729 C19.5489991,17.6729567 18.1419632,20.0978483 18.1419632,22.9319205 C18.1419632,24.688247 18.6209542,26.2050516 19.5789504,27.48238 C20.5369467,28.7597083 21.8541718,29.8573959 23.5306652,30.7754756 C25.2071586,31.6935553 26.9035849,32.4120417 28.6199948,32.9309564 C30.3364048,33.449871 33.1704345,34.2082733 37.122169,35.2061861 C42.0718163,36.3637649 46.5523774,37.6410741 50.5639867,39.0381519 C54.5755959,40.4352298 57.9884064,42.131656 60.8025204,44.1274815 C63.6166343,46.1233071 65.8120095,48.6479885 67.3887116,51.7016015 C68.9654138,54.7552146 69.7537531,58.4973313 69.7537531,62.9280639 Z M143.829073,79.3336676 L139.637861,68.3167659 L103.952679,68.3167659 L99.7614663,79.5731655 C98.1248894,83.9639816 96.7278325,86.9277381 95.5702537,88.4645237 C94.4126749,90.0013094 92.5166691,90.7696907 89.8821794,90.7696907 C87.6468548,90.7696907 85.6710172,89.9514145 83.9546072,88.3148376 C82.2381973,86.6782606 81.3800052,84.8221707 81.3800052,82.7465122 C81.3800052,81.5490169 81.5795847,80.3116236 81.9787498,79.0342953 C82.3779149,77.756967 83.0365275,75.9807089 83.9546072,73.7054678 L106.407532,16.7049761 C107.046196,15.0683991 107.814577,13.1025405 108.712699,10.8073411 C109.61082,8.51214179 110.568802,6.60615702 111.586673,5.08932962 C112.604544,3.57250223 113.941727,2.34508795 115.598263,1.40704995 C117.254798,0.469011961 119.300488,0 121.735395,0 C124.210219,0 126.275867,0.469011961 127.932403,1.40704995 C129.588938,2.34508795 130.926121,3.55254427 131.943992,5.02945516 C132.961863,6.50636604 133.820055,8.09302352 134.518594,9.78947521 C135.217133,11.4859269 136.105262,13.7511549 137.183008,16.5852271 L160.114928,73.2264721 C161.911171,77.5374552 162.809279,80.6708543 162.809279,82.6267633 C162.809279,84.6625053 161.961066,86.5285742 160.264614,88.2250259 C158.568163,89.9214776 156.522472,90.7696907 154.127482,90.7696907 C152.730404,90.7696907 151.532926,90.5202162 150.535014,90.0212598 C149.537101,89.5223035 148.698867,88.843733 148.020286,87.985528 C147.341705,87.127323 146.61324,85.8100979 145.834868,84.0338132 C145.056496,82.2575285 144.387905,80.690829 143.829073,79.3336676 Z M108.622887,54.9647599 L134.847903,54.9647599 L121.615646,18.7407079 L108.622887,54.9647599 Z M245.386774,62.9280639 C245.386774,68.2369598 244.019654,73.0069112 241.285373,77.2380613 C238.551092,81.4692114 234.549522,84.7822321 229.280542,87.1772227 C224.011563,89.5722133 217.764723,90.7696907 210.539834,90.7696907 C201.877952,90.7696907 194.733003,89.1331383 189.104775,85.8599845 C185.113124,83.5049103 181.869957,80.3615323 179.375175,76.429756 C176.880393,72.4979798 175.633021,68.6760312 175.633021,64.9637958 C175.633021,62.8083042 176.381444,60.9621933 177.878313,59.4254076 C179.375182,57.888622 181.281167,57.1202407 183.596325,57.1202407 C185.472401,57.1202407 187.059058,57.7189794 188.356345,58.9164747 C189.653631,60.11397 190.761298,61.8902281 191.679378,64.2453022 C192.79704,67.0394579 194.004496,69.3745387 195.301783,71.2506147 C196.599069,73.1266907 198.425222,74.6734323 200.780296,75.8908858 C203.13537,77.1083394 206.228854,77.7170571 210.060839,77.7170571 C215.329818,77.7170571 219.6108,76.4896428 222.903912,74.0347774 C226.197024,71.579912 227.843555,68.5163658 227.843555,64.8440468 C227.843555,61.9301416 226.955426,59.5651238 225.179141,57.7489226 C223.402857,55.9327214 221.107692,54.5456434 218.293578,53.5876472 C215.479464,52.629651 211.717389,51.6117952 207.007241,50.5340494 C200.700432,49.0571385 195.421553,47.3307754 191.170445,45.3549081 C186.919336,43.3790408 183.546442,40.6847168 181.05166,37.2718552 C178.556878,33.8589935 177.309506,29.6179279 177.309506,24.5485311 C177.309506,19.7186334 178.626731,15.4276729 181.26122,11.6755209 C183.89571,7.92336893 187.70768,5.03944431 192.697243,3.02366054 C197.686807,1.00787677 203.554446,0 210.300336,0 C215.689065,0 220.349248,0.668591519 224.281024,2.00579462 C228.212801,3.34299771 231.475926,5.11925578 234.0705,7.3346221 C236.665073,9.54998843 238.561079,11.8750903 239.758574,14.3099974 C240.956069,16.7449045 241.554808,19.1199013 241.554808,21.4350589 C241.554808,23.5506339 240.806384,25.4566187 239.309515,27.1530704 C237.812646,28.8495221 235.946577,29.6977352 233.711253,29.6977352 C231.675511,29.6977352 230.128769,29.1888073 229.070982,28.1709363 C228.013194,27.1530653 226.865612,25.486576 225.6282,23.1714184 C224.031539,19.858348 222.115576,17.2737928 219.880251,15.417675 C217.644926,13.5615573 214.052494,12.6335124 209.102847,12.6335124 C204.512448,12.6335124 200.810248,13.6413891 197.996134,15.6571729 C195.18202,17.6729567 193.774984,20.0978483 193.774984,22.9319205 C193.774984,24.688247 194.253975,26.2050516 195.211971,27.48238 C196.169967,28.7597083 197.487192,29.8573959 199.163686,30.7754756 C200.840179,31.6935553 202.536605,32.4120417 204.253015,32.9309564 C205.969425,33.449871 208.803455,34.2082733 212.75519,35.2061861 C217.704837,36.3637649 222.185398,37.6410741 226.197007,39.0381519 C230.208617,40.4352298 233.621427,42.131656 236.435541,44.1274815 C239.249655,46.1233071 241.44503,48.6479885 243.021732,51.7016015 C244.598434,54.7552146 245.386774,58.4973313 245.386774,62.9280639 Z M330,62.9280639 C330,68.2369598 328.63288,73.0069112 325.898599,77.2380613 C323.164318,81.4692114 319.162748,84.7822321 313.893769,87.1772227 C308.624789,89.5722133 302.377949,90.7696907 295.153061,90.7696907 C286.491178,90.7696907 279.34623,89.1331383 273.718002,85.8599845 C269.726351,83.5049103 266.483183,80.3615323 263.988401,76.429756 C261.493619,72.4979798 260.246247,68.6760312 260.246247,64.9637958 C260.246247,62.8083042 260.99467,60.9621933 262.491539,59.4254076 C263.988409,57.888622 265.894393,57.1202407 268.209551,57.1202407 C270.085627,57.1202407 271.672284,57.7189794 272.969571,58.9164747 C274.266858,60.11397 275.374524,61.8902281 276.292604,64.2453022 C277.410266,67.0394579 278.617722,69.3745387 279.915009,71.2506147 C281.212296,73.1266907 283.038449,74.6734323 285.393523,75.8908858 C287.748597,77.1083394 290.84208,77.7170571 294.674065,77.7170571 C299.943044,77.7170571 304.224026,76.4896428 307.517138,74.0347774 C310.81025,71.579912 312.456781,68.5163658 312.456781,64.8440468 C312.456781,61.9301416 311.568652,59.5651238 309.792368,57.7489226 C308.016083,55.9327214 305.720918,54.5456434 302.906804,53.5876472 C300.09269,52.629651 296.330615,51.6117952 291.620467,50.5340494 C285.313659,49.0571385 280.034779,47.3307754 275.783671,45.3549081 C271.532563,43.3790408 268.159668,40.6847168 265.664886,37.2718552 C263.170104,33.8589935 261.922732,29.6179279 261.922732,24.5485311 C261.922732,19.7186334 263.239957,15.4276729 265.874447,11.6755209 C268.508936,7.92336893 272.320906,5.03944431 277.31047,3.02366054 C282.300034,1.00787677 288.167673,0 294.913563,0 C300.302292,0 304.962474,0.668591519 308.894251,2.00579462 C312.826027,3.34299771 316.089153,5.11925578 318.683726,7.3346221 C321.278299,9.54998843 323.174305,11.8750903 324.3718,14.3099974 C325.569295,16.7449045 326.168034,19.1199013 326.168034,21.4350589 C326.168034,23.5506339 325.419611,25.4566187 323.922742,27.1530704 C322.425873,28.8495221 320.559804,29.6977352 318.324479,29.6977352 C316.288737,29.6977352 314.741995,29.1888073 313.684208,28.1709363 C312.62642,27.1530653 311.478838,25.486576 310.241426,23.1714184 C308.644766,19.858348 306.728802,17.2737928 304.493477,15.417675 C302.258153,13.5615573 298.665721,12.6335124 293.716074,12.6335124 C289.125675,12.6335124 285.423474,13.6413891 282.60936,15.6571729 C279.795246,17.6729567 278.38821,20.0978483 278.38821,22.9319205 C278.38821,24.688247 278.867201,26.2050516 279.825197,27.48238 C280.783194,28.7597083 282.100419,29.8573959 283.776912,30.7754756 C285.453406,31.6935553 287.149832,32.4120417 288.866242,32.9309564 C290.582652,33.449871 293.416681,34.2082733 297.368416,35.2061861 C302.318063,36.3637649 306.798624,37.6410741 310.810234,39.0381519 C314.821843,40.4352298 318.234653,42.131656 321.048767,44.1274815 C323.862881,46.1233071 326.058256,48.6479885 327.634959,51.7016015 C329.211661,54.7552146 330,58.4973313 330,62.9280639 Z" id="SASS"></path>
                </g>
            </g>
        </g>
    </g>
</svg>