<?xml version="1.0" encoding="UTF-8" standalone="no"?>
<svg width="512px" height="513px" viewBox="0 0 512 513" version="1.1" xmlns="http://www.w3.org/2000/svg" xmlns:xlink="http://www.w3.org/1999/xlink">
    <!-- Generator: Sketch 46.2 (44496) - http://www.bohemiancoding.com/sketch -->
    <title>Sketch</title>
    <desc>Created with Sketch.</desc>
    <defs></defs>
    <g id="Page-1" stroke="none" stroke-width="1" fill="none" fill-rule="evenodd">
        <g id="Sketch">
            <g id="Page-1">
                <g>
                    <g id="Sketch">
                        <path d="M512,256 C512,275.508 509.816,294.494 505.689,312.738 C499.273,341.086 488.156,367.647 473.193,391.555 C472.556,392.579 471.908,393.603 471.25,394.627 C425.681,465.251 346.3,512 256,512 C165.7,512 86.319,465.251 40.751,394.627 C20.929,363.928 7.502,328.715 2.351,290.858 C1.16,282.123 0.418,273.241 0.136,264.234 C0.042,261.496 0,258.759 0,256 C0,231.1 3.553,207.036 10.177,184.278 C12.831,175.177 15.976,166.285 19.592,157.633 C25.454,143.527 32.559,130.069 40.751,117.373 C86.319,46.749 165.7,0 256,0 C346.3,0 425.681,46.749 471.249,117.373 C481.614,133.433 490.235,150.726 496.839,168.991 C499.963,177.664 502.649,186.556 504.843,195.636 C506.954,204.35 508.615,213.243 509.796,222.281 C510.956,231.027 511.656,239.919 511.907,248.926 C511.969,251.277 512,253.628 512,256 Z" id="Shape" fill="#5C5E70" fill-rule="nonzero"></path>
                        <path d="M471.498,127.76 L471.498,394.627 C425.93,465.251 346.549,512 256.249,512 C165.949,512 86.568,465.251 41,394.627 L41,22.8 C41,10.209 51.209,0 63.8,0 L343.739,0 L471.498,127.76 Z" id="Shape" fill="#F9EED7" fill-rule="nonzero"></path>
                        <path d="M343.489,104.958 L343.489,0 L471.249,127.76 L366.291,127.76 C353.698,127.76 343.489,117.551 343.489,104.958 Z" id="Shape" fill="#E8DBC4" fill-rule="nonzero"></path>
                        <g id="Symbol" transform="translate(41.000000, 120.000000)">
                            <path d="M430.498,211 L430.498,274.666 C384.93,345.29 305.549,392.039 215.249,392.039 C124.949,392.039 45.568,345.29 0,274.666 L0,211 L430.498,211 L430.498,211 Z" id="Shape" fill="#FBA929" fill-rule="nonzero"></path>
                            <polygon id="Shape" fill="#FDB300" fill-rule="nonzero" points="158.151736 7.89162416 213.889396 2 269.627055 7.89162416 312.778792 65.8092855 213.889396 180.945602 115 65.8092855"></polygon>
                            <g id="Group" transform="translate(115.000000, 65.000000)" fill-rule="nonzero">
                                <polygon id="Shape" fill="#EA6C00" points="40.0555312 0 98.8899062 115.136902 0 0"></polygon>
                                <polygon id="Shape" fill="#EA6C00" transform="translate(148.333327, 57.568451) scale(-1, 1) translate(-148.333327, -57.568451) " points="138.943905 0 197.77828 115.136902 98.8883736 0"></polygon>
                                <polygon id="Shape" fill="#FDAD00" points="40.0555313 0 157.724281 0 98.8899062 115.136902"></polygon>
                            </g>
                            <g id="Group" transform="translate(115.000000, 2.000000)" fill-rule="nonzero">
                                <polygon id="Shape" fill="#FDD231" points="98.8899062 0 43.1521875 5.89082259 40.0555313 63.8088711"></polygon>
                                <polygon id="Shape" fill="#FDD231" transform="translate(128.305892, 31.904436) scale(-1, 1) translate(-128.305892, -31.904436) " points="157.723079 0 101.985361 5.89082259 98.8887044 63.8088711"></polygon>
                                <polygon id="Shape" fill="#FDAD00" transform="translate(176.202127, 34.849847) scale(-1, 1) translate(-176.202127, -34.849847) " points="154.626034 63.8088711 197.778221 5.89082259 194.681565 63.8088711"></polygon>
                                <polygon id="Shape" fill="#FDAD00" points="0 63.8088711 43.1521875 5.89082259 40.0555312 63.8088711"></polygon>
                                <polygon id="Shape" fill="#FEEEB7" points="98.8899062 0 40.0555313 63.8088711 157.724281 63.8088711"></polygon>
                            </g>
                            <g id="Group" transform="translate(115.000000, 0.000000)"></g>
                        </g>
                        <g id="Letters" transform="translate(81.000000, 347.000000)" fill-rule="nonzero" fill="#F9EED7">
                            <path d="M59.9201839,62.3944591 C59.9201839,67.6583376 58.7457942,72.3878418 56.39698,76.5831135 C54.0481655,80.7783851 50.6107186,84.0633127 46.0845362,86.4379947 C41.5583538,88.8126768 36.192165,90 29.9858088,90 C22.5450391,90 16.4073534,88.3773249 11.5725677,85.1319261 C8.1436416,82.7968221 5.35768094,79.6800987 3.21460214,75.7816623 C1.07152333,71.8832259 0,68.0936859 0,64.4129288 C0,62.2757149 0.642913998,60.4452582 1.92876128,58.921504 C3.21460856,57.3977496 4.85189622,56.6358839 6.84067335,56.6358839 C8.45226861,56.6358839 9.81524629,57.2295455 10.9296473,58.4168865 C12.0440482,59.6042276 12.995561,61.3654237 13.7842139,63.7005277 C14.7443133,66.4709901 15.7815479,68.7862704 16.8959489,70.646438 C18.0103499,72.5066056 19.57906,74.0402314 21.6021263,75.2473615 C23.6251927,76.4544915 26.2825706,77.0580475 29.5743397,77.0580475 C34.1005221,77.0580475 37.7779901,75.8410412 40.6068542,73.4069921 C43.4357182,70.972943 44.850129,67.9353744 44.850129,64.2941952 C44.850129,61.4049988 44.0872044,59.0600354 42.5613323,57.2592349 C41.0354601,55.4584342 39.0638573,54.0831182 36.6464644,53.1332453 C34.2290714,52.1833726 30.9973571,51.1741479 26.9512243,50.1055409 C21.5335212,48.6411537 16.9988344,46.9294293 13.3470281,44.9703166 C9.69522179,43.0112039 6.7978227,40.3397267 4.65474389,36.9558048 C2.51166509,33.5718828 1.44014176,29.3667797 1.44014176,24.3403694 C1.44014176,19.5514273 2.5716704,15.2968524 4.83476162,11.5765171 C7.09785283,7.85618193 10.3724281,4.99671184 14.6585858,2.99802111 C18.9447433,0.999330376 23.9851891,0 29.7800742,0 C34.4091244,0 38.4123356,0.662922131 41.7898278,1.98878627 C45.16732,3.31465043 47.970425,5.07584654 50.199227,7.27242745 C52.4280289,9.46900834 54.0567444,11.7743942 55.0854222,14.1886543 C56.1141,16.6029145 56.6284313,18.9577722 56.6284313,21.2532982 C56.6284313,23.350934 55.9855172,25.2407568 54.6996699,26.9228232 C53.4138226,28.6048897 51.8108238,29.4459103 49.8906251,29.4459103 C48.1418728,29.4459103 46.813184,28.9412979 45.9045185,27.9320581 C44.9958531,26.9228181 44.0100516,25.27046 42.9470845,22.974934 C41.5755141,19.6899572 39.9296542,17.127318 38.0094556,15.2869393 C36.089257,13.4465607 33.0032699,12.5263852 28.7514015,12.5263852 C24.8081365,12.5263852 21.6278552,13.5257156 19.2104624,15.5244063 C16.7930695,17.523097 15.5843912,19.9274266 15.5843912,22.737467 C15.5843912,24.4789005 15.9958562,25.9828433 16.8187984,27.2493404 C17.6417406,28.5158375 18.7732693,29.6042171 20.2134182,30.5145119 C21.6535672,31.4248067 23.110839,32.1372006 24.5852772,32.651715 C26.0597154,33.1662294 28.4942163,33.9182008 31.8888531,34.9076517 C36.1407215,36.0554147 39.9896333,37.3218928 43.4357041,38.707124 C46.8817748,40.0923552 49.8134626,41.7743965 52.2308555,43.7532982 C54.6482485,45.7321999 56.5341295,48.235473 57.8885553,51.2631926 C59.2429811,54.2909122 59.9201839,58.0012973 59.9201839,62.3944591 Z M109.305583,82.5791556 L96.9100774,59.0699208 L89.2978995,67.3812664 L89.2978995,80.2638522 C89.2978995,83.3905169 88.5864081,85.7948465 87.1634038,87.4769129 C85.7403994,89.1589794 84.1031118,90 82.2514916,90 C80.0912682,90 78.3939753,89.1688737 77.1595619,87.5065963 C75.9251485,85.8443189 75.307951,83.3905175 75.307951,80.1451187 L75.307951,11.0422164 C75.307951,7.44061524 75.9080041,4.69987747 77.1081283,2.81992084 C78.3082523,0.939964215 80.0226897,0 82.2514916,0 C84.4117151,0 86.1261524,0.850914974 87.3948551,2.55277045 C88.6635578,4.25462593 89.2978995,6.7677934 89.2978995,10.0923483 L89.2978995,49.3931398 L105.088025,30.2770449 C107.042513,27.9023628 108.534074,26.2796877 109.562751,25.408971 C110.591429,24.5382542 111.842968,24.1029024 113.317407,24.1029024 C115.066159,24.1029024 116.523431,24.7460358 117.689265,26.0323219 C118.855101,27.318608 119.438009,28.9313887 119.438009,30.8707124 C119.438009,33.2453944 117.534983,36.4115897 113.728876,40.3693931 L106.270999,48.2651716 L120.672416,74.3865436 C121.735384,76.3258672 122.498308,77.8001269 122.961214,78.8093667 C123.424118,79.8186067 123.655567,80.7783596 123.655567,81.6886544 C123.655567,84.2612266 123.046942,86.2895704 121.829673,87.7737467 C120.612405,89.2579229 119.009405,90 117.020628,90 C115.306165,90 113.986049,89.4657045 113.060239,88.3970977 C112.134428,87.3284907 110.882889,85.3891961 109.305583,82.5791556 Z M172.320896,61.0290237 L144.855335,61.0290237 C144.889624,64.709781 145.532538,67.955131 146.784096,70.7651715 C148.035655,73.575212 149.698659,75.692605 151.773159,77.1174142 C153.84766,78.5422235 156.136432,79.2546174 158.639549,79.2546174 C160.319723,79.2546174 161.854144,79.0270471 163.242859,78.5718997 C164.631574,78.1167523 165.977408,77.4043585 167.2804,76.4346965 C168.583391,75.4650347 169.783498,74.4261269 170.880753,73.3179419 C171.97801,72.209757 173.400993,70.7058142 175.149745,68.8060686 C175.86982,68.0936639 176.898482,67.7374671 178.235764,67.7374671 C179.675913,67.7374671 180.84173,68.1926076 181.73325,69.1029024 C182.624772,70.0131972 183.070525,71.2994639 183.070525,72.9617415 C183.070525,74.4261287 182.573338,76.137853 181.578949,78.0969657 C180.584562,80.0560784 179.084428,81.9360068 177.078507,83.7368074 C175.072585,85.5376079 172.552362,87.0316563 169.517763,88.2189974 C166.483163,89.4063384 162.994283,90 159.051019,90 C150.032943,90 143.020894,87.031692 138.014662,81.0949868 C133.00843,75.1582817 130.505351,67.1042724 130.505351,56.9327176 C130.505351,52.1437755 131.122549,47.7012078 132.356962,43.6048813 C133.591375,39.5085547 135.391535,35.9960569 137.757493,33.0672824 C140.123453,30.1385078 143.037996,27.892488 146.501211,26.3291556 C149.964426,24.7658234 153.804767,23.9841689 158.022345,23.9841689 C163.508627,23.9841689 168.214758,25.3199075 172.140879,27.9914248 C176.066998,30.6629422 179.007258,34.1160738 180.961747,38.3509235 C182.916234,42.5857732 183.893463,46.8997142 183.893463,51.292876 C183.893463,55.3694135 182.881945,58.0112077 180.858879,59.2183377 C178.835813,60.4254677 175.989846,61.0290237 172.320896,61.0290237 Z M144.855335,51.8271768 L170.314984,51.8271768 C169.972092,46.286252 168.677691,42.140515 166.431745,39.3898417 C164.185798,36.6391683 161.228394,35.2638522 157.559442,35.2638522 C154.061938,35.2638522 151.190256,36.6589571 148.944309,39.4492085 C146.698363,42.2394599 145.335385,46.3654081 144.855335,51.8271768 Z M198.921195,25.5277045 L200.464204,25.5277045 L200.464204,15.7915567 C200.464204,13.1794065 200.524209,11.1312739 200.644222,9.64709763 C200.764234,8.16292134 201.09855,6.88654888 201.647177,5.81794195 C202.195806,4.70975699 202.984447,3.80937021 204.013125,3.11675462 C205.041802,2.42413902 206.190476,2.07783641 207.459179,2.07783641 C209.24222,2.07783641 210.853791,2.8495965 212.29394,4.39313984 C213.25404,5.42216874 213.862665,6.67875247 214.119834,8.16292875 C214.377003,9.64710505 214.505587,11.7546037 214.505587,14.4854881 L214.505587,25.5277045 L219.64895,25.5277045 C221.637727,25.5277045 223.155004,26.0718943 224.200826,27.1602902 C225.246649,28.2486861 225.769552,29.643791 225.769552,31.3456464 C225.769552,33.5224383 225.023772,35.0461698 223.532189,35.9168866 C222.040606,36.7876033 219.906132,37.2229551 217.128701,37.2229551 L214.505587,37.2229551 L214.505587,67.025066 C214.505587,69.5580601 214.582736,71.5072491 214.737037,72.8726913 C214.891339,74.2381335 215.302804,75.3463018 215.971445,76.1972295 C216.640086,77.0481573 217.728753,77.4736148 219.23748,77.4736148 C220.060423,77.4736148 221.174808,77.3054107 222.580667,76.9689974 C223.986526,76.6325841 225.083766,76.4643799 225.87242,76.4643799 C227.003965,76.4643799 228.024056,76.988781 228.932721,78.037599 C229.841386,79.0864169 230.295711,80.3825781 230.295711,81.9261214 C230.295711,84.5382716 229.061317,86.5369324 226.59249,87.9221636 C224.123663,89.3073948 220.574778,90 215.945728,90 C211.556703,90 208.230694,89.149085 205.967603,87.4472296 C203.704512,85.7453741 202.221523,83.3905163 201.518594,80.3825858 C200.815664,77.3746552 200.464204,73.357545 200.464204,68.3311345 L200.464204,37.2229551 L198.612593,37.2229551 C196.589527,37.2229551 195.046533,36.668871 193.983566,35.560686 C192.920599,34.4525011 192.389123,33.0475019 192.389123,31.3456464 C192.389123,29.643791 192.946316,28.2486861 194.060717,27.1602902 C195.175118,26.0718943 196.79526,25.5277045 198.921195,25.5277045 Z M288.219094,69.9340369 C288.219094,71.9525167 287.696192,74.1094872 286.650368,76.4050131 C285.604546,78.7005392 284.010119,80.8871928 281.86704,82.9650396 C279.723963,85.0428863 277.023724,86.7150332 273.766244,87.9815303 C270.508764,89.2480274 266.839867,89.8812665 262.759446,89.8812665 C254.084262,89.8812665 247.312235,86.9624302 242.44316,81.1246702 C237.574085,75.2869101 235.139584,67.4604713 235.139584,57.6451187 C235.139584,50.9960089 236.253969,45.118759 238.48277,40.0131926 C240.711573,34.9076262 243.934714,30.9597765 248.152294,28.1695251 C252.369873,25.3792737 257.410318,23.9841689 263.273782,23.9841689 C266.908444,23.9841689 270.243025,24.5976192 273.277624,25.8245382 C276.312224,27.0514573 278.883879,28.634555 280.992669,30.5738786 C283.101459,32.5132023 284.713029,34.5811235 285.82743,36.7777045 C286.941832,38.9742854 287.499024,41.022418 287.499024,42.9221635 C287.499024,44.8614872 286.873254,46.5039511 285.621696,47.8496042 C284.370138,49.1952573 282.852861,49.8680739 281.069819,49.8680739 C279.903984,49.8680739 278.935328,49.5217712 278.163819,48.8291557 C277.392311,48.1365401 276.52652,47.0184774 275.566421,45.474934 C273.851958,42.4670035 272.06037,40.2110893 270.191605,38.707124 C268.322841,37.2031587 265.948345,36.4511873 263.068048,36.4511873 C258.919047,36.4511873 255.575894,38.3212214 253.038489,42.0613457 C250.501083,45.8014699 249.2324,50.9168541 249.2324,57.4076517 C249.2324,60.4551604 249.558143,63.2552643 250.20964,65.8080475 C250.861135,68.3608307 251.804076,70.5375899 253.038489,72.3383905 C254.272902,74.1391911 255.764463,75.5046128 257.513215,76.4346965 C259.261967,77.3647804 261.182138,77.8298153 263.273782,77.8298153 C266.085502,77.8298153 268.494286,77.077844 270.500207,75.5738786 C272.506129,74.0699133 274.280572,71.7744218 275.823589,68.687335 C276.680821,66.8667455 277.606616,65.4419576 278.601005,64.4129287 C279.595394,63.3838999 280.812644,62.8693931 282.252793,62.8693931 C283.967256,62.8693931 285.390239,63.6213645 286.521785,65.1253298 C287.653331,66.6292951 288.219094,68.2321815 288.219094,69.9340369 Z M313.996456,9.85488127 L313.996456,33.8984168 C315.779497,31.5237348 317.519652,29.6438064 319.216969,28.2585752 C320.914288,26.873344 322.791597,25.8344362 324.848953,25.1418206 C326.906308,24.449205 329.117933,24.1029024 331.483891,24.1029024 C335.049975,24.1029024 338.213111,24.9736061 340.973398,26.7150396 C343.733683,28.4564731 345.902446,30.9894293 347.479752,34.3139842 C348.47414,36.2533079 349.142771,38.4201728 349.485664,40.8146438 C349.828556,43.2091149 350,45.9696413 350,49.096306 L350,80.1451187 C350,83.3905175 349.357086,85.8443189 348.071239,87.5065963 C346.785391,89.1688737 345.079526,90 342.953592,90 C338.324542,90 336.010051,86.7150724 336.010051,80.1451187 L336.010051,52.7770449 C336.010051,47.5923224 335.341421,43.6048952 334.00414,40.8146438 C332.666859,38.0243924 330.129491,36.6292876 326.391961,36.6292876 C323.888846,36.6292876 321.634361,37.4505195 319.628439,39.0930079 C317.622517,40.7354963 316.122385,42.9815161 315.127996,45.8311346 C314.373633,48.2453946 313.996456,52.539547 313.996456,58.7137203 L313.996456,80.1451187 C313.996456,83.3509395 313.370687,85.7948465 312.119128,87.4769129 C310.86757,89.1589794 309.127416,90 306.898614,90 C302.269564,90 299.955074,86.7150724 299.955074,80.1451187 L299.955074,9.85488127 C299.955074,6.56990442 300.563699,4.10620874 301.780967,2.46372031 C302.998237,0.821231894 304.704102,0 306.898614,0 C309.127416,0 310.86757,0.831126253 312.119128,2.49340369 C313.370687,4.15568113 313.996456,6.60948245 313.996456,9.85488127 Z" id="Sketch"></path>
                        </g>
                    </g>
                </g>
            </g>
        </g>
    </g>
</svg>