<?xml version="1.0" encoding="UTF-8" standalone="no"?>
<svg width="512px" height="513px" viewBox="0 0 512 513" version="1.1" xmlns="http://www.w3.org/2000/svg" xmlns:xlink="http://www.w3.org/1999/xlink">
    <!-- Generator: Sketch 46.2 (44496) - http://www.bohemiancoding.com/sketch -->
    <title>Sketch</title>
    <desc>Created with Sketch.</desc>
    <defs></defs>
    <g id="Page-1" stroke="none" stroke-width="1" fill="none" fill-rule="evenodd">
        <g id="Sketch">
            <path d="M512,256 C512,275.508 509.816,294.494 505.689,312.738 C499.273,341.086 488.156,367.647 473.193,391.555 C472.556,392.579 471.908,393.603 471.25,394.627 C425.681,465.251 346.3,512 256,512 C165.7,512 86.319,465.251 40.751,394.627 C20.929,363.928 7.502,328.715 2.351,290.858 C1.16,282.123 0.418,273.241 0.136,264.234 C0.042,261.496 0,258.759 0,256 C0,231.1 3.553,207.036 10.177,184.278 C12.831,175.177 15.976,166.285 19.592,157.633 C25.454,143.527 32.559,130.069 40.751,117.373 C86.319,46.749 165.7,0 256,0 C346.3,0 425.681,46.749 471.249,117.373 C481.614,133.433 490.235,150.726 496.839,168.991 C499.963,177.664 502.649,186.556 504.843,195.636 C506.954,204.35 508.615,213.243 509.796,222.281 C510.956,231.027 511.656,239.919 511.907,248.926 C511.969,251.277 512,253.628 512,256 Z" id="Shape" fill="#5C5E70" fill-rule="nonzero"></path>
            <path d="M471.498,127.76 L471.498,394.627 C425.93,465.251 346.549,512 256.249,512 C165.949,512 86.568,465.251 41,394.627 L41,22.8 C41,10.209 51.209,0 63.8,0 L343.739,0 L471.498,127.76 Z" id="Shape" fill="#EFEFEF" fill-rule="nonzero"></path>
            <path d="M343.489,104.958 L343.489,0 L471.249,127.76 L366.291,127.76 C353.698,127.76 343.489,117.551 343.489,104.958 Z" id="Shape" fill="#DCDCDC" fill-rule="nonzero"></path>
            <g id="Symbol" transform="translate(42.000000, 122.000000)" fill-rule="nonzero">
                <path d="M430.498,209 L430.498,272.666 C384.93,343.29 305.549,390.039 215.249,390.039 C124.949,390.039 45.568,343.29 0,272.666 L0,209 L430.498,209 L430.498,209 Z" id="Shape" fill="#FBA929"></path>
                <polygon id="Shape" fill="#FDB300" points="157.151736 5.89162416 212.889396 0 268.627055 5.89162416 311.778792 63.8092855 212.889396 178.945602 114 63.8092855"></polygon>
                <g id="Group" transform="translate(114.000000, 63.000000)">
                    <polygon id="Shape" fill="#EA6C00" points="40.0555312 0 98.8899062 115.136902 0 0"></polygon>
                    <polygon id="Shape" fill="#EA6C00" transform="translate(148.333327, 57.568451) scale(-1, 1) translate(-148.333327, -57.568451) " points="138.943905 0 197.77828 115.136902 98.888374 0"></polygon>
                    <polygon id="Shape" fill="#FDAD00" points="40.0555313 0 157.724281 0 98.8899062 115.136902"></polygon>
                </g>
                <g id="Group" transform="translate(114.000000, 0.000000)">
                    <polygon id="Shape" fill="#FDD231" points="98.8899062 0 43.1521875 5.89082259 40.0555313 63.8088711"></polygon>
                    <polygon id="Shape" fill="#FDD231" transform="translate(128.305892, 31.904436) scale(-1, 1) translate(-128.305892, -31.904436) " points="157.72308 0 101.985362 5.89082259 98.888705 63.8088711"></polygon>
                    <polygon id="Shape" fill="#FDAD00" transform="translate(176.202126, 34.849847) scale(-1, 1) translate(-176.202126, -34.849847) " points="154.626033 63.8088711 197.77822 5.89082259 194.681564 63.8088711"></polygon>
                    <polygon id="Shape" fill="#FDAD00" points="0 63.8088711 43.1521875 5.89082259 40.0555312 63.8088711"></polygon>
                    <polygon id="Shape" fill="#FEEEB7" points="98.8899062 0 40.0555313 63.8088711 157.724281 63.8088711"></polygon>
                </g>
            </g>
            <g id="Letters" transform="translate(82.000000, 351.000000)" fill="#EFEFEF">
                <path d="M15.4303709,62.224322 C15.9202264,66.1695121 16.8824281,69.1185952 18.3170049,71.0716596 C20.9412308,74.6262369 25.4373369,76.4034989 31.8054584,76.4034989 C35.6193333,76.4034989 38.7158733,75.9347705 41.0951714,74.9972995 C45.6088399,73.2004803 47.8656403,69.8607902 47.8656403,64.9781291 C47.8656403,62.126655 46.7459874,59.9197253 44.506648,58.3572737 C42.2673086,56.8338834 38.7508987,55.4862892 33.9573128,54.3144505 L25.7697691,52.2637431 C17.7221431,50.2325561 12.1588677,48.0256264 9.07977607,45.6428878 C3.86631403,41.6586363 1.25962211,35.4284542 1.25962211,26.9521545 C1.25962211,19.2180193 3.77884115,12.7925337 8.81735479,7.67550487 C13.8558684,2.55847604 21.2560744,0 31.0181945,0 C39.1707895,0 46.1248837,2.4119984 51.8806858,7.23606757 C57.6364878,12.0601367 60.6543023,19.0617677 60.9342197,28.2411706 L45.3988803,28.2411706 C45.1189629,23.0460192 43.089592,19.3547828 39.3107068,17.1673506 C36.79145,15.7220829 33.6599207,14.9994599 29.9160252,14.9994599 C25.7522535,14.9994599 22.4282839,15.9369168 19.9440168,17.8118586 C17.4597497,19.6868005 16.2176347,22.3038676 16.2176347,25.6631384 C16.2176347,28.7489803 17.4422551,31.0535617 19.8915325,32.576952 C21.4660681,33.5925455 24.8250268,34.7838969 29.9685094,36.151042 L43.2995101,39.7251321 C49.1427864,41.2875837 53.5514197,43.3773313 56.5255423,45.9944376 C61.1441798,50.0568116 63.453464,55.9354474 63.453464,63.6305213 C63.453464,71.5209017 60.7505519,78.0733346 55.3446466,83.2880166 C49.9387413,88.5026987 42.3023586,91.1100006 32.4352694,91.1100006 C22.3582421,91.1100006 14.4331989,88.5417594 8.65990203,83.4051999 C2.88660514,78.2686404 0,71.2084184 0,62.224322 L15.4303709,62.224322 Z M75.846746,2.81239873 L90.5423373,2.81239873 L90.5423373,49.3341611 L109.174248,25.3115886 L127.70119,25.3115886 L107.704689,49.7443026 L128.488453,88.8835183 L110.43387,88.8835183 L96.7354794,61.5798139 L90.5423373,68.7865857 L90.5423373,88.8835183 L75.846746,88.8835183 L75.846746,2.81239873 Z M152.087124,40.72119 C150.180186,43.1429899 148.981808,46.4240889 148.491952,50.5645855 L171.742477,50.5645855 C171.49755,46.1506599 170.299171,42.8012046 168.147306,40.5161192 C165.995441,38.2310338 163.327518,37.0885083 160.143457,37.0885083 C156.679479,37.0885083 153.994061,38.2993901 152.087124,40.72119 Z M173.002099,26.3076465 C176.815974,28.2997722 179.964998,31.4441588 182.449265,35.7409006 C184.688605,39.5298456 186.140654,43.9241747 186.805458,48.9240196 C187.190345,51.8536163 187.347796,56.0721722 187.277817,61.5798139 L148.124563,61.5798139 C148.334501,67.9858653 150.136442,72.4778461 153.530441,75.0558912 C155.594832,76.657404 158.079062,77.4581484 160.983205,77.4581484 C164.062297,77.4581484 166.564021,76.4816309 168.488453,74.5285664 C169.538144,73.4739116 170.465356,72.0091353 171.270119,70.1341934 L186.543037,70.1341934 C186.158151,73.9231384 184.391198,77.7706176 181.242127,81.6767465 C176.343572,87.8874914 169.485698,90.9928173 160.6683,90.9928173 C153.390446,90.9928173 146.969937,88.3757502 141.406578,83.1415375 C135.843219,77.9073248 133.061582,69.3920916 133.061582,57.5955824 C133.061582,46.5412376 135.572053,38.0650651 140.593072,32.1668105 C145.614091,26.2685559 152.130821,23.3194728 160.143457,23.3194728 C164.902053,23.3194728 169.188224,24.3155207 173.002099,26.3076465 Z M193.26802,37.4986498 L193.26802,25.6045468 L201.245626,25.6045468 L201.245626,7.79268816 L216.046186,7.79268816 L216.046186,25.6045468 L225.335899,25.6045468 L225.335899,37.4986498 L216.046186,37.4986498 L216.046186,71.2474346 C216.046186,73.8645409 216.343594,75.4953253 216.938418,76.1398365 C217.533243,76.7843478 219.352679,77.1065986 222.396781,77.1065986 C222.851647,77.1065986 223.332748,77.0968334 223.840098,77.0773028 C224.347448,77.0577721 224.846044,77.0284766 225.335899,76.9894153 L225.335899,89.4694347 L218.250525,89.7623929 C211.18261,90.0358219 206.354107,88.6686973 203.764871,85.6609781 C202.085366,83.7469749 201.245626,80.7978918 201.245626,76.8136404 L201.245626,37.4986498 L193.26802,37.4986498 Z M270.89923,47.9279617 C270.619313,45.5452231 269.902035,43.3968845 268.747376,41.4828813 C267.067871,38.9048362 264.461179,37.615833 260.927222,37.615833 C255.888708,37.615833 252.442277,40.4086733 250.587824,45.9944376 C249.608113,48.9630956 249.118265,52.9082265 249.118265,57.8299489 C249.118265,62.5173036 249.608113,66.2866614 250.587824,69.1381355 C252.372297,74.4504708 255.731256,77.1065986 260.664801,77.1065986 C264.163768,77.1065986 266.647998,76.0519596 268.117565,73.94265 C269.587131,71.8333404 270.479355,69.0990912 270.794262,65.7398204 L286.06718,65.7398204 C285.717283,70.8177879 284.072793,75.6222544 281.13366,80.1533639 C276.445043,87.4578249 269.499696,91.1100006 260.297411,91.1100006 C251.095125,91.1100006 244.324724,88.0632658 239.986004,81.9697047 C235.647284,75.8761437 233.477957,67.9663513 233.477957,58.2400904 C233.477957,47.2638683 235.874714,38.7291047 240.6683,32.6355436 C245.461885,26.5419826 252.074835,23.4952477 260.507348,23.4952477 C267.680232,23.4952477 273.549662,25.2920401 278.115815,28.8856787 C282.681968,32.4793172 285.38488,38.8266814 286.224633,47.9279617 L270.89923,47.9279617 Z M339.476907,25.4287719 C342.363555,26.795917 344.734071,28.8856646 346.588523,31.6980774 C348.163059,34.080816 349.125261,36.5318751 349.475157,39.0513282 C349.825054,41.5707814 350,45.6819203 350,51.3848685 L350,88.8835183 L334.727082,88.8835183 L334.727082,50.0372608 C334.727082,46.5998674 334.202245,43.8265575 333.152554,41.7172479 C331.787957,38.7485899 329.198759,37.2642832 325.384885,37.2642832 C321.431051,37.2642832 318.430731,38.7388247 316.383835,41.687952 C314.336939,44.6370794 313.313506,48.8458701 313.313506,54.3144505 L313.313506,88.8835183 L298.407978,88.8835183 L298.407978,2.81239873 L313.313506,2.81239873 L313.313506,33.3386433 C315.482866,29.6278209 317.993338,27.0400493 320.844997,25.575251 C323.696655,24.1104526 326.696975,23.3780645 329.846046,23.3780645 C333.380004,23.3780645 336.590258,24.0616268 339.476907,25.4287719 Z" id="Sketch"></path>
            </g>
        </g>
    </g>
</svg>